%TF.GenerationSoftware,KiCad,Pcbnew,8.0.5*%
%TF.CreationDate,2024-09-20T18:17:22+02:00*%
%TF.ProjectId,clops,636c6f70-732e-46b6-9963-61645f706362,rev?*%
%TF.SameCoordinates,Original*%
%TF.FileFunction,Profile,NP*%
%FSLAX46Y46*%
G04 Gerber Fmt 4.6, Leading zero omitted, Abs format (unit mm)*
G04 Created by KiCad (PCBNEW 8.0.5) date 2024-09-20 18:17:22*
%MOMM*%
%LPD*%
G01*
G04 APERTURE LIST*
%TA.AperFunction,Profile*%
%ADD10C,0.100000*%
%TD*%
%TA.AperFunction,Profile*%
%ADD11C,0.050000*%
%TD*%
G04 APERTURE END LIST*
D10*
X70943209Y-111508757D02*
G75*
G02*
X70672785Y-111271537I97291J383657D01*
G01*
X144065625Y-29704750D02*
X153590625Y-29704750D01*
X144065625Y-29704750D02*
X144065625Y-39229750D01*
X144065625Y-39229750D02*
G75*
G02*
X143549934Y-39973274I-793925J50D01*
G01*
X159146875Y-124954750D02*
G75*
G02*
X158353125Y-125748475I-793675J-50D01*
G01*
X31193719Y-84745275D02*
X40408760Y-30132980D01*
X73598993Y-93166567D02*
G75*
G02*
X73785863Y-93379120I-61093J-242133D01*
G01*
X73598993Y-93166567D02*
X31698395Y-86173480D01*
X256952240Y-29725627D02*
G75*
G02*
X257247450Y-30132982I-174040J-436773D01*
G01*
X70672809Y-111271527D02*
X73785867Y-93379120D01*
X40408760Y-30132980D02*
G75*
G02*
X40703991Y-29725583I469440J-29520D01*
G01*
X154109308Y-39974315D02*
X256952240Y-29725627D01*
X31698395Y-86173480D02*
G75*
G02*
X31193699Y-84745273I1242305J1242280D01*
G01*
X226189691Y-111271527D02*
G75*
G02*
X225919287Y-111508740I-367791J146527D01*
G01*
X40704009Y-29725627D02*
X143549911Y-39973212D01*
X153590625Y-29704750D02*
X153590625Y-39229750D01*
X223860542Y-92591274D02*
X226189691Y-111271527D01*
X137715625Y-121779750D02*
X70943209Y-111508757D01*
X225919291Y-111508757D02*
X159146875Y-121779750D01*
X265668775Y-84745272D02*
G75*
G02*
X265164082Y-86173460I-1746675J-186028D01*
G01*
X137715625Y-124954750D02*
X137715625Y-121779750D01*
X159146875Y-121779750D02*
X159146875Y-124954750D01*
X154109308Y-39974315D02*
G75*
G02*
X153590660Y-39229750I275192J744615D01*
G01*
X265164099Y-86173477D02*
X224047416Y-92378721D01*
X138509375Y-125748500D02*
X158353125Y-125748500D01*
X138509375Y-125748500D02*
G75*
G02*
X137715600Y-124954750I25J793800D01*
G01*
X223860542Y-92591274D02*
G75*
G02*
X224047426Y-92378762I247958J-29626D01*
G01*
X257247489Y-30132980D02*
X265668775Y-84745272D01*
D11*
%TO.C,EN1*%
X141831250Y-123929250D02*
X140031250Y-123929250D01*
X142131250Y-123633250D02*
X142131250Y-109533250D01*
X139731250Y-109533250D02*
X139731250Y-123629250D01*
X141831250Y-109233250D02*
X140031250Y-109233250D01*
X140031250Y-123929250D02*
G75*
G02*
X139731250Y-123629250I0J300000D01*
G01*
X142131250Y-123629250D02*
G75*
G02*
X141831250Y-123929250I-300000J0D01*
G01*
X139731250Y-109533250D02*
G75*
G02*
X140031250Y-109233250I300000J0D01*
G01*
X141831250Y-109233250D02*
G75*
G02*
X142131250Y-109533250I0J-300000D01*
G01*
%TD*%
M02*
