M48
; DRILL file {KiCad 8.0.5} date 2024-09-20T18:17:29+0200
; FORMAT={-:-/ absolute / inch / decimal}
; #@! TF.CreationDate,2024-09-20T18:17:29+02:00
; #@! TF.GenerationSoftware,Kicad,Pcbnew,8.0.5
; #@! TF.FileFunction,Plated,1,2,PTH
FMAT,2
INCH
; #@! TA.AperFunction,Plated,PTH,ViaDrill
T1C0.0118
; #@! TA.AperFunction,Plated,PTH,ViaDrill
T2C0.0138
; #@! TA.AperFunction,Plated,PTH,ComponentDrill
T3C0.0138
; #@! TA.AperFunction,Plated,PTH,ComponentDrill
T4C0.0236
; #@! TA.AperFunction,Plated,PTH,ComponentDrill
T5C0.0394
; #@! TA.AperFunction,Plated,PTH,ComponentDrill
T6C0.0433
; #@! TA.AperFunction,Plated,PTH,ComponentDrill
T7C0.0591
; #@! TA.AperFunction,Plated,PTH,ComponentDrill
T8C0.0600
; #@! TA.AperFunction,Plated,PTH,ComponentDrill
T9C0.1181
; #@! TA.AperFunction,Plated,PTH,ComponentDrill
T10C0.1200
%
G90
G05
T1
X5.2249Y-1.633
X5.3594Y-2.7188
X5.5156Y-1.875
X5.5161Y-2.655
X5.5699Y-2.2594
X5.5769Y-1.702
X5.5981Y-1.9176
X5.5999Y-2.6281
X5.6071Y-2.2188
X5.6246Y-2.6477
X5.6949Y-2.1994
X5.6949Y-1.4723
X5.7131Y-1.9576
X5.7344Y-1.7188
X5.7344Y-2.6875
X5.7349Y-2.1997
X5.7609Y-1.5988
X5.7711Y-2.8268
X5.8123Y-2.714
X5.8124Y-2.8941
X5.8448Y-3.5027
X5.8525Y-2.2759
X5.8574Y-2.2168
X5.9042Y-2.113
X5.9336Y-2.707
X5.9375Y-1.625
X5.967Y-1.7971
X5.9688Y-3.4062
X5.9894Y-1.5698
X6.0181Y-1.4788
X6.0301Y-2.2188
X6.0499Y-2.3044
X6.0528Y-2.6438
X6.0781Y-2.625
X6.0793Y-1.7969
X6.099Y-4.4789
X6.1094Y-4.2611
X6.1299Y-2.6244
X6.1332Y-1.9338
X6.3906Y-1.633
T2
X5.8149Y-2.4158
X5.8199Y-2.5827
T3
X5.7936Y-2.4498
X5.7936Y-2.5
X5.7936Y-2.5502
X5.8438Y-2.4498
X5.8438Y-2.5
X5.8438Y-2.5502
X5.8939Y-2.4498
X5.8939Y-2.5
X5.8939Y-2.5502
T5
X5.4219Y-2.6187
X5.4219Y-2.7188
X5.4219Y-2.8188
X5.7453Y-3.0057
X5.7453Y-3.5765
X5.8438Y-3.5765
X5.9422Y-3.0057
X5.9422Y-3.5765
T6
X6.1567Y-4.8515
T8
X5.6937Y-4.4937
X5.9437Y-4.3937
T9
X1.5272Y-2.9586
X1.7371Y-2.2325
X1.7897Y-2.8989
X1.947Y-1.5064
X1.9996Y-2.1728
X2.2096Y-1.4467
X2.2679Y-3.0759
X2.5305Y-3.0163
X2.5704Y-2.3645
X2.833Y-2.3048
X2.873Y-1.6531
X3.0087Y-3.1933
X3.1355Y-1.5934
X3.1692Y-3.978
X3.2713Y-3.1336
X3.3112Y-2.4818
X3.4317Y-3.9184
X3.5738Y-2.4222
X3.6137Y-1.7704
X3.7495Y-3.3106
X3.8763Y-1.7107
X4.012Y-3.2509
X4.052Y-2.5991
X4.3145Y-2.5395
X4.3545Y-1.8877
X4.3729Y-4.1687
X4.4902Y-3.4279
X4.6171Y-1.8281
X4.6355Y-4.109
X4.7528Y-3.3682
X4.7927Y-2.7165
X5.0553Y-2.6568
X5.0953Y-2.005
X5.3578Y-1.9454
X5.6937Y-3.1812
X5.9437Y-3.0812
X6.3115Y-2.0402
X6.5428Y-1.9023
X6.614Y-2.7516
X6.8453Y-2.6137
X6.9165Y-3.463
X7.0339Y-4.2038
X7.0523Y-1.9228
X7.1478Y-3.3252
X7.2651Y-4.0659
X7.2835Y-1.785
X7.3548Y-2.6343
X7.5861Y-2.4964
X7.6573Y-3.3457
X7.793Y-1.8055
X7.8886Y-3.2078
X8.0243Y-1.6676
X8.0955Y-2.5169
X8.2376Y-4.0131
X8.3268Y-2.3791
X8.3981Y-3.2284
X8.4689Y-3.8753
X8.5338Y-1.6882
X8.6293Y-3.0905
X8.7651Y-1.5503
X8.8437Y-2.3985
X9.075Y-2.2606
X9.1388Y-3.1111
X9.3701Y-2.9732
X9.4598Y-1.5415
X9.6771Y-2.2665
X9.691Y-1.4037
X9.8796Y-2.9937
X9.9084Y-2.1286
X10.1109Y-2.8559
T10
X3.9995Y-4.4893
X4.9255Y-4.6359
X6.7777Y-4.6241
X7.7037Y-4.4774
T4
G00X5.6893Y-1.1969
M15
G01X5.6893Y-1.2205
M16
G05
G00X5.6893Y-1.3516
M15
G01X5.6893Y-1.3949
M16
G05
G00X6.0295Y-1.1969
M15
G01X6.0295Y-1.2205
M16
G05
G00X6.0295Y-1.3516
M15
G01X6.0295Y-1.3949
M16
G05
T6
G00X6.0839Y-4.8515
M15
G01X6.0642Y-4.8515
M16
G05
G00X6.0888Y-4.5334
M15
G01X6.1085Y-4.5334
M16
G05
G00X6.1085Y-4.5541
M15
G01X6.0888Y-4.5541
M16
G05
G00X6.0888Y-4.6334
M15
G01X6.1085Y-4.6334
M16
G05
G00X6.1085Y-4.6541
M15
G01X6.0888Y-4.6541
M16
G05
G00X6.0888Y-4.7334
M15
G01X6.1085Y-4.7334
M16
G05
G00X6.1085Y-4.7541
M15
G01X6.0888Y-4.7541
M16
G05
T7
G00X5.6233Y-3.3068
M15
G01X5.6233Y-3.2557
M16
G05
G00X6.0642Y-3.3068
M15
G01X6.0642Y-3.2557
M16
G05
M30
