%TF.GenerationSoftware,KiCad,Pcbnew,8.0.5*%
%TF.CreationDate,2024-09-20T18:17:22+02:00*%
%TF.ProjectId,clops,636c6f70-732e-46b6-9963-61645f706362,rev?*%
%TF.SameCoordinates,Original*%
%TF.FileFunction,Legend,Bot*%
%TF.FilePolarity,Positive*%
%FSLAX46Y46*%
G04 Gerber Fmt 4.6, Leading zero omitted, Abs format (unit mm)*
G04 Created by KiCad (PCBNEW 8.0.5) date 2024-09-20 18:17:22*
%MOMM*%
%LPD*%
G01*
G04 APERTURE LIST*
%ADD10C,0.150000*%
%ADD11C,0.200000*%
%ADD12C,0.120000*%
%ADD13C,0.300000*%
%ADD14C,0.600000*%
%ADD15C,0.000000*%
G04 APERTURE END LIST*
D10*
X155431250Y-112712500D02*
X155431250Y-123031250D01*
D11*
X153689947Y-105568750D02*
G75*
G02*
X154086850Y-105965626I53J-396850D01*
G01*
D10*
X142531250Y-123031250D02*
X154043750Y-123031250D01*
D12*
X149831250Y-122537500D02*
X149231250Y-122537500D01*
D11*
X146347552Y-105568750D02*
G75*
G02*
X146066924Y-105452503I248J397450D01*
G01*
D12*
X149231250Y-122537500D02*
X149531250Y-122237500D01*
D11*
X144595661Y-103981250D02*
X146066919Y-105452508D01*
D10*
X142531250Y-116681250D02*
X142531250Y-123031250D01*
D11*
X154086823Y-105965626D02*
X154087678Y-107084763D01*
X142972611Y-103981250D02*
G75*
G02*
X143188822Y-103891719I216189J-216250D01*
G01*
D12*
X149831250Y-122537500D02*
X149531250Y-122237500D01*
D11*
X142756400Y-104197461D02*
X142972611Y-103981250D01*
X144379450Y-103891692D02*
X143188822Y-103891692D01*
X146347552Y-105568750D02*
X153689947Y-105568750D01*
X144379450Y-103891692D02*
G75*
G02*
X144595657Y-103981254I-150J-306108D01*
G01*
D10*
G36*
X136071926Y-71798069D02*
G01*
X136057968Y-71848371D01*
X136037665Y-71893495D01*
X136034801Y-71898208D01*
X136002135Y-71934998D01*
X135974229Y-71952430D01*
X135925740Y-71966650D01*
X135878730Y-71970016D01*
X135827930Y-71965023D01*
X135779353Y-71946248D01*
X135755631Y-71927762D01*
X135727799Y-71887021D01*
X135714702Y-71838037D01*
X135712645Y-71804419D01*
X135717677Y-71754022D01*
X135730474Y-71717225D01*
X135759655Y-71676719D01*
X135788848Y-71650790D01*
X135832459Y-71621472D01*
X135878138Y-71595681D01*
X135912435Y-71578006D01*
X135959390Y-71553138D01*
X136003492Y-71526169D01*
X136039686Y-71499604D01*
X136075970Y-71464622D01*
X136104782Y-71424444D01*
X136109295Y-71416073D01*
X136126514Y-71368873D01*
X136132254Y-71317643D01*
X136128011Y-71266670D01*
X136113706Y-71216593D01*
X136096350Y-71182821D01*
X136064534Y-71143632D01*
X136023306Y-71111792D01*
X135990593Y-71094650D01*
X135940202Y-71076850D01*
X135890285Y-71067081D01*
X135836456Y-71063417D01*
X135830858Y-71063386D01*
X135779201Y-71064791D01*
X135728765Y-71069004D01*
X135680352Y-71076584D01*
X135631190Y-71087323D01*
X135603956Y-71094161D01*
X135603956Y-71282228D01*
X135672100Y-71282228D01*
X135687534Y-71233989D01*
X135710424Y-71189366D01*
X135711912Y-71187218D01*
X135747009Y-71151279D01*
X135768332Y-71139590D01*
X135816169Y-71127836D01*
X135852107Y-71125913D01*
X135901912Y-71131768D01*
X135932219Y-71142521D01*
X135972175Y-71171683D01*
X135988150Y-71192835D01*
X136005782Y-71239718D01*
X136008667Y-71272703D01*
X136003180Y-71323141D01*
X135991326Y-71355745D01*
X135961711Y-71396274D01*
X135936615Y-71418760D01*
X135893975Y-71447511D01*
X135848580Y-71472675D01*
X135826706Y-71483728D01*
X135780377Y-71508230D01*
X135736241Y-71534277D01*
X135693480Y-71563895D01*
X135690418Y-71566282D01*
X135652004Y-71601725D01*
X135621817Y-71641376D01*
X135614703Y-71653477D01*
X135596170Y-71699352D01*
X135588254Y-71747559D01*
X135587592Y-71767539D01*
X135590786Y-71818967D01*
X135601456Y-71867549D01*
X135610307Y-71890637D01*
X135635466Y-71933728D01*
X135670820Y-71970700D01*
X135673321Y-71972703D01*
X135717346Y-71999875D01*
X135765829Y-72017474D01*
X135769309Y-72018376D01*
X135820306Y-72028060D01*
X135871344Y-72032196D01*
X135891919Y-72032542D01*
X135947850Y-72030161D01*
X136000197Y-72024170D01*
X136055722Y-72014533D01*
X136105845Y-72003370D01*
X136140558Y-71994440D01*
X136140558Y-71798069D01*
X136071926Y-71798069D01*
G37*
G36*
X134876357Y-71254140D02*
G01*
X135096176Y-72016911D01*
X135207550Y-72016911D01*
X135407341Y-71275145D01*
X135421358Y-71225979D01*
X135430056Y-71199185D01*
X135450160Y-71153845D01*
X135450816Y-71152779D01*
X135473042Y-71127378D01*
X135507725Y-71112723D01*
X135507725Y-71079018D01*
X135213656Y-71079018D01*
X135213656Y-71112968D01*
X135260190Y-71128196D01*
X135273252Y-71137636D01*
X135290104Y-71183310D01*
X135285090Y-71233915D01*
X135283998Y-71239974D01*
X135273073Y-71289132D01*
X135266657Y-71314224D01*
X135128660Y-71853268D01*
X134907376Y-71079018D01*
X134791849Y-71079018D01*
X134612575Y-71854001D01*
X134450642Y-71333519D01*
X134436356Y-71284521D01*
X134425244Y-71236337D01*
X134421088Y-71198453D01*
X134430980Y-71148994D01*
X134438674Y-71138369D01*
X134482171Y-71115944D01*
X134496559Y-71112968D01*
X134496559Y-71079018D01*
X134225938Y-71079018D01*
X134225938Y-71112968D01*
X134258911Y-71128355D01*
X134282603Y-71151802D01*
X134306434Y-71195324D01*
X134307271Y-71197232D01*
X134325780Y-71244000D01*
X134338534Y-71280030D01*
X134588639Y-72016911D01*
X134686825Y-72016911D01*
X134876357Y-71254140D01*
G37*
G36*
X133544745Y-71093917D02*
G01*
X133544745Y-71282228D01*
X133612889Y-71282228D01*
X133628937Y-71235899D01*
X133653076Y-71191836D01*
X133654654Y-71189660D01*
X133689650Y-71154340D01*
X133713761Y-71140567D01*
X133761236Y-71127973D01*
X133794850Y-71125913D01*
X133845809Y-71132576D01*
X133892440Y-71152566D01*
X133921123Y-71173296D01*
X133956273Y-71211499D01*
X133983369Y-71255997D01*
X134003799Y-71303999D01*
X134007829Y-71315689D01*
X134021614Y-71365683D01*
X134031460Y-71420653D01*
X134036845Y-71472834D01*
X134039214Y-71528825D01*
X134039337Y-71545522D01*
X134038427Y-71594955D01*
X134035064Y-71649090D01*
X134029224Y-71699414D01*
X134019515Y-71752262D01*
X134013447Y-71776820D01*
X133996795Y-71826966D01*
X133973716Y-71873983D01*
X133942765Y-71915122D01*
X133936511Y-71921412D01*
X133894997Y-71951030D01*
X133847026Y-71966978D01*
X133811458Y-71970016D01*
X133760228Y-71965986D01*
X133719379Y-71953896D01*
X133679079Y-71925999D01*
X133659295Y-71902116D01*
X133635481Y-71858397D01*
X133617032Y-71810646D01*
X133612889Y-71798069D01*
X133544745Y-71798069D01*
X133544745Y-71997615D01*
X133593700Y-72009419D01*
X133643480Y-72018819D01*
X133677125Y-72023749D01*
X133729755Y-72029107D01*
X133781319Y-72031847D01*
X133825869Y-72032542D01*
X133878290Y-72029632D01*
X133926561Y-72020902D01*
X133979009Y-72002744D01*
X134025480Y-71976206D01*
X134065975Y-71941287D01*
X134089651Y-71913352D01*
X134119947Y-71864442D01*
X134140406Y-71817387D01*
X134156512Y-71764608D01*
X134168265Y-71706104D01*
X134174534Y-71655179D01*
X134178016Y-71600591D01*
X134178799Y-71557245D01*
X134177177Y-71502938D01*
X134172308Y-71451206D01*
X134164194Y-71402050D01*
X134150624Y-71347957D01*
X134132638Y-71297371D01*
X134110255Y-71250862D01*
X134083711Y-71209215D01*
X134048280Y-71167571D01*
X134007415Y-71132278D01*
X133996350Y-71124447D01*
X133949104Y-71097733D01*
X133897493Y-71078652D01*
X133848751Y-71068216D01*
X133796667Y-71063625D01*
X133781172Y-71063386D01*
X133731982Y-71064475D01*
X133682614Y-71068081D01*
X133665889Y-71069981D01*
X133616615Y-71077688D01*
X133565670Y-71088696D01*
X133544745Y-71093917D01*
G37*
G36*
X133181312Y-71954384D02*
G01*
X133001305Y-71954384D01*
X132951968Y-71950965D01*
X132917774Y-71939974D01*
X132892372Y-71919458D01*
X132870879Y-71885264D01*
X132852846Y-71837923D01*
X132851095Y-71832019D01*
X132838524Y-71782454D01*
X132828137Y-71735543D01*
X132758772Y-71735543D01*
X132772449Y-72016911D01*
X133390139Y-72016911D01*
X133390139Y-71983205D01*
X133343333Y-71966144D01*
X133332986Y-71958781D01*
X133314180Y-71920679D01*
X133310131Y-71871717D01*
X133309783Y-71845208D01*
X133309783Y-71250721D01*
X133311119Y-71201605D01*
X133313203Y-71181844D01*
X133324438Y-71148139D01*
X133345443Y-71128844D01*
X133390139Y-71112723D01*
X133390139Y-71079018D01*
X133100956Y-71079018D01*
X133100956Y-71112968D01*
X133143698Y-71127867D01*
X133164703Y-71145208D01*
X133177160Y-71178913D01*
X133181052Y-71228098D01*
X133181312Y-71251209D01*
X133181312Y-71954384D01*
G37*
G36*
X132430509Y-71501070D02*
G01*
X132409993Y-71501070D01*
X132362365Y-71493010D01*
X132320585Y-71467631D01*
X132314005Y-71462235D01*
X132277532Y-71427210D01*
X132242241Y-71389371D01*
X132232184Y-71378215D01*
X132198393Y-71340305D01*
X132166067Y-71302576D01*
X132142058Y-71272214D01*
X132113154Y-71230403D01*
X132101514Y-71206757D01*
X132093454Y-71168411D01*
X132109330Y-71128355D01*
X132152317Y-71112968D01*
X132152317Y-71079018D01*
X131852875Y-71079018D01*
X131852875Y-71112968D01*
X131896350Y-71129820D01*
X131937051Y-71159960D01*
X131939825Y-71162549D01*
X131975908Y-71199090D01*
X132005527Y-71231181D01*
X132236336Y-71489346D01*
X131986231Y-71854489D01*
X131956706Y-71895797D01*
X131925142Y-71934094D01*
X131923705Y-71935578D01*
X131885638Y-71966406D01*
X131880474Y-71969283D01*
X131836511Y-71983205D01*
X131836511Y-72016911D01*
X132139372Y-72016911D01*
X132139372Y-71983205D01*
X132102247Y-71973680D01*
X132090523Y-71950965D01*
X132098583Y-71920923D01*
X132123496Y-71878425D01*
X132283719Y-71638578D01*
X132311821Y-71597207D01*
X132324996Y-71579716D01*
X132353084Y-71555780D01*
X132393628Y-71547964D01*
X132430021Y-71547964D01*
X132430021Y-71841788D01*
X132428653Y-71892503D01*
X132426846Y-71910421D01*
X132416587Y-71944859D01*
X132395338Y-71965864D01*
X132349665Y-71982472D01*
X132349665Y-72016911D01*
X132638848Y-72016911D01*
X132638848Y-71983205D01*
X132592042Y-71966144D01*
X132581695Y-71958781D01*
X132562889Y-71920679D01*
X132558840Y-71871717D01*
X132558492Y-71845208D01*
X132558492Y-71250721D01*
X132559828Y-71201605D01*
X132561912Y-71181844D01*
X132573147Y-71148139D01*
X132594152Y-71128844D01*
X132638848Y-71112723D01*
X132638848Y-71079018D01*
X132349665Y-71079018D01*
X132349665Y-71112968D01*
X132393140Y-71128111D01*
X132414633Y-71146917D01*
X132426357Y-71180623D01*
X132429845Y-71230789D01*
X132430021Y-71250232D01*
X132430509Y-71501070D01*
G37*
D13*
G36*
X128709871Y-39111239D02*
G01*
X128723265Y-39181241D01*
X128746923Y-39216888D01*
X128794222Y-39241442D01*
X128823010Y-39249166D01*
X128895463Y-39262670D01*
X129776215Y-39402167D01*
X129815570Y-39407872D01*
X129889059Y-39413363D01*
X129949921Y-39394441D01*
X129963258Y-39380840D01*
X129999518Y-39315499D01*
X130049453Y-39323408D01*
X129981424Y-39752928D01*
X129931850Y-39745076D01*
X129918456Y-39675074D01*
X129895769Y-39640323D01*
X129848527Y-39615407D01*
X129815700Y-39606605D01*
X129743364Y-39593187D01*
X129398155Y-39538511D01*
X129380388Y-39650686D01*
X129374372Y-39726145D01*
X129387242Y-39776033D01*
X129430641Y-39832241D01*
X129475981Y-39871986D01*
X129534080Y-39916875D01*
X129689214Y-40033437D01*
X129743788Y-40074399D01*
X129804364Y-40121410D01*
X129852059Y-40160832D01*
X129908581Y-40212844D01*
X129863877Y-40495090D01*
X129813941Y-40487181D01*
X129813700Y-40477926D01*
X129797792Y-40404131D01*
X129793610Y-40395882D01*
X129748037Y-40336531D01*
X129705563Y-40297903D01*
X129646637Y-40250736D01*
X129494322Y-40132766D01*
X129472286Y-40115609D01*
X129415735Y-40067461D01*
X129362637Y-40011016D01*
X129332040Y-39963094D01*
X129306696Y-39893473D01*
X129298012Y-39892097D01*
X129272493Y-39935284D01*
X129228597Y-39995910D01*
X129174704Y-40051651D01*
X129109221Y-40098108D01*
X129088355Y-40108923D01*
X129015068Y-40134350D01*
X128936037Y-40143437D01*
X128859999Y-40137643D01*
X128795760Y-40123218D01*
X128722600Y-40092736D01*
X128657359Y-40043079D01*
X128610188Y-39977153D01*
X128591576Y-39933411D01*
X128572514Y-39852612D01*
X128566654Y-39770999D01*
X128569667Y-39692937D01*
X128570450Y-39686514D01*
X128672157Y-39686514D01*
X128684475Y-39763393D01*
X128713487Y-39824927D01*
X128765215Y-39878929D01*
X128780319Y-39889320D01*
X128847491Y-39920454D01*
X128919158Y-39937437D01*
X128930507Y-39939122D01*
X129004678Y-39943749D01*
X129078140Y-39933685D01*
X129125180Y-39916949D01*
X129188066Y-39874312D01*
X129214784Y-39844639D01*
X129251935Y-39780197D01*
X129272532Y-39714107D01*
X129287295Y-39638909D01*
X129305521Y-39523839D01*
X128707376Y-39429102D01*
X128692248Y-39503789D01*
X128679841Y-39577194D01*
X128675194Y-39611794D01*
X128672157Y-39686514D01*
X128570450Y-39686514D01*
X128580100Y-39607392D01*
X128659935Y-39103330D01*
X128709871Y-39111239D01*
G37*
G36*
X128305174Y-41343204D02*
G01*
X128606236Y-41390888D01*
X128622054Y-41291016D01*
X128556345Y-41254558D01*
X128543452Y-41246296D01*
X128488353Y-41203072D01*
X128455290Y-41158888D01*
X128443240Y-41106162D01*
X128448587Y-41037274D01*
X128499537Y-40715586D01*
X129032186Y-40799949D01*
X128997684Y-41017785D01*
X128973177Y-41085864D01*
X128920154Y-41120865D01*
X128846346Y-41134143D01*
X128812649Y-41136851D01*
X128797518Y-41232380D01*
X129191215Y-41294735D01*
X129206346Y-41199206D01*
X129140702Y-41164884D01*
X129125992Y-41153837D01*
X129091274Y-41106052D01*
X129090319Y-41032457D01*
X129124820Y-40814621D01*
X129703786Y-40906320D01*
X129653638Y-41222942D01*
X129635751Y-41294637D01*
X129632535Y-41302317D01*
X129596190Y-41351459D01*
X129538141Y-41383067D01*
X129466975Y-41401470D01*
X129394146Y-41412956D01*
X129361641Y-41417799D01*
X129345708Y-41518395D01*
X129696125Y-41554236D01*
X129845423Y-40611607D01*
X129795487Y-40603698D01*
X129759227Y-40669039D01*
X129745891Y-40682640D01*
X129685028Y-40701563D01*
X129611540Y-40696072D01*
X129572184Y-40690366D01*
X128691432Y-40550869D01*
X128618979Y-40537365D01*
X128590192Y-40529641D01*
X128542892Y-40505087D01*
X128519235Y-40469440D01*
X128505840Y-40399438D01*
X128455904Y-40391529D01*
X128305174Y-41343204D01*
G37*
G36*
X129317630Y-41845560D02*
G01*
X129388879Y-41878043D01*
X129450968Y-41918710D01*
X129457278Y-41924059D01*
X129504118Y-41981087D01*
X129523396Y-42026522D01*
X129533085Y-42101697D01*
X129527041Y-42172134D01*
X129507723Y-42246224D01*
X129468509Y-42313786D01*
X129435555Y-42344593D01*
X129368665Y-42376268D01*
X129293021Y-42384178D01*
X129242732Y-42379337D01*
X129169247Y-42360056D01*
X129117734Y-42332461D01*
X129064571Y-42279724D01*
X129033007Y-42230389D01*
X128999804Y-42158899D01*
X128972312Y-42085172D01*
X128954175Y-42030212D01*
X128928350Y-41954812D01*
X128898743Y-41883145D01*
X128867879Y-41823289D01*
X128824566Y-41761324D01*
X128771801Y-41709211D01*
X128760459Y-41700560D01*
X128694571Y-41663974D01*
X128620019Y-41643449D01*
X128543505Y-41637774D01*
X128465957Y-41647217D01*
X128411851Y-41665005D01*
X128346325Y-41702947D01*
X128289480Y-41756555D01*
X128256406Y-41800999D01*
X128218212Y-41871478D01*
X128192024Y-41943139D01*
X128173965Y-42022028D01*
X128172607Y-42030315D01*
X128162566Y-42107177D01*
X128156973Y-42182888D01*
X128156843Y-42256391D01*
X128161217Y-42331746D01*
X128164957Y-42373698D01*
X128443585Y-42417829D01*
X128459575Y-42316871D01*
X128391729Y-42282686D01*
X128330989Y-42238304D01*
X128328156Y-42235595D01*
X128283147Y-42175164D01*
X128270833Y-42140831D01*
X128264644Y-42067200D01*
X128270227Y-42013506D01*
X128290589Y-41941092D01*
X128313632Y-41898715D01*
X128366212Y-41846362D01*
X128401298Y-41827656D01*
X128474894Y-41812536D01*
X128524438Y-41816002D01*
X128597877Y-41835966D01*
X128643400Y-41861179D01*
X128696496Y-41914564D01*
X128723920Y-41957021D01*
X128756510Y-42026940D01*
X128783140Y-42100099D01*
X128794383Y-42135100D01*
X128819812Y-42209488D01*
X128848044Y-42280988D01*
X128881890Y-42351291D01*
X128884709Y-42356386D01*
X128928205Y-42421616D01*
X128979865Y-42475643D01*
X128996124Y-42489021D01*
X129059740Y-42527243D01*
X129129303Y-42550283D01*
X129158748Y-42555952D01*
X129235691Y-42563287D01*
X129310171Y-42558880D01*
X129346452Y-42551185D01*
X129416196Y-42524022D01*
X129479268Y-42480319D01*
X129482822Y-42477083D01*
X129533409Y-42418235D01*
X129570859Y-42350536D01*
X129573012Y-42345592D01*
X129599326Y-42272310D01*
X129617430Y-42197666D01*
X129622770Y-42167266D01*
X129632367Y-42083842D01*
X129635774Y-42004884D01*
X129634526Y-41920360D01*
X129629749Y-41843482D01*
X129624665Y-41789958D01*
X129333734Y-41743879D01*
X129317630Y-41845560D01*
G37*
G36*
X127953278Y-43564986D02*
G01*
X128254341Y-43612670D01*
X128270159Y-43512798D01*
X128204449Y-43476340D01*
X128191557Y-43468078D01*
X128136457Y-43424854D01*
X128103395Y-43380670D01*
X128091344Y-43327944D01*
X128096691Y-43259055D01*
X128147642Y-42937367D01*
X128680290Y-43021731D01*
X128645788Y-43239567D01*
X128621281Y-43307646D01*
X128568259Y-43342647D01*
X128494450Y-43355925D01*
X128460753Y-43358632D01*
X128445623Y-43454162D01*
X128839320Y-43516517D01*
X128854450Y-43420988D01*
X128788806Y-43386666D01*
X128774096Y-43375619D01*
X128739378Y-43327834D01*
X128738423Y-43254239D01*
X128772925Y-43036403D01*
X129351891Y-43128102D01*
X129301743Y-43444724D01*
X129283856Y-43516419D01*
X129280640Y-43524099D01*
X129244295Y-43573240D01*
X129186245Y-43604849D01*
X129115079Y-43623252D01*
X129042250Y-43634737D01*
X129009745Y-43639581D01*
X128993812Y-43740176D01*
X129344229Y-43776018D01*
X129493527Y-42833389D01*
X129443591Y-42825480D01*
X129407331Y-42890821D01*
X129393995Y-42904422D01*
X129333133Y-42923344D01*
X129259644Y-42917854D01*
X129220288Y-42912148D01*
X128339536Y-42772651D01*
X128267083Y-42759147D01*
X128238296Y-42751423D01*
X128190996Y-42726869D01*
X128167339Y-42691222D01*
X128153945Y-42621220D01*
X128104009Y-42613311D01*
X127953278Y-43564986D01*
G37*
G36*
X127923934Y-43750255D02*
G01*
X127749534Y-44851376D01*
X128096914Y-44906395D01*
X128112732Y-44806524D01*
X128044800Y-44774286D01*
X127986619Y-44740925D01*
X127928306Y-44693564D01*
X127919413Y-44682801D01*
X127891481Y-44624963D01*
X127892390Y-44549577D01*
X127893921Y-44539294D01*
X127914382Y-44410112D01*
X128954349Y-44574827D01*
X129027306Y-44589831D01*
X129048847Y-44596471D01*
X129102087Y-44625675D01*
X129128389Y-44668047D01*
X129139394Y-44741568D01*
X129139608Y-44744752D01*
X129189544Y-44752661D01*
X129263190Y-44287679D01*
X129213254Y-44279770D01*
X129189879Y-44331336D01*
X129163959Y-44366179D01*
X129130028Y-44386028D01*
X129077685Y-44393317D01*
X129002800Y-44387246D01*
X128984495Y-44384492D01*
X127944528Y-44219777D01*
X127964874Y-44091319D01*
X127983850Y-44019593D01*
X127986414Y-44013868D01*
X128032074Y-43962121D01*
X128099185Y-43931932D01*
X128118942Y-43926546D01*
X128193490Y-43912709D01*
X128255381Y-43905870D01*
X128271314Y-43805275D01*
X127923934Y-43750255D01*
G37*
D11*
G36*
X150169016Y-120797521D02*
G01*
X150169016Y-121060131D01*
X150266029Y-121060131D01*
X150285917Y-121004148D01*
X150293287Y-120986858D01*
X150319372Y-120939670D01*
X150348095Y-120910361D01*
X150385318Y-120895413D01*
X150438074Y-120891310D01*
X150689253Y-120891310D01*
X150689253Y-121303983D01*
X150522191Y-121303983D01*
X150470021Y-121294311D01*
X150438953Y-121259726D01*
X150419389Y-121201529D01*
X150412575Y-121172678D01*
X150318200Y-121172678D01*
X150318200Y-121510319D01*
X150412282Y-121510319D01*
X150430279Y-121453395D01*
X150438367Y-121437046D01*
X150468556Y-121406565D01*
X150522191Y-121397772D01*
X150689253Y-121397772D01*
X150689253Y-121847960D01*
X150442177Y-121847960D01*
X150382706Y-121842551D01*
X150379749Y-121841805D01*
X150339595Y-121820703D01*
X150309114Y-121781135D01*
X150286546Y-121728965D01*
X150268370Y-121672706D01*
X150258702Y-121641624D01*
X150160223Y-121641624D01*
X150176930Y-121941750D01*
X150958604Y-121941750D01*
X150958604Y-121884597D01*
X150902675Y-121865873D01*
X150887383Y-121856167D01*
X150867160Y-121814255D01*
X150862489Y-121754354D01*
X150862177Y-121726327D01*
X150862177Y-121012943D01*
X150863944Y-120952974D01*
X150866281Y-120932343D01*
X150878297Y-120895120D01*
X150900572Y-120874604D01*
X150955886Y-120855145D01*
X150958604Y-120854380D01*
X150958604Y-120797521D01*
X150169016Y-120797521D01*
G37*
G36*
X149313189Y-121477493D02*
G01*
X149282617Y-121529322D01*
X149263071Y-121564248D01*
X149235692Y-121616827D01*
X149223796Y-121641917D01*
X149229072Y-121641917D01*
X149232305Y-121580381D01*
X149234183Y-121520522D01*
X149235813Y-121452873D01*
X149237069Y-121389136D01*
X149238017Y-121328204D01*
X149238722Y-121262002D01*
X149239024Y-121199463D01*
X149239037Y-121184401D01*
X149239037Y-121012357D01*
X149240426Y-120952262D01*
X149242261Y-120931463D01*
X149253105Y-120894534D01*
X149274208Y-120874897D01*
X149331361Y-120854673D01*
X149331361Y-120797521D01*
X149015995Y-120797521D01*
X149015995Y-120854967D01*
X149071672Y-120873537D01*
X149072561Y-120874017D01*
X149094836Y-120892775D01*
X149107732Y-120928826D01*
X149112197Y-120988403D01*
X149112422Y-121012650D01*
X149112422Y-121941750D01*
X149229951Y-121941750D01*
X149691863Y-121170919D01*
X149722758Y-121119389D01*
X149753119Y-121066872D01*
X149781105Y-121013625D01*
X149784480Y-121006788D01*
X149782429Y-121006788D01*
X149778816Y-121068990D01*
X149776824Y-121133872D01*
X149775564Y-121196677D01*
X149775101Y-121226900D01*
X149774205Y-121289177D01*
X149773494Y-121351372D01*
X149772968Y-121413484D01*
X149772628Y-121475514D01*
X149772474Y-121537462D01*
X149772463Y-121558093D01*
X149772463Y-121726327D01*
X149770801Y-121787017D01*
X149768946Y-121805169D01*
X149758102Y-121842685D01*
X149735241Y-121864373D01*
X149678756Y-121883885D01*
X149676036Y-121884597D01*
X149676036Y-121941750D01*
X149995799Y-121941750D01*
X149995799Y-121884597D01*
X149940128Y-121865873D01*
X149924871Y-121856167D01*
X149904355Y-121814255D01*
X149899683Y-121754354D01*
X149899372Y-121726327D01*
X149899372Y-121012943D01*
X149901139Y-120952974D01*
X149903475Y-120932343D01*
X149915492Y-120895120D01*
X149938060Y-120874604D01*
X149995799Y-120854380D01*
X149995799Y-120797521D01*
X149723224Y-120797521D01*
X149313189Y-121477493D01*
G37*
G36*
X148071361Y-120817451D02*
G01*
X148071361Y-121060131D01*
X148169546Y-121060131D01*
X148189582Y-121001266D01*
X148218134Y-120948039D01*
X148219958Y-120945532D01*
X148262339Y-120903445D01*
X148287662Y-120889258D01*
X148345124Y-120874526D01*
X148380865Y-120872552D01*
X148439543Y-120880301D01*
X148493358Y-120903546D01*
X148526532Y-120927653D01*
X148567307Y-120972087D01*
X148598906Y-121024202D01*
X148622891Y-121080650D01*
X148627648Y-121094422D01*
X148643933Y-121153425D01*
X148655565Y-121218473D01*
X148661927Y-121280349D01*
X148664726Y-121346853D01*
X148664871Y-121366704D01*
X148663789Y-121425564D01*
X148659792Y-121489936D01*
X148652850Y-121549680D01*
X148641309Y-121612292D01*
X148634096Y-121641331D01*
X148614583Y-121700329D01*
X148587736Y-121755387D01*
X148551922Y-121803189D01*
X148544704Y-121810445D01*
X148496852Y-121844736D01*
X148436733Y-121864025D01*
X148400796Y-121866718D01*
X148341371Y-121862102D01*
X148294403Y-121848253D01*
X148246228Y-121814425D01*
X148225527Y-121789049D01*
X148197390Y-121736366D01*
X148176288Y-121681562D01*
X148169253Y-121660382D01*
X148071361Y-121660382D01*
X148071361Y-121916544D01*
X148129582Y-121930639D01*
X148192148Y-121942777D01*
X148238423Y-121949663D01*
X148302019Y-121956271D01*
X148364299Y-121959650D01*
X148418088Y-121960507D01*
X148482402Y-121956937D01*
X148541621Y-121946225D01*
X148605960Y-121923944D01*
X148662961Y-121891380D01*
X148712627Y-121848533D01*
X148741661Y-121814255D01*
X148778814Y-121754454D01*
X148803903Y-121697048D01*
X148823653Y-121632758D01*
X148838066Y-121561584D01*
X148845753Y-121499690D01*
X148850023Y-121433389D01*
X148850984Y-121380773D01*
X148849006Y-121314923D01*
X148843071Y-121252124D01*
X148833179Y-121192374D01*
X148816637Y-121126521D01*
X148794710Y-121064820D01*
X148767396Y-121008139D01*
X148734948Y-120957349D01*
X148691580Y-120906516D01*
X148641507Y-120863377D01*
X148627941Y-120853794D01*
X148570038Y-120820968D01*
X148515014Y-120799939D01*
X148455923Y-120786090D01*
X148392765Y-120779422D01*
X148364452Y-120778763D01*
X148304948Y-120780069D01*
X148245194Y-120784396D01*
X148224941Y-120786676D01*
X148163953Y-120796317D01*
X148103997Y-120809314D01*
X148071361Y-120817451D01*
G37*
D10*
G36*
X136144367Y-66728873D02*
G01*
X136130409Y-66779175D01*
X136110106Y-66824299D01*
X136107242Y-66829012D01*
X136074576Y-66865802D01*
X136046670Y-66883234D01*
X135998181Y-66897454D01*
X135951171Y-66900820D01*
X135900371Y-66895827D01*
X135851794Y-66877052D01*
X135828072Y-66858566D01*
X135800240Y-66817825D01*
X135787143Y-66768841D01*
X135785086Y-66735223D01*
X135790118Y-66684826D01*
X135802915Y-66648029D01*
X135832096Y-66607523D01*
X135861289Y-66581594D01*
X135904900Y-66552276D01*
X135950579Y-66526485D01*
X135984876Y-66508810D01*
X136031831Y-66483942D01*
X136075933Y-66456973D01*
X136112127Y-66430408D01*
X136148411Y-66395426D01*
X136177223Y-66355248D01*
X136181736Y-66346877D01*
X136198955Y-66299677D01*
X136204695Y-66248447D01*
X136200452Y-66197474D01*
X136186147Y-66147397D01*
X136168791Y-66113625D01*
X136136975Y-66074436D01*
X136095747Y-66042596D01*
X136063034Y-66025454D01*
X136012643Y-66007654D01*
X135962726Y-65997885D01*
X135908897Y-65994221D01*
X135903299Y-65994190D01*
X135851642Y-65995595D01*
X135801206Y-65999808D01*
X135752793Y-66007388D01*
X135703631Y-66018127D01*
X135676397Y-66024965D01*
X135676397Y-66213032D01*
X135744541Y-66213032D01*
X135759975Y-66164793D01*
X135782865Y-66120170D01*
X135784353Y-66118022D01*
X135819450Y-66082083D01*
X135840773Y-66070394D01*
X135888610Y-66058640D01*
X135924548Y-66056717D01*
X135974353Y-66062572D01*
X136004660Y-66073325D01*
X136044616Y-66102487D01*
X136060591Y-66123639D01*
X136078223Y-66170522D01*
X136081108Y-66203507D01*
X136075621Y-66253945D01*
X136063767Y-66286549D01*
X136034152Y-66327078D01*
X136009056Y-66349564D01*
X135966416Y-66378315D01*
X135921021Y-66403479D01*
X135899147Y-66414532D01*
X135852818Y-66439034D01*
X135808682Y-66465081D01*
X135765921Y-66494699D01*
X135762859Y-66497086D01*
X135724445Y-66532529D01*
X135694258Y-66572180D01*
X135687144Y-66584281D01*
X135668611Y-66630156D01*
X135660695Y-66678363D01*
X135660033Y-66698343D01*
X135663227Y-66749771D01*
X135673897Y-66798353D01*
X135682748Y-66821441D01*
X135707907Y-66864532D01*
X135743261Y-66901504D01*
X135745762Y-66903507D01*
X135789787Y-66930679D01*
X135838270Y-66948278D01*
X135841750Y-66949180D01*
X135892747Y-66958864D01*
X135943785Y-66963000D01*
X135964360Y-66963346D01*
X136020291Y-66960965D01*
X136072638Y-66954974D01*
X136128163Y-66945337D01*
X136178286Y-66934174D01*
X136212999Y-66925244D01*
X136212999Y-66728873D01*
X136144367Y-66728873D01*
G37*
G36*
X134948798Y-66184944D02*
G01*
X135168617Y-66947715D01*
X135279991Y-66947715D01*
X135479782Y-66205949D01*
X135493799Y-66156783D01*
X135502497Y-66129989D01*
X135522601Y-66084649D01*
X135523257Y-66083583D01*
X135545483Y-66058182D01*
X135580166Y-66043527D01*
X135580166Y-66009822D01*
X135286097Y-66009822D01*
X135286097Y-66043772D01*
X135332631Y-66059000D01*
X135345693Y-66068440D01*
X135362545Y-66114114D01*
X135357531Y-66164719D01*
X135356439Y-66170778D01*
X135345514Y-66219936D01*
X135339098Y-66245028D01*
X135201101Y-66784072D01*
X134979817Y-66009822D01*
X134864290Y-66009822D01*
X134685016Y-66784805D01*
X134523083Y-66264323D01*
X134508797Y-66215325D01*
X134497685Y-66167141D01*
X134493529Y-66129257D01*
X134503421Y-66079798D01*
X134511115Y-66069173D01*
X134554612Y-66046748D01*
X134569000Y-66043772D01*
X134569000Y-66009822D01*
X134298379Y-66009822D01*
X134298379Y-66043772D01*
X134331352Y-66059159D01*
X134355044Y-66082606D01*
X134378875Y-66126128D01*
X134379712Y-66128036D01*
X134398221Y-66174804D01*
X134410975Y-66210834D01*
X134661080Y-66947715D01*
X134759266Y-66947715D01*
X134948798Y-66184944D01*
G37*
G36*
X134223153Y-66043527D02*
G01*
X134177968Y-66059648D01*
X134156963Y-66078454D01*
X134145728Y-66111915D01*
X134143644Y-66131779D01*
X134142308Y-66181525D01*
X134142308Y-66776012D01*
X134142472Y-66795526D01*
X134145728Y-66845377D01*
X134156718Y-66879082D01*
X134177968Y-66898377D01*
X134223153Y-66914009D01*
X134223153Y-66947715D01*
X133974513Y-66947715D01*
X133946582Y-66947531D01*
X133894955Y-66946066D01*
X133843626Y-66942666D01*
X133790598Y-66935991D01*
X133761034Y-66930114D01*
X133713997Y-66916558D01*
X133668233Y-66896912D01*
X133637489Y-66878899D01*
X133596067Y-66847529D01*
X133560277Y-66810939D01*
X133550967Y-66799470D01*
X133523031Y-66757643D01*
X133499866Y-66710283D01*
X133483097Y-66662927D01*
X133470346Y-66611010D01*
X133462514Y-66561196D01*
X133457981Y-66507932D01*
X133457055Y-66471685D01*
X133596670Y-66471685D01*
X133596979Y-66497136D01*
X133599769Y-66549687D01*
X133605462Y-66598691D01*
X133607153Y-66609499D01*
X133617371Y-66657490D01*
X133632573Y-66704449D01*
X133652391Y-66746509D01*
X133680689Y-66788468D01*
X133705951Y-66815575D01*
X133747367Y-66845621D01*
X133781274Y-66861469D01*
X133829677Y-66875663D01*
X133832529Y-66876249D01*
X133881392Y-66883095D01*
X133932748Y-66885188D01*
X133963650Y-66884926D01*
X134013836Y-66882502D01*
X134013836Y-66075035D01*
X133976190Y-66073198D01*
X133925176Y-66072348D01*
X133900222Y-66072989D01*
X133847338Y-66079120D01*
X133798976Y-66091743D01*
X133750543Y-66113381D01*
X133732740Y-66124391D01*
X133692740Y-66158494D01*
X133662247Y-66197222D01*
X133636970Y-66243562D01*
X133627524Y-66266628D01*
X133612412Y-66317431D01*
X133603321Y-66366992D01*
X133598086Y-66421322D01*
X133596670Y-66471685D01*
X133457055Y-66471685D01*
X133456718Y-66458496D01*
X133457706Y-66416573D01*
X133462095Y-66364175D01*
X133471229Y-66310009D01*
X133484806Y-66260904D01*
X133488431Y-66250660D01*
X133509960Y-66202617D01*
X133537165Y-66159870D01*
X133570047Y-66122418D01*
X133577262Y-66115564D01*
X133616369Y-66084499D01*
X133660533Y-66058777D01*
X133709754Y-66038398D01*
X133714975Y-66036640D01*
X133766106Y-66023329D01*
X133817817Y-66015292D01*
X133867898Y-66011189D01*
X133922490Y-66009822D01*
X134223153Y-66009822D01*
X134223153Y-66043527D01*
G37*
D11*
G36*
X153668616Y-101974034D02*
G01*
X153667077Y-102032799D01*
X153662461Y-102069582D01*
X153640186Y-102107977D01*
X153584922Y-102130338D01*
X153576292Y-102132597D01*
X153576292Y-102189750D01*
X153922433Y-102189750D01*
X153922433Y-102132304D01*
X153866745Y-102113277D01*
X153861470Y-102110029D01*
X153840954Y-102085116D01*
X153832161Y-102043790D01*
X153829276Y-101983363D01*
X153829230Y-101972569D01*
X153829230Y-101276477D01*
X153829455Y-101216033D01*
X153830403Y-101165688D01*
X153836557Y-101114104D01*
X153850040Y-101082743D01*
X153872608Y-101065158D01*
X153929675Y-101050973D01*
X153935622Y-101049917D01*
X153935622Y-100989247D01*
X153727527Y-100989247D01*
X153668616Y-100989247D01*
X153668616Y-101974034D01*
G37*
G36*
X153116791Y-101366592D02*
G01*
X153177688Y-101375835D01*
X153227907Y-101388208D01*
X153284666Y-101406902D01*
X153313298Y-101418278D01*
X153368184Y-101443405D01*
X153422712Y-101471089D01*
X153422712Y-101589498D01*
X153298148Y-101589498D01*
X153276911Y-101535923D01*
X153240703Y-101488968D01*
X153200800Y-101466879D01*
X153142810Y-101458193D01*
X153109774Y-101460283D01*
X153053417Y-101479589D01*
X153034561Y-101495268D01*
X153004764Y-101547293D01*
X153001936Y-101556353D01*
X152991549Y-101615548D01*
X152988937Y-101677133D01*
X152988937Y-101721096D01*
X153031393Y-101723642D01*
X153097894Y-101730164D01*
X153159071Y-101739533D01*
X153225456Y-101754536D01*
X153284175Y-101773640D01*
X153342991Y-101801110D01*
X153390728Y-101834233D01*
X153430927Y-101879094D01*
X153457847Y-101938497D01*
X153465504Y-101999240D01*
X153460399Y-102050659D01*
X153438832Y-102108856D01*
X153410807Y-102146307D01*
X153361749Y-102182422D01*
X153307967Y-102201986D01*
X153246857Y-102208507D01*
X153228741Y-102208017D01*
X153167352Y-102198585D01*
X153109105Y-102177147D01*
X153068066Y-102153556D01*
X153017837Y-102115198D01*
X152975476Y-102075154D01*
X152979558Y-102189750D01*
X152734534Y-102189750D01*
X152734534Y-102132597D01*
X152791100Y-102112666D01*
X152812789Y-102093616D01*
X152823927Y-102062255D01*
X152828616Y-102017119D01*
X152828996Y-101990879D01*
X152829202Y-101930950D01*
X152829202Y-101920985D01*
X152988937Y-101920985D01*
X152991313Y-101946224D01*
X153013264Y-102002757D01*
X153034229Y-102031746D01*
X153081261Y-102070168D01*
X153118339Y-102086868D01*
X153178274Y-102095960D01*
X153182957Y-102095922D01*
X153242754Y-102086288D01*
X153286718Y-102050531D01*
X153294283Y-102036243D01*
X153304010Y-101978431D01*
X153300196Y-101943507D01*
X153272869Y-101889290D01*
X153224289Y-101851522D01*
X153179685Y-101832874D01*
X153118162Y-101818464D01*
X153053393Y-101811494D01*
X152988937Y-101809903D01*
X152988937Y-101920985D01*
X152829202Y-101920985D01*
X152829202Y-101642255D01*
X152830436Y-101596508D01*
X152837363Y-101535103D01*
X152854994Y-101475486D01*
X152884970Y-101429105D01*
X152932957Y-101391955D01*
X152946425Y-101385497D01*
X153005823Y-101368951D01*
X153068658Y-101364404D01*
X153116791Y-101366592D01*
G37*
G36*
X152298121Y-102257454D02*
G01*
X152323700Y-102310421D01*
X152351796Y-102362422D01*
X152385057Y-102415302D01*
X152387807Y-102419240D01*
X152424885Y-102464981D01*
X152471635Y-102505377D01*
X152484820Y-102513909D01*
X152539272Y-102537050D01*
X152598113Y-102545865D01*
X152611728Y-102546149D01*
X152673436Y-102542016D01*
X152723396Y-102534425D01*
X152723396Y-102358570D01*
X152634003Y-102358570D01*
X152610263Y-102404292D01*
X152573040Y-102414844D01*
X152532887Y-102406637D01*
X152495078Y-102377035D01*
X152458928Y-102328935D01*
X152447011Y-102310210D01*
X152415627Y-102256215D01*
X152387545Y-102202680D01*
X152385462Y-102198542D01*
X152614659Y-101577188D01*
X152636607Y-101521372D01*
X152649830Y-101494244D01*
X152676795Y-101460245D01*
X152728379Y-101440022D01*
X152728379Y-101383162D01*
X152374031Y-101383162D01*
X152374031Y-101440608D01*
X152430772Y-101458073D01*
X152432650Y-101459073D01*
X152452873Y-101478124D01*
X152459028Y-101508898D01*
X152453752Y-101553741D01*
X152437339Y-101608842D01*
X152298707Y-102002171D01*
X152143368Y-101625549D01*
X152122657Y-101569151D01*
X152121680Y-101565758D01*
X152114059Y-101515932D01*
X152131352Y-101468158D01*
X152185285Y-101444086D01*
X152200814Y-101440315D01*
X152200814Y-101383162D01*
X151873724Y-101383162D01*
X151873724Y-101440315D01*
X151927067Y-101460538D01*
X151959600Y-101501571D01*
X151987098Y-101554855D01*
X151999754Y-101582464D01*
X152298121Y-102257454D01*
G37*
G36*
X151483529Y-101364591D02*
G01*
X151547774Y-101371122D01*
X151607498Y-101386985D01*
X151662698Y-101412178D01*
X151678263Y-101421519D01*
X151725570Y-101458979D01*
X151765836Y-101506172D01*
X151796055Y-101556965D01*
X151819574Y-101615085D01*
X151834018Y-101672430D01*
X151842380Y-101735124D01*
X151844708Y-101794369D01*
X151844617Y-101807004D01*
X151841442Y-101867294D01*
X151831643Y-101933295D01*
X151815311Y-101992371D01*
X151788000Y-102052542D01*
X151751798Y-102103288D01*
X151720746Y-102133600D01*
X151670493Y-102167406D01*
X151612330Y-102191142D01*
X151546256Y-102204808D01*
X151483326Y-102208507D01*
X151461830Y-102208082D01*
X151400524Y-102201707D01*
X151338007Y-102185650D01*
X151281386Y-102160147D01*
X151265633Y-102150597D01*
X151218143Y-102112587D01*
X151178381Y-102065074D01*
X151149202Y-102014188D01*
X151126817Y-101955880D01*
X151113069Y-101898329D01*
X151105110Y-101835392D01*
X151103800Y-101800231D01*
X151277576Y-101800231D01*
X151277587Y-101804292D01*
X151280214Y-101863905D01*
X151288128Y-101924795D01*
X151299828Y-101973794D01*
X151322126Y-102028549D01*
X151339805Y-102056794D01*
X151382210Y-102098598D01*
X151411734Y-102114136D01*
X151471017Y-102124097D01*
X151531379Y-102113603D01*
X151581489Y-102082122D01*
X151618148Y-102035290D01*
X151624430Y-102023839D01*
X151647684Y-101964545D01*
X151661464Y-101901173D01*
X151668202Y-101837488D01*
X151670026Y-101776784D01*
X151667585Y-101710632D01*
X151658820Y-101643858D01*
X151643680Y-101586499D01*
X151619028Y-101533225D01*
X151586769Y-101492421D01*
X151533153Y-101458789D01*
X151473361Y-101448814D01*
X151426534Y-101455715D01*
X151373417Y-101484865D01*
X151362710Y-101494550D01*
X151327616Y-101542863D01*
X151303661Y-101600050D01*
X151300503Y-101610071D01*
X151286772Y-101671122D01*
X151279640Y-101735339D01*
X151277576Y-101800231D01*
X151103800Y-101800231D01*
X151102894Y-101775904D01*
X151102985Y-101763629D01*
X151106170Y-101704920D01*
X151116000Y-101640345D01*
X151132384Y-101582179D01*
X151159780Y-101522419D01*
X151196097Y-101471382D01*
X151234129Y-101435027D01*
X151286287Y-101402118D01*
X151346833Y-101379448D01*
X151405404Y-101368165D01*
X151470137Y-101364404D01*
X151483529Y-101364591D01*
G37*
G36*
X150980088Y-101383162D02*
G01*
X150726271Y-101383162D01*
X150726271Y-101815472D01*
X150725405Y-101876391D01*
X150721799Y-101937796D01*
X150718944Y-101961724D01*
X150705080Y-102019485D01*
X150697841Y-102034997D01*
X150659153Y-102075151D01*
X150602507Y-102090877D01*
X150588811Y-102091271D01*
X150532538Y-102079840D01*
X150481456Y-102047120D01*
X150470989Y-102038221D01*
X150430762Y-101994038D01*
X150422336Y-101979603D01*
X150408198Y-101921195D01*
X150407974Y-101911606D01*
X150407974Y-101599170D01*
X150409405Y-101540387D01*
X150410319Y-101529121D01*
X150417939Y-101492778D01*
X150429956Y-101471382D01*
X150449886Y-101456728D01*
X150501177Y-101440022D01*
X150501177Y-101383162D01*
X150247360Y-101383162D01*
X150247360Y-101955276D01*
X150246618Y-102014998D01*
X150245015Y-102045549D01*
X150235636Y-102086874D01*
X150212775Y-102110615D01*
X150155975Y-102128046D01*
X150146830Y-102129959D01*
X150146830Y-102189750D01*
X150344959Y-102189750D01*
X150405043Y-102189750D01*
X150400061Y-102066651D01*
X150399474Y-102066651D01*
X150444437Y-102111390D01*
X150493093Y-102150559D01*
X150529314Y-102173336D01*
X150585445Y-102197379D01*
X150646084Y-102208198D01*
X150658274Y-102208507D01*
X150717027Y-102203332D01*
X150773999Y-102184497D01*
X150787234Y-102177147D01*
X150831711Y-102138239D01*
X150863145Y-102084237D01*
X150879085Y-102026105D01*
X150886226Y-101964600D01*
X150887765Y-101912778D01*
X150887765Y-101599170D01*
X150889171Y-101538645D01*
X150892747Y-101506260D01*
X150910919Y-101468452D01*
X150966826Y-101444184D01*
X150980088Y-101440608D01*
X150980088Y-101383162D01*
G37*
G36*
X150082349Y-101426539D02*
G01*
X150024757Y-101410658D01*
X150011421Y-101403385D01*
X149974199Y-101363232D01*
X149954045Y-101306764D01*
X149952510Y-101299631D01*
X149942865Y-101241588D01*
X149934977Y-101182021D01*
X149934338Y-101176826D01*
X149799809Y-101176826D01*
X149799809Y-101383162D01*
X149533389Y-101383162D01*
X149533389Y-101486330D01*
X149799809Y-101486330D01*
X149799809Y-101847126D01*
X149798745Y-101906574D01*
X149794142Y-101967528D01*
X149793361Y-101973448D01*
X149777919Y-102031040D01*
X149770207Y-102044962D01*
X149732398Y-102080719D01*
X149677297Y-102091271D01*
X149619558Y-102077789D01*
X149570428Y-102042247D01*
X149557716Y-102030308D01*
X149508770Y-102092150D01*
X149552555Y-102131644D01*
X149600819Y-102166888D01*
X149628644Y-102182422D01*
X149687101Y-102202776D01*
X149740605Y-102208507D01*
X149804352Y-102202010D01*
X149861780Y-102179855D01*
X149905908Y-102141976D01*
X149936946Y-102087750D01*
X149952757Y-102030761D01*
X149959572Y-101970567D01*
X149960423Y-101937105D01*
X149960423Y-101486330D01*
X150082349Y-101486330D01*
X150082349Y-101426539D01*
G37*
G36*
X149135371Y-101049917D02*
G01*
X149132382Y-101050446D01*
X149072650Y-101065158D01*
X149049788Y-101082743D01*
X149036599Y-101114104D01*
X149030444Y-101165688D01*
X149029259Y-101216033D01*
X149028979Y-101276477D01*
X149028979Y-102187112D01*
X148960689Y-102209680D01*
X148903536Y-102159561D01*
X148852089Y-102180796D01*
X148793627Y-102197077D01*
X148736840Y-102205650D01*
X148676683Y-102208507D01*
X148656060Y-102208072D01*
X148597315Y-102201542D01*
X148537534Y-102185096D01*
X148483536Y-102158975D01*
X148473436Y-102152601D01*
X148427674Y-102115272D01*
X148389813Y-102068841D01*
X148359851Y-102013308D01*
X148343520Y-101969230D01*
X148328417Y-101906623D01*
X148320559Y-101845367D01*
X148318966Y-101804920D01*
X148491449Y-101804920D01*
X148493805Y-101871733D01*
X148500874Y-101930607D01*
X148514723Y-101988172D01*
X148540689Y-102045549D01*
X148571768Y-102083519D01*
X148624243Y-102114815D01*
X148683424Y-102124097D01*
X148692899Y-102123983D01*
X148752301Y-102116770D01*
X148754200Y-102116281D01*
X148807402Y-102089219D01*
X148844624Y-102045842D01*
X148846172Y-102042823D01*
X148862796Y-101985172D01*
X148866793Y-101944351D01*
X148868365Y-101883762D01*
X148868365Y-101661013D01*
X148868239Y-101654268D01*
X148854003Y-101596239D01*
X148846907Y-101583645D01*
X148808281Y-101538207D01*
X148796521Y-101527773D01*
X148745560Y-101495416D01*
X148729036Y-101489389D01*
X148669356Y-101481641D01*
X148632735Y-101485469D01*
X148575887Y-101512896D01*
X148536292Y-101561655D01*
X148512645Y-101619666D01*
X148500032Y-101677863D01*
X148493595Y-101737381D01*
X148491449Y-101804920D01*
X148318966Y-101804920D01*
X148317939Y-101778835D01*
X148318791Y-101738064D01*
X148323695Y-101676969D01*
X148334424Y-101614323D01*
X148352817Y-101552276D01*
X148374870Y-101503489D01*
X148408436Y-101453747D01*
X148453347Y-101411885D01*
X148492152Y-101388933D01*
X148550239Y-101370015D01*
X148609858Y-101364404D01*
X148643414Y-101366170D01*
X148702475Y-101379352D01*
X148731145Y-101390985D01*
X148783954Y-101421850D01*
X148791390Y-101427362D01*
X148835308Y-101466590D01*
X148873590Y-101507766D01*
X148868365Y-100989247D01*
X148926397Y-100989247D01*
X149135371Y-100989247D01*
X149135371Y-101049917D01*
G37*
G36*
X147833752Y-102257454D02*
G01*
X147859332Y-102310421D01*
X147887427Y-102362422D01*
X147920689Y-102415302D01*
X147923438Y-102419240D01*
X147960517Y-102464981D01*
X148007267Y-102505377D01*
X148020451Y-102513909D01*
X148074904Y-102537050D01*
X148133744Y-102545865D01*
X148147360Y-102546149D01*
X148209067Y-102542016D01*
X148259028Y-102534425D01*
X148259028Y-102358570D01*
X148169635Y-102358570D01*
X148145894Y-102404292D01*
X148108672Y-102414844D01*
X148068518Y-102406637D01*
X148030710Y-102377035D01*
X147994560Y-102328935D01*
X147982643Y-102310210D01*
X147951258Y-102256215D01*
X147923176Y-102202680D01*
X147921093Y-102198542D01*
X148150291Y-101577188D01*
X148172238Y-101521372D01*
X148185462Y-101494244D01*
X148212426Y-101460245D01*
X148264010Y-101440022D01*
X148264010Y-101383162D01*
X147909663Y-101383162D01*
X147909663Y-101440608D01*
X147966403Y-101458073D01*
X147968281Y-101459073D01*
X147988504Y-101478124D01*
X147994659Y-101508898D01*
X147989384Y-101553741D01*
X147972971Y-101608842D01*
X147834338Y-102002171D01*
X147679000Y-101625549D01*
X147658289Y-101569151D01*
X147657311Y-101565758D01*
X147649691Y-101515932D01*
X147666983Y-101468158D01*
X147720917Y-101444086D01*
X147736446Y-101440315D01*
X147736446Y-101383162D01*
X147409356Y-101383162D01*
X147409356Y-101440315D01*
X147462698Y-101460538D01*
X147495232Y-101501571D01*
X147522729Y-101554855D01*
X147535385Y-101582464D01*
X147833752Y-102257454D01*
G37*
G36*
X146750193Y-101512708D02*
G01*
X146752831Y-101510657D01*
X146710997Y-101466583D01*
X146667166Y-101427256D01*
X146654645Y-101418040D01*
X146602129Y-101387865D01*
X146578442Y-101378179D01*
X146520642Y-101365494D01*
X146496376Y-101364404D01*
X146436744Y-101369807D01*
X146412845Y-101375835D01*
X146358639Y-101401866D01*
X146347779Y-101410126D01*
X146308546Y-101454524D01*
X146301470Y-101466693D01*
X146280093Y-101523736D01*
X146275385Y-101545828D01*
X146268512Y-101604354D01*
X146266885Y-101660133D01*
X146266885Y-101973155D01*
X146265493Y-102032433D01*
X146261317Y-102068410D01*
X146241386Y-102105632D01*
X146186409Y-102129258D01*
X146173682Y-102132890D01*
X146173682Y-102189750D01*
X146517185Y-102189750D01*
X146517185Y-102132890D01*
X146466774Y-102114425D01*
X146445964Y-102096253D01*
X146432482Y-102058151D01*
X146427738Y-101999047D01*
X146427500Y-101976086D01*
X146427500Y-101758319D01*
X146428559Y-101694989D01*
X146432625Y-101632671D01*
X146438344Y-101592136D01*
X146457796Y-101535399D01*
X146479084Y-101508605D01*
X146535080Y-101483774D01*
X146564080Y-101481641D01*
X146619767Y-101492485D01*
X146669872Y-101525151D01*
X146678093Y-101532052D01*
X146718814Y-101575796D01*
X146728211Y-101590671D01*
X146744771Y-101647454D01*
X146744918Y-101653685D01*
X146744918Y-101972276D01*
X146743781Y-102031613D01*
X146742280Y-102051410D01*
X146732315Y-102088926D01*
X146709747Y-102112373D01*
X146653473Y-102132304D01*
X146653473Y-102189750D01*
X146998735Y-102189750D01*
X146998735Y-102132890D01*
X146943368Y-102113476D01*
X146942461Y-102112960D01*
X146921065Y-102092443D01*
X146909635Y-102054927D01*
X146905728Y-101996123D01*
X146905532Y-101972862D01*
X146905532Y-101276477D01*
X146905812Y-101216033D01*
X146906997Y-101165688D01*
X146913152Y-101114104D01*
X146926341Y-101082743D01*
X146949202Y-101065158D01*
X147008934Y-101050446D01*
X147011924Y-101049917D01*
X147011924Y-100989247D01*
X146803829Y-100989247D01*
X146744918Y-100989247D01*
X146750193Y-101512708D01*
G37*
G36*
X145723853Y-101366592D02*
G01*
X145784750Y-101375835D01*
X145834969Y-101388208D01*
X145891728Y-101406902D01*
X145920360Y-101418278D01*
X145975247Y-101443405D01*
X146029774Y-101471089D01*
X146029774Y-101589498D01*
X145905211Y-101589498D01*
X145883973Y-101535923D01*
X145847765Y-101488968D01*
X145807862Y-101466879D01*
X145749872Y-101458193D01*
X145716836Y-101460283D01*
X145660479Y-101479589D01*
X145641623Y-101495268D01*
X145611826Y-101547293D01*
X145608998Y-101556353D01*
X145598611Y-101615548D01*
X145595999Y-101677133D01*
X145595999Y-101721096D01*
X145638455Y-101723642D01*
X145704956Y-101730164D01*
X145766133Y-101739533D01*
X145832518Y-101754536D01*
X145891237Y-101773640D01*
X145950054Y-101801110D01*
X145997790Y-101834233D01*
X146037990Y-101879094D01*
X146064909Y-101938497D01*
X146072566Y-101999240D01*
X146067461Y-102050659D01*
X146045894Y-102108856D01*
X146017869Y-102146307D01*
X145968811Y-102182422D01*
X145915029Y-102201986D01*
X145853920Y-102208507D01*
X145835803Y-102208017D01*
X145774414Y-102198585D01*
X145716167Y-102177147D01*
X145675128Y-102153556D01*
X145624900Y-102115198D01*
X145582538Y-102075154D01*
X145586620Y-102189750D01*
X145341596Y-102189750D01*
X145341596Y-102132597D01*
X145398162Y-102112666D01*
X145419851Y-102093616D01*
X145430989Y-102062255D01*
X145435678Y-102017119D01*
X145436058Y-101990879D01*
X145436264Y-101930950D01*
X145436264Y-101920985D01*
X145595999Y-101920985D01*
X145598375Y-101946224D01*
X145620326Y-102002757D01*
X145641291Y-102031746D01*
X145688323Y-102070168D01*
X145725402Y-102086868D01*
X145785336Y-102095960D01*
X145790019Y-102095922D01*
X145849816Y-102086288D01*
X145893780Y-102050531D01*
X145901345Y-102036243D01*
X145911072Y-101978431D01*
X145907258Y-101943507D01*
X145879931Y-101889290D01*
X145831352Y-101851522D01*
X145786747Y-101832874D01*
X145725224Y-101818464D01*
X145660456Y-101811494D01*
X145595999Y-101809903D01*
X145595999Y-101920985D01*
X145436264Y-101920985D01*
X145436264Y-101642255D01*
X145437499Y-101596508D01*
X145444425Y-101535103D01*
X145462056Y-101475486D01*
X145492032Y-101429105D01*
X145540019Y-101391955D01*
X145553487Y-101385497D01*
X145612885Y-101368951D01*
X145675720Y-101364404D01*
X145723853Y-101366592D01*
G37*
G36*
X145004541Y-101512708D02*
G01*
X145007178Y-101510657D01*
X144965344Y-101466583D01*
X144921514Y-101427256D01*
X144908993Y-101418040D01*
X144856477Y-101387865D01*
X144832789Y-101378179D01*
X144774989Y-101365494D01*
X144750724Y-101364404D01*
X144691092Y-101369807D01*
X144667192Y-101375835D01*
X144612987Y-101401866D01*
X144602126Y-101410126D01*
X144562893Y-101454524D01*
X144555818Y-101466693D01*
X144534440Y-101523736D01*
X144529733Y-101545828D01*
X144522860Y-101604354D01*
X144521233Y-101660133D01*
X144521233Y-101973155D01*
X144519841Y-102032433D01*
X144515664Y-102068410D01*
X144495734Y-102105632D01*
X144440756Y-102129258D01*
X144428030Y-102132890D01*
X144428030Y-102189750D01*
X144771533Y-102189750D01*
X144771533Y-102132890D01*
X144721121Y-102114425D01*
X144700312Y-102096253D01*
X144686830Y-102058151D01*
X144682085Y-101999047D01*
X144681847Y-101976086D01*
X144681847Y-101758319D01*
X144682906Y-101694989D01*
X144686973Y-101632671D01*
X144692691Y-101592136D01*
X144712144Y-101535399D01*
X144733431Y-101508605D01*
X144789427Y-101483774D01*
X144818428Y-101481641D01*
X144874115Y-101492485D01*
X144924220Y-101525151D01*
X144932440Y-101532052D01*
X144973162Y-101575796D01*
X144982559Y-101590671D01*
X144999118Y-101647454D01*
X144999265Y-101653685D01*
X144999265Y-101972276D01*
X144998129Y-102031613D01*
X144996627Y-102051410D01*
X144986662Y-102088926D01*
X144964094Y-102112373D01*
X144907821Y-102132304D01*
X144907821Y-102189750D01*
X145253082Y-102189750D01*
X145253082Y-102132890D01*
X145197715Y-102113476D01*
X145196809Y-102112960D01*
X145175413Y-102092443D01*
X145163982Y-102054927D01*
X145160075Y-101996123D01*
X145159879Y-101972862D01*
X145159879Y-101276477D01*
X145160160Y-101216033D01*
X145161345Y-101165688D01*
X145167500Y-101114104D01*
X145180689Y-101082743D01*
X145203550Y-101065158D01*
X145263282Y-101050446D01*
X145266271Y-101049917D01*
X145266271Y-100989247D01*
X145058176Y-100989247D01*
X144999265Y-100989247D01*
X145004541Y-101512708D01*
G37*
G36*
X143978201Y-101366592D02*
G01*
X144039098Y-101375835D01*
X144089317Y-101388208D01*
X144146076Y-101406902D01*
X144174707Y-101418278D01*
X144229594Y-101443405D01*
X144284122Y-101471089D01*
X144284122Y-101589498D01*
X144159558Y-101589498D01*
X144138320Y-101535923D01*
X144102112Y-101488968D01*
X144062210Y-101466879D01*
X144004220Y-101458193D01*
X143971184Y-101460283D01*
X143914827Y-101479589D01*
X143895970Y-101495268D01*
X143866174Y-101547293D01*
X143863345Y-101556353D01*
X143852959Y-101615548D01*
X143850347Y-101677133D01*
X143850347Y-101721096D01*
X143892803Y-101723642D01*
X143959303Y-101730164D01*
X144020481Y-101739533D01*
X144086866Y-101754536D01*
X144145585Y-101773640D01*
X144204401Y-101801110D01*
X144252138Y-101834233D01*
X144292337Y-101879094D01*
X144319256Y-101938497D01*
X144326913Y-101999240D01*
X144321808Y-102050659D01*
X144300242Y-102108856D01*
X144272216Y-102146307D01*
X144223159Y-102182422D01*
X144169377Y-102201986D01*
X144108267Y-102208507D01*
X144090150Y-102208017D01*
X144028761Y-102198585D01*
X143970514Y-102177147D01*
X143929476Y-102153556D01*
X143879247Y-102115198D01*
X143836885Y-102075154D01*
X143840968Y-102189750D01*
X143595943Y-102189750D01*
X143595943Y-102132597D01*
X143652510Y-102112666D01*
X143674199Y-102093616D01*
X143685336Y-102062255D01*
X143690026Y-102017119D01*
X143690405Y-101990879D01*
X143690612Y-101930950D01*
X143690612Y-101920985D01*
X143850347Y-101920985D01*
X143852722Y-101946224D01*
X143874673Y-102002757D01*
X143895638Y-102031746D01*
X143942670Y-102070168D01*
X143979749Y-102086868D01*
X144039684Y-102095960D01*
X144044366Y-102095922D01*
X144104164Y-102086288D01*
X144148128Y-102050531D01*
X144155693Y-102036243D01*
X144165420Y-101978431D01*
X144161605Y-101943507D01*
X144134279Y-101889290D01*
X144085699Y-101851522D01*
X144041094Y-101832874D01*
X143979572Y-101818464D01*
X143914803Y-101811494D01*
X143850347Y-101809903D01*
X143850347Y-101920985D01*
X143690612Y-101920985D01*
X143690612Y-101642255D01*
X143691846Y-101596508D01*
X143698773Y-101535103D01*
X143716404Y-101475486D01*
X143746380Y-101429105D01*
X143794366Y-101391955D01*
X143807835Y-101385497D01*
X143867233Y-101368951D01*
X143930068Y-101364404D01*
X143978201Y-101366592D01*
G37*
G36*
X149069016Y-87460021D02*
G01*
X149069016Y-87722631D01*
X149166029Y-87722631D01*
X149185917Y-87666648D01*
X149193287Y-87649358D01*
X149219372Y-87602170D01*
X149248095Y-87572861D01*
X149285318Y-87557913D01*
X149338074Y-87553810D01*
X149589253Y-87553810D01*
X149589253Y-87966483D01*
X149422191Y-87966483D01*
X149370021Y-87956811D01*
X149338953Y-87922226D01*
X149319389Y-87864029D01*
X149312575Y-87835178D01*
X149218200Y-87835178D01*
X149218200Y-88172819D01*
X149312282Y-88172819D01*
X149330279Y-88115895D01*
X149338367Y-88099546D01*
X149368556Y-88069065D01*
X149422191Y-88060272D01*
X149589253Y-88060272D01*
X149589253Y-88510460D01*
X149342177Y-88510460D01*
X149282706Y-88505051D01*
X149279749Y-88504305D01*
X149239595Y-88483203D01*
X149209114Y-88443635D01*
X149186546Y-88391465D01*
X149168370Y-88335206D01*
X149158702Y-88304124D01*
X149060223Y-88304124D01*
X149076930Y-88604250D01*
X149858604Y-88604250D01*
X149858604Y-88547097D01*
X149802675Y-88528373D01*
X149787383Y-88518667D01*
X149767160Y-88476755D01*
X149762489Y-88416854D01*
X149762177Y-88388827D01*
X149762177Y-87675443D01*
X149763944Y-87615474D01*
X149766281Y-87594843D01*
X149778297Y-87557620D01*
X149800572Y-87537104D01*
X149855886Y-87517645D01*
X149858604Y-87516880D01*
X149858604Y-87460021D01*
X149069016Y-87460021D01*
G37*
G36*
X148213189Y-88139993D02*
G01*
X148182617Y-88191822D01*
X148163071Y-88226748D01*
X148135692Y-88279327D01*
X148123796Y-88304417D01*
X148129072Y-88304417D01*
X148132305Y-88242881D01*
X148134183Y-88183022D01*
X148135813Y-88115373D01*
X148137069Y-88051636D01*
X148138017Y-87990704D01*
X148138722Y-87924502D01*
X148139024Y-87861963D01*
X148139037Y-87846901D01*
X148139037Y-87674857D01*
X148140426Y-87614762D01*
X148142261Y-87593963D01*
X148153105Y-87557034D01*
X148174208Y-87537397D01*
X148231361Y-87517173D01*
X148231361Y-87460021D01*
X147915995Y-87460021D01*
X147915995Y-87517467D01*
X147971672Y-87536037D01*
X147972561Y-87536517D01*
X147994836Y-87555275D01*
X148007732Y-87591326D01*
X148012197Y-87650903D01*
X148012422Y-87675150D01*
X148012422Y-88604250D01*
X148129951Y-88604250D01*
X148591863Y-87833419D01*
X148622758Y-87781889D01*
X148653119Y-87729372D01*
X148681105Y-87676125D01*
X148684480Y-87669288D01*
X148682429Y-87669288D01*
X148678816Y-87731490D01*
X148676824Y-87796372D01*
X148675564Y-87859177D01*
X148675101Y-87889400D01*
X148674205Y-87951677D01*
X148673494Y-88013872D01*
X148672968Y-88075984D01*
X148672628Y-88138014D01*
X148672474Y-88199962D01*
X148672463Y-88220593D01*
X148672463Y-88388827D01*
X148670801Y-88449517D01*
X148668946Y-88467669D01*
X148658102Y-88505185D01*
X148635241Y-88526873D01*
X148578756Y-88546385D01*
X148576036Y-88547097D01*
X148576036Y-88604250D01*
X148895799Y-88604250D01*
X148895799Y-88547097D01*
X148840128Y-88528373D01*
X148824871Y-88518667D01*
X148804355Y-88476755D01*
X148799683Y-88416854D01*
X148799372Y-88388827D01*
X148799372Y-87675443D01*
X148801139Y-87615474D01*
X148803475Y-87594843D01*
X148815492Y-87557620D01*
X148838060Y-87537104D01*
X148895799Y-87516880D01*
X148895799Y-87460021D01*
X148623224Y-87460021D01*
X148213189Y-88139993D01*
G37*
G36*
X146971361Y-87479951D02*
G01*
X146971361Y-87722631D01*
X147069546Y-87722631D01*
X147089582Y-87663766D01*
X147118134Y-87610539D01*
X147119958Y-87608032D01*
X147162339Y-87565945D01*
X147187662Y-87551758D01*
X147245124Y-87537026D01*
X147280865Y-87535052D01*
X147339543Y-87542801D01*
X147393358Y-87566046D01*
X147426532Y-87590153D01*
X147467307Y-87634587D01*
X147498906Y-87686702D01*
X147522891Y-87743150D01*
X147527648Y-87756922D01*
X147543933Y-87815925D01*
X147555565Y-87880973D01*
X147561927Y-87942849D01*
X147564726Y-88009353D01*
X147564871Y-88029204D01*
X147563789Y-88088064D01*
X147559792Y-88152436D01*
X147552850Y-88212180D01*
X147541309Y-88274792D01*
X147534096Y-88303831D01*
X147514583Y-88362829D01*
X147487736Y-88417887D01*
X147451922Y-88465689D01*
X147444704Y-88472945D01*
X147396852Y-88507236D01*
X147336733Y-88526525D01*
X147300796Y-88529218D01*
X147241371Y-88524602D01*
X147194403Y-88510753D01*
X147146228Y-88476925D01*
X147125527Y-88451549D01*
X147097390Y-88398866D01*
X147076288Y-88344062D01*
X147069253Y-88322882D01*
X146971361Y-88322882D01*
X146971361Y-88579044D01*
X147029582Y-88593139D01*
X147092148Y-88605277D01*
X147138423Y-88612163D01*
X147202019Y-88618771D01*
X147264299Y-88622150D01*
X147318088Y-88623007D01*
X147382402Y-88619437D01*
X147441621Y-88608725D01*
X147505960Y-88586444D01*
X147562961Y-88553880D01*
X147612627Y-88511033D01*
X147641661Y-88476755D01*
X147678814Y-88416954D01*
X147703903Y-88359548D01*
X147723653Y-88295258D01*
X147738066Y-88224084D01*
X147745753Y-88162190D01*
X147750023Y-88095889D01*
X147750984Y-88043273D01*
X147749006Y-87977423D01*
X147743071Y-87914624D01*
X147733179Y-87854874D01*
X147716637Y-87789021D01*
X147694710Y-87727320D01*
X147667396Y-87670639D01*
X147634948Y-87619849D01*
X147591580Y-87569016D01*
X147541507Y-87525877D01*
X147527941Y-87516294D01*
X147470038Y-87483468D01*
X147415014Y-87462439D01*
X147355923Y-87448590D01*
X147292765Y-87441922D01*
X147264452Y-87441263D01*
X147204948Y-87442569D01*
X147145194Y-87446896D01*
X147124941Y-87449176D01*
X147063953Y-87458817D01*
X147003997Y-87471814D01*
X146971361Y-87479951D01*
G37*
G36*
X153411121Y-103745682D02*
G01*
X153471366Y-103752688D01*
X153478954Y-103754520D01*
X153534380Y-103775549D01*
X153546498Y-103781773D01*
X153597102Y-103815410D01*
X153631760Y-103845378D01*
X153674714Y-103887177D01*
X153663633Y-103764412D01*
X153724303Y-103764412D01*
X153927416Y-103764412D01*
X153927416Y-103825082D01*
X153869091Y-103840616D01*
X153846523Y-103856736D01*
X153833920Y-103881062D01*
X153827765Y-103920337D01*
X153826693Y-103943486D01*
X153826006Y-104003868D01*
X153826006Y-104711097D01*
X153826085Y-104725364D01*
X153829230Y-104785836D01*
X153840954Y-104828334D01*
X153866453Y-104850902D01*
X153919209Y-104868780D01*
X153919209Y-104927399D01*
X153563982Y-104927399D01*
X153563982Y-104870246D01*
X153569582Y-104869110D01*
X153625825Y-104852074D01*
X153650151Y-104830092D01*
X153661875Y-104791990D01*
X153663730Y-104773729D01*
X153665392Y-104714614D01*
X153665392Y-104556345D01*
X153642915Y-104564600D01*
X153585964Y-104579206D01*
X153532695Y-104587120D01*
X153473710Y-104589757D01*
X153453043Y-104589330D01*
X153394287Y-104582915D01*
X153334713Y-104566761D01*
X153281149Y-104541104D01*
X153276113Y-104538017D01*
X153225741Y-104497937D01*
X153187943Y-104451764D01*
X153157758Y-104396317D01*
X153139293Y-104345502D01*
X153124826Y-104281767D01*
X153117572Y-104219274D01*
X153116303Y-104182067D01*
X153289356Y-104182067D01*
X153291670Y-104248864D01*
X153298612Y-104307947D01*
X153312213Y-104366024D01*
X153337716Y-104424454D01*
X153368417Y-104463557D01*
X153420747Y-104495788D01*
X153480158Y-104505347D01*
X153508942Y-104504350D01*
X153566913Y-104492744D01*
X153574841Y-104489323D01*
X153622894Y-104454349D01*
X153632493Y-104442408D01*
X153656013Y-104386938D01*
X153663597Y-104327680D01*
X153665392Y-104265305D01*
X153665392Y-104043435D01*
X153665342Y-104039277D01*
X153652496Y-103981300D01*
X153645956Y-103968507D01*
X153607946Y-103921216D01*
X153594098Y-103908465D01*
X153544638Y-103876666D01*
X153527914Y-103870639D01*
X153468728Y-103862891D01*
X153457692Y-103863202D01*
X153398836Y-103878164D01*
X153352591Y-103915567D01*
X153318959Y-103975413D01*
X153300566Y-104042427D01*
X153292158Y-104107260D01*
X153289356Y-104182067D01*
X153116303Y-104182067D01*
X153115553Y-104160085D01*
X153115626Y-104147575D01*
X153118201Y-104087817D01*
X153126145Y-104022245D01*
X153139386Y-103963372D01*
X153161527Y-103903151D01*
X153190877Y-103852046D01*
X153195631Y-103845501D01*
X153238299Y-103800616D01*
X153289209Y-103769031D01*
X153348364Y-103750745D01*
X153406885Y-103745654D01*
X153411121Y-103745682D01*
G37*
G36*
X152340326Y-103781118D02*
G01*
X152340326Y-103970748D01*
X152461666Y-103970748D01*
X152480347Y-103913458D01*
X152496543Y-103882235D01*
X152539524Y-103842227D01*
X152541093Y-103841495D01*
X152599654Y-103830109D01*
X152604401Y-103830064D01*
X152664657Y-103842670D01*
X152701121Y-103865822D01*
X152739077Y-103911397D01*
X152765315Y-103967385D01*
X152768532Y-103976610D01*
X152783892Y-104037830D01*
X152791277Y-104096402D01*
X152793714Y-104154991D01*
X152793738Y-104161844D01*
X152791887Y-104221037D01*
X152785237Y-104282916D01*
X152784066Y-104290218D01*
X152768775Y-104349610D01*
X152751240Y-104388110D01*
X152713018Y-104434871D01*
X152691156Y-104450539D01*
X152633965Y-104469923D01*
X152597660Y-104472521D01*
X152538412Y-104466215D01*
X152495664Y-104452591D01*
X152442073Y-104420433D01*
X152396849Y-104381441D01*
X152389565Y-104374335D01*
X152330361Y-104444970D01*
X152372495Y-104485804D01*
X152411840Y-104518536D01*
X152463717Y-104550135D01*
X152482182Y-104558690D01*
X152538126Y-104577924D01*
X152556627Y-104582137D01*
X152615484Y-104589281D01*
X152636641Y-104589757D01*
X152703177Y-104584596D01*
X152762504Y-104569113D01*
X152821480Y-104538778D01*
X152871040Y-104494961D01*
X152881959Y-104481900D01*
X152914963Y-104430266D01*
X152939861Y-104369741D01*
X152954751Y-104310785D01*
X152963684Y-104245296D01*
X152966579Y-104185732D01*
X152966662Y-104173274D01*
X152963713Y-104112165D01*
X152953344Y-104047621D01*
X152935511Y-103987528D01*
X152919474Y-103949939D01*
X152889894Y-103898421D01*
X152849903Y-103849500D01*
X152802413Y-103809338D01*
X152786704Y-103798997D01*
X152730667Y-103770867D01*
X152669536Y-103753155D01*
X152610162Y-103746123D01*
X152589453Y-103745654D01*
X152527896Y-103747457D01*
X152467061Y-103753356D01*
X152463424Y-103753861D01*
X152403633Y-103764632D01*
X152344386Y-103779920D01*
X152340326Y-103781118D01*
G37*
G36*
X152273794Y-103431167D02*
G01*
X152270805Y-103431696D01*
X152211072Y-103446408D01*
X152188211Y-103463993D01*
X152175022Y-103495354D01*
X152168867Y-103546938D01*
X152167682Y-103597283D01*
X152167402Y-103657727D01*
X152167402Y-104568362D01*
X152099112Y-104590930D01*
X152041959Y-104540811D01*
X151990512Y-104562046D01*
X151932049Y-104578327D01*
X151875263Y-104586900D01*
X151815106Y-104589757D01*
X151794483Y-104589322D01*
X151735738Y-104582792D01*
X151675957Y-104566346D01*
X151621959Y-104540225D01*
X151611858Y-104533851D01*
X151566097Y-104496522D01*
X151528236Y-104450091D01*
X151498274Y-104394558D01*
X151481943Y-104350480D01*
X151466840Y-104287873D01*
X151458982Y-104226617D01*
X151457389Y-104186170D01*
X151629872Y-104186170D01*
X151632228Y-104252983D01*
X151639297Y-104311857D01*
X151653145Y-104369422D01*
X151679112Y-104426799D01*
X151710191Y-104464769D01*
X151762666Y-104496065D01*
X151821847Y-104505347D01*
X151831322Y-104505233D01*
X151890724Y-104498020D01*
X151892623Y-104497531D01*
X151945825Y-104470469D01*
X151983047Y-104427092D01*
X151984595Y-104424073D01*
X152001219Y-104366422D01*
X152005216Y-104325601D01*
X152006788Y-104265012D01*
X152006788Y-104042263D01*
X152006661Y-104035518D01*
X151992426Y-103977489D01*
X151985330Y-103964895D01*
X151946704Y-103919457D01*
X151934944Y-103909023D01*
X151883982Y-103876666D01*
X151867459Y-103870639D01*
X151807779Y-103862891D01*
X151771158Y-103866719D01*
X151714310Y-103894146D01*
X151674715Y-103942905D01*
X151651067Y-104000916D01*
X151638455Y-104059113D01*
X151632018Y-104118631D01*
X151629872Y-104186170D01*
X151457389Y-104186170D01*
X151456362Y-104160085D01*
X151457214Y-104119314D01*
X151462118Y-104058219D01*
X151472847Y-103995573D01*
X151491240Y-103933526D01*
X151513293Y-103884739D01*
X151546859Y-103834997D01*
X151591770Y-103793135D01*
X151630575Y-103770183D01*
X151688662Y-103751265D01*
X151748281Y-103745654D01*
X151781837Y-103747420D01*
X151840898Y-103760602D01*
X151869568Y-103772235D01*
X151922377Y-103803100D01*
X151929813Y-103808612D01*
X151973730Y-103847840D01*
X152012013Y-103889016D01*
X152006788Y-103370497D01*
X152064820Y-103370497D01*
X152273794Y-103370497D01*
X152273794Y-103431167D01*
G37*
G36*
X150985364Y-103431167D02*
G01*
X150982375Y-103431696D01*
X150922643Y-103446408D01*
X150899781Y-103463993D01*
X150886592Y-103495354D01*
X150880437Y-103546938D01*
X150879252Y-103597283D01*
X150878972Y-103657727D01*
X150878972Y-104568362D01*
X150810682Y-104590930D01*
X150753529Y-104540811D01*
X150702082Y-104562046D01*
X150643620Y-104578327D01*
X150586833Y-104586900D01*
X150526676Y-104589757D01*
X150506053Y-104589322D01*
X150447308Y-104582792D01*
X150387527Y-104566346D01*
X150333529Y-104540225D01*
X150323429Y-104533851D01*
X150277667Y-104496522D01*
X150239806Y-104450091D01*
X150209844Y-104394558D01*
X150193513Y-104350480D01*
X150178410Y-104287873D01*
X150170552Y-104226617D01*
X150168959Y-104186170D01*
X150341442Y-104186170D01*
X150343798Y-104252983D01*
X150350867Y-104311857D01*
X150364716Y-104369422D01*
X150390682Y-104426799D01*
X150421761Y-104464769D01*
X150474236Y-104496065D01*
X150533417Y-104505347D01*
X150542892Y-104505233D01*
X150602294Y-104498020D01*
X150604193Y-104497531D01*
X150657395Y-104470469D01*
X150694617Y-104427092D01*
X150696165Y-104424073D01*
X150712789Y-104366422D01*
X150716786Y-104325601D01*
X150718358Y-104265012D01*
X150718358Y-104042263D01*
X150718232Y-104035518D01*
X150703996Y-103977489D01*
X150696900Y-103964895D01*
X150658274Y-103919457D01*
X150646514Y-103909023D01*
X150595553Y-103876666D01*
X150579030Y-103870639D01*
X150519349Y-103862891D01*
X150482728Y-103866719D01*
X150425880Y-103894146D01*
X150386285Y-103942905D01*
X150362638Y-104000916D01*
X150350026Y-104059113D01*
X150343588Y-104118631D01*
X150341442Y-104186170D01*
X150168959Y-104186170D01*
X150167932Y-104160085D01*
X150168784Y-104119314D01*
X150173688Y-104058219D01*
X150184417Y-103995573D01*
X150202810Y-103933526D01*
X150224863Y-103884739D01*
X150258429Y-103834997D01*
X150303340Y-103793135D01*
X150342145Y-103770183D01*
X150400232Y-103751265D01*
X150459851Y-103745654D01*
X150493407Y-103747420D01*
X150552468Y-103760602D01*
X150581138Y-103772235D01*
X150633948Y-103803100D01*
X150641383Y-103808612D01*
X150685301Y-103847840D01*
X150723583Y-103889016D01*
X150718358Y-103370497D01*
X150776390Y-103370497D01*
X150985364Y-103370497D01*
X150985364Y-103431167D01*
G37*
G36*
X149683745Y-104638704D02*
G01*
X149709325Y-104691671D01*
X149737420Y-104743672D01*
X149770682Y-104796552D01*
X149773431Y-104800490D01*
X149810510Y-104846231D01*
X149857260Y-104886627D01*
X149870444Y-104895159D01*
X149924897Y-104918300D01*
X149983737Y-104927115D01*
X149997353Y-104927399D01*
X150059060Y-104923266D01*
X150109021Y-104915675D01*
X150109021Y-104739820D01*
X150019628Y-104739820D01*
X149995887Y-104785542D01*
X149958665Y-104796094D01*
X149918511Y-104787887D01*
X149880703Y-104758285D01*
X149844553Y-104710185D01*
X149832636Y-104691460D01*
X149801251Y-104637465D01*
X149773170Y-104583930D01*
X149771086Y-104579792D01*
X150000284Y-103958438D01*
X150022231Y-103902622D01*
X150035455Y-103875494D01*
X150062419Y-103841495D01*
X150114003Y-103821272D01*
X150114003Y-103764412D01*
X149759656Y-103764412D01*
X149759656Y-103821858D01*
X149816396Y-103839323D01*
X149818274Y-103840323D01*
X149838497Y-103859374D01*
X149844652Y-103890148D01*
X149839377Y-103934991D01*
X149822964Y-103990092D01*
X149684331Y-104383421D01*
X149528993Y-104006799D01*
X149508282Y-103950401D01*
X149507304Y-103947008D01*
X149499684Y-103897182D01*
X149516976Y-103849408D01*
X149570910Y-103825336D01*
X149586439Y-103821565D01*
X149586439Y-103764412D01*
X149259349Y-103764412D01*
X149259349Y-103821565D01*
X149312691Y-103841788D01*
X149345225Y-103882821D01*
X149372722Y-103936105D01*
X149385378Y-103963714D01*
X149683745Y-104638704D01*
G37*
G36*
X153009690Y-105827951D02*
G01*
X153009690Y-106070631D01*
X153107875Y-106070631D01*
X153127911Y-106011766D01*
X153156463Y-105958539D01*
X153158287Y-105956032D01*
X153200668Y-105913945D01*
X153225991Y-105899758D01*
X153283453Y-105885026D01*
X153319194Y-105883052D01*
X153377872Y-105890801D01*
X153431686Y-105914046D01*
X153464861Y-105938153D01*
X153505636Y-105982587D01*
X153537235Y-106034702D01*
X153561220Y-106091150D01*
X153565977Y-106104922D01*
X153582262Y-106163925D01*
X153593894Y-106228973D01*
X153600255Y-106290849D01*
X153603054Y-106357353D01*
X153603200Y-106377204D01*
X153602118Y-106436064D01*
X153598121Y-106500436D01*
X153591178Y-106560180D01*
X153579638Y-106622792D01*
X153572425Y-106651831D01*
X153552912Y-106710829D01*
X153526064Y-106765887D01*
X153490251Y-106813689D01*
X153483032Y-106820945D01*
X153435181Y-106855236D01*
X153375062Y-106874525D01*
X153339124Y-106877218D01*
X153279700Y-106872602D01*
X153232732Y-106858753D01*
X153184557Y-106824925D01*
X153163856Y-106799549D01*
X153135719Y-106746866D01*
X153114616Y-106692062D01*
X153107582Y-106670882D01*
X153009690Y-106670882D01*
X153009690Y-106927044D01*
X153067911Y-106941139D01*
X153130477Y-106953277D01*
X153176752Y-106960163D01*
X153240348Y-106966771D01*
X153302627Y-106970150D01*
X153356417Y-106971007D01*
X153420731Y-106967437D01*
X153479950Y-106956725D01*
X153544288Y-106934444D01*
X153601290Y-106901880D01*
X153650955Y-106859033D01*
X153679990Y-106824755D01*
X153717143Y-106764954D01*
X153742231Y-106707548D01*
X153761982Y-106643258D01*
X153776395Y-106572084D01*
X153784082Y-106510190D01*
X153788352Y-106443889D01*
X153789313Y-106391273D01*
X153787335Y-106325423D01*
X153781399Y-106262624D01*
X153771508Y-106202874D01*
X153754966Y-106137021D01*
X153733039Y-106075320D01*
X153705725Y-106018639D01*
X153673277Y-105967849D01*
X153629909Y-105917016D01*
X153579836Y-105873877D01*
X153566270Y-105864294D01*
X153508366Y-105831468D01*
X153453343Y-105810439D01*
X153394252Y-105796590D01*
X153331094Y-105789922D01*
X153302781Y-105789263D01*
X153243277Y-105790569D01*
X153183523Y-105794896D01*
X153163270Y-105797176D01*
X153102281Y-105806817D01*
X153042326Y-105819814D01*
X153009690Y-105827951D01*
G37*
G36*
X152527914Y-106129092D02*
G01*
X152588810Y-106138335D01*
X152639030Y-106150708D01*
X152695789Y-106169402D01*
X152724420Y-106180778D01*
X152779307Y-106205905D01*
X152833835Y-106233589D01*
X152833835Y-106351998D01*
X152709271Y-106351998D01*
X152688033Y-106298423D01*
X152651825Y-106251468D01*
X152611923Y-106229379D01*
X152553933Y-106220693D01*
X152520897Y-106222783D01*
X152464540Y-106242089D01*
X152445683Y-106257768D01*
X152415886Y-106309793D01*
X152413058Y-106318853D01*
X152402672Y-106378048D01*
X152400060Y-106439633D01*
X152400060Y-106483596D01*
X152442515Y-106486142D01*
X152509016Y-106492664D01*
X152570193Y-106502033D01*
X152636579Y-106517036D01*
X152695298Y-106536140D01*
X152754114Y-106563610D01*
X152801851Y-106596733D01*
X152842050Y-106641594D01*
X152868969Y-106700997D01*
X152876626Y-106761740D01*
X152871521Y-106813159D01*
X152849955Y-106871356D01*
X152821929Y-106908807D01*
X152772872Y-106944922D01*
X152719090Y-106964486D01*
X152657980Y-106971007D01*
X152639863Y-106970517D01*
X152578474Y-106961085D01*
X152520227Y-106939647D01*
X152479189Y-106916056D01*
X152428960Y-106877698D01*
X152386598Y-106837654D01*
X152390681Y-106952250D01*
X152145656Y-106952250D01*
X152145656Y-106895097D01*
X152202223Y-106875166D01*
X152223912Y-106856116D01*
X152235049Y-106824755D01*
X152239739Y-106779619D01*
X152240118Y-106753379D01*
X152240325Y-106693450D01*
X152240325Y-106683485D01*
X152400060Y-106683485D01*
X152402435Y-106708724D01*
X152424386Y-106765257D01*
X152445351Y-106794246D01*
X152492383Y-106832668D01*
X152529462Y-106849368D01*
X152589397Y-106858460D01*
X152594079Y-106858422D01*
X152653877Y-106848788D01*
X152697840Y-106813031D01*
X152705406Y-106798743D01*
X152715133Y-106740931D01*
X152711318Y-106706007D01*
X152683992Y-106651790D01*
X152635412Y-106614022D01*
X152590807Y-106595374D01*
X152529285Y-106580964D01*
X152464516Y-106573994D01*
X152400060Y-106572403D01*
X152400060Y-106683485D01*
X152240325Y-106683485D01*
X152240325Y-106404755D01*
X152241559Y-106359008D01*
X152248486Y-106297603D01*
X152266117Y-106237986D01*
X152296093Y-106191605D01*
X152344079Y-106154455D01*
X152357548Y-106147997D01*
X152416946Y-106131451D01*
X152479780Y-106126904D01*
X152527914Y-106129092D01*
G37*
G36*
X151804205Y-106736534D02*
G01*
X151802666Y-106795299D01*
X151798050Y-106832082D01*
X151775775Y-106870477D01*
X151720511Y-106892838D01*
X151711881Y-106895097D01*
X151711881Y-106952250D01*
X152058022Y-106952250D01*
X152058022Y-106894804D01*
X152002334Y-106875777D01*
X151997059Y-106872529D01*
X151976542Y-106847616D01*
X151967750Y-106806290D01*
X151964865Y-106745863D01*
X151964819Y-106735069D01*
X151964819Y-106038977D01*
X151965043Y-105978533D01*
X151965991Y-105928188D01*
X151972146Y-105876604D01*
X151985628Y-105845243D01*
X152008196Y-105827658D01*
X152065263Y-105813473D01*
X152071211Y-105812417D01*
X152071211Y-105751747D01*
X151863116Y-105751747D01*
X151804205Y-105751747D01*
X151804205Y-106736534D01*
G37*
G36*
X151330276Y-106145662D02*
G01*
X151330276Y-106202815D01*
X151386433Y-106219765D01*
X151388308Y-106220693D01*
X151408824Y-106239158D01*
X151415272Y-106269640D01*
X151409997Y-106315362D01*
X151393584Y-106371928D01*
X151257882Y-106773464D01*
X151099613Y-106388635D01*
X151079431Y-106333536D01*
X151076752Y-106323568D01*
X151070304Y-106276967D01*
X151086717Y-106230365D01*
X151141045Y-106206579D01*
X151157059Y-106202815D01*
X151157059Y-106145662D01*
X150829969Y-106145662D01*
X150829969Y-106202815D01*
X150883311Y-106223038D01*
X150915552Y-106263778D01*
X150943201Y-106317364D01*
X150955998Y-106345257D01*
X151236194Y-106971007D01*
X151346396Y-106971007D01*
X151571783Y-106339982D01*
X151593261Y-106284069D01*
X151607540Y-106254106D01*
X151634798Y-106221280D01*
X151685503Y-106202815D01*
X151685503Y-106145662D01*
X151330276Y-106145662D01*
G37*
G36*
X150520171Y-105826778D02*
G01*
X150520171Y-106004978D01*
X150690457Y-106004978D01*
X150690457Y-105826778D01*
X150520171Y-105826778D01*
G37*
G36*
X150774575Y-106895390D02*
G01*
X150724456Y-106877218D01*
X150704233Y-106859046D01*
X150690750Y-106821824D01*
X150685727Y-106762740D01*
X150685475Y-106739465D01*
X150685475Y-106380135D01*
X150686232Y-106320491D01*
X150687233Y-106296604D01*
X150697785Y-106248244D01*
X150724456Y-106223038D01*
X150783594Y-106207120D01*
X150786298Y-106206625D01*
X150786298Y-106145662D01*
X150584651Y-106145662D01*
X150525154Y-106145662D01*
X150525154Y-106738293D01*
X150523499Y-106799378D01*
X150519292Y-106832668D01*
X150496724Y-106870770D01*
X150441410Y-106892891D01*
X150432830Y-106895097D01*
X150432830Y-106952250D01*
X150774575Y-106952250D01*
X150774575Y-106895390D01*
G37*
G36*
X149486438Y-106952250D02*
G01*
X149829941Y-106952250D01*
X149829941Y-106895097D01*
X149779529Y-106876632D01*
X149758720Y-106858460D01*
X149745238Y-106820358D01*
X149740214Y-106761254D01*
X149739962Y-106738293D01*
X149739962Y-106520526D01*
X149741075Y-106459093D01*
X149743479Y-106416185D01*
X149750788Y-106355900D01*
X149754323Y-106340275D01*
X149771909Y-106295139D01*
X149796235Y-106268174D01*
X149828769Y-106250589D01*
X149877422Y-106244141D01*
X149934868Y-106256157D01*
X149985246Y-106289581D01*
X149995538Y-106298656D01*
X150035270Y-106343279D01*
X150043898Y-106357860D01*
X150058323Y-106415370D01*
X150058552Y-106424685D01*
X150058552Y-106735069D01*
X150057014Y-106794346D01*
X150052397Y-106831496D01*
X150029829Y-106870184D01*
X149974806Y-106892836D01*
X149966228Y-106895097D01*
X149966228Y-106952250D01*
X150307973Y-106952250D01*
X150307973Y-106895390D01*
X150257854Y-106877218D01*
X150237631Y-106859046D01*
X150224149Y-106821824D01*
X150219126Y-106762562D01*
X150218873Y-106739172D01*
X150218873Y-106380135D01*
X150219631Y-106320491D01*
X150220632Y-106296604D01*
X150231183Y-106248244D01*
X150257854Y-106223038D01*
X150316992Y-106207120D01*
X150319697Y-106206625D01*
X150319697Y-106145662D01*
X150117171Y-106145662D01*
X150057087Y-106145662D01*
X150066173Y-106269053D01*
X150067345Y-106269053D01*
X150023625Y-106226650D01*
X149978580Y-106188805D01*
X149971211Y-106183471D01*
X149920313Y-106153381D01*
X149893249Y-106141852D01*
X149833797Y-106128086D01*
X149809131Y-106126904D01*
X149750432Y-106132030D01*
X149726773Y-106137748D01*
X149672850Y-106163304D01*
X149662000Y-106171454D01*
X149622767Y-106215286D01*
X149615691Y-106227434D01*
X149593709Y-106284642D01*
X149588727Y-106306862D01*
X149581380Y-106366141D01*
X149579641Y-106422633D01*
X149579641Y-106735655D01*
X149578252Y-106796140D01*
X149576417Y-106816841D01*
X149566159Y-106853478D01*
X149544763Y-106874287D01*
X149489174Y-106894606D01*
X149486438Y-106895390D01*
X149486438Y-106952250D01*
G37*
G36*
X149005733Y-105790988D02*
G01*
X149063662Y-105801972D01*
X149122418Y-105825313D01*
X149159914Y-105848652D01*
X149205005Y-105889291D01*
X149241413Y-105936102D01*
X149250453Y-105950397D01*
X149277792Y-106002925D01*
X149300839Y-106062951D01*
X149317910Y-106123387D01*
X149321175Y-106137655D01*
X149332130Y-106197976D01*
X149339713Y-106263501D01*
X149343584Y-106325102D01*
X149344875Y-106390686D01*
X149344094Y-106443869D01*
X149340625Y-106510803D01*
X149334381Y-106573195D01*
X149322673Y-106644797D01*
X149306629Y-106709300D01*
X149286248Y-106766704D01*
X149256068Y-106826220D01*
X149219338Y-106875425D01*
X149168099Y-106919964D01*
X149107828Y-106950647D01*
X149048978Y-106965917D01*
X148983493Y-106971007D01*
X148960508Y-106970404D01*
X148895785Y-106961354D01*
X148837410Y-106941443D01*
X148785381Y-106910672D01*
X148739700Y-106869040D01*
X148700367Y-106816548D01*
X148694434Y-106806755D01*
X148667596Y-106753598D01*
X148645467Y-106693457D01*
X148628046Y-106626332D01*
X148617500Y-106567604D01*
X148609966Y-106504406D01*
X148605446Y-106436738D01*
X148604705Y-106401238D01*
X148783605Y-106401238D01*
X148784017Y-106446777D01*
X148786535Y-106517467D01*
X148791344Y-106581645D01*
X148800137Y-106650063D01*
X148812227Y-106709105D01*
X148830499Y-106766136D01*
X148833457Y-106773259D01*
X148864176Y-106827188D01*
X148911733Y-106868228D01*
X148970304Y-106881908D01*
X148988278Y-106880826D01*
X149046735Y-106858346D01*
X149089720Y-106812665D01*
X149117143Y-106758809D01*
X149120118Y-106750954D01*
X149138300Y-106687954D01*
X149150201Y-106622792D01*
X149157521Y-106560619D01*
X149162480Y-106491290D01*
X149164747Y-106430675D01*
X149165503Y-106365480D01*
X149165418Y-106344095D01*
X149164143Y-106282471D01*
X149160931Y-106218461D01*
X149155831Y-106159144D01*
X149151640Y-106125873D01*
X149140540Y-106065450D01*
X149123004Y-106005271D01*
X149102253Y-105959530D01*
X149064093Y-105910603D01*
X149034445Y-105890956D01*
X148974407Y-105878363D01*
X148920405Y-105890672D01*
X148874463Y-105927602D01*
X148845502Y-105973915D01*
X148823299Y-106033241D01*
X148808224Y-106093785D01*
X148798631Y-106148468D01*
X148791394Y-106210191D01*
X148787067Y-106268701D01*
X148784470Y-106332383D01*
X148783605Y-106401238D01*
X148604705Y-106401238D01*
X148603940Y-106364601D01*
X148604733Y-106312005D01*
X148608259Y-106245796D01*
X148614606Y-106184066D01*
X148626508Y-106113202D01*
X148642817Y-106049336D01*
X148663533Y-105992468D01*
X148694212Y-105933464D01*
X148699947Y-105924592D01*
X148738278Y-105877276D01*
X148791488Y-105834889D01*
X148844375Y-105809541D01*
X148903980Y-105794332D01*
X148970304Y-105789263D01*
X149005733Y-105790988D01*
G37*
G36*
X148397896Y-106906820D02*
G01*
X148397896Y-106708397D01*
X148281832Y-106708397D01*
X148261370Y-106766373D01*
X148230669Y-106818636D01*
X148208266Y-106842047D01*
X148153751Y-106871942D01*
X148094510Y-106881752D01*
X148085168Y-106881908D01*
X148024471Y-106875697D01*
X147969408Y-106854517D01*
X147926605Y-106818307D01*
X147896069Y-106766893D01*
X147879307Y-106706809D01*
X147873179Y-106641868D01*
X147872970Y-106626039D01*
X147876967Y-106565918D01*
X147891738Y-106506613D01*
X147901399Y-106484769D01*
X147937148Y-106434598D01*
X147977896Y-106404755D01*
X148033371Y-106385545D01*
X148090150Y-106380135D01*
X148149862Y-106383338D01*
X148184526Y-106389221D01*
X148240876Y-106405937D01*
X148273919Y-106418823D01*
X148348364Y-106373687D01*
X148348364Y-105808021D01*
X147884986Y-105808021D01*
X147848350Y-105804210D01*
X147831937Y-105791901D01*
X147813765Y-105751747D01*
X147733165Y-105751747D01*
X147746647Y-105962773D01*
X148219990Y-105962773D01*
X148219990Y-106309207D01*
X148162452Y-106291292D01*
X148138217Y-106286346D01*
X148077309Y-106278515D01*
X148035635Y-106276967D01*
X147975162Y-106281003D01*
X147913667Y-106294764D01*
X147857436Y-106318293D01*
X147807860Y-106350624D01*
X147763416Y-106395295D01*
X147736682Y-106435236D01*
X147712486Y-106490230D01*
X147698334Y-106550834D01*
X147694184Y-106610798D01*
X147697940Y-106671932D01*
X147710923Y-106733985D01*
X147733179Y-106789855D01*
X147741665Y-106805411D01*
X147779295Y-106856620D01*
X147826899Y-106898617D01*
X147878831Y-106928802D01*
X147938005Y-106951059D01*
X147996596Y-106964042D01*
X148060241Y-106970348D01*
X148090150Y-106971007D01*
X148154264Y-106967936D01*
X148220173Y-106958722D01*
X148278095Y-106945934D01*
X148337336Y-106928634D01*
X148397896Y-106906820D01*
G37*
G36*
X146924947Y-105795564D02*
G01*
X146987174Y-105808314D01*
X147047313Y-105827218D01*
X147105363Y-105852277D01*
X147160501Y-105882869D01*
X147212195Y-105918663D01*
X147260445Y-105959659D01*
X147305251Y-106005857D01*
X147310581Y-106011990D01*
X147350473Y-106063377D01*
X147385493Y-106118904D01*
X147415640Y-106178571D01*
X147438022Y-106234176D01*
X147448944Y-106267089D01*
X147464554Y-106326164D01*
X147475704Y-106387118D01*
X147482393Y-106449951D01*
X147484623Y-106514664D01*
X147483794Y-106555652D01*
X147478725Y-106619774D01*
X147469048Y-106678658D01*
X147451352Y-106742406D01*
X147427021Y-106798611D01*
X147390248Y-106854650D01*
X147351673Y-106894193D01*
X147298621Y-106929987D01*
X147236902Y-106954645D01*
X147177101Y-106966917D01*
X147110932Y-106971007D01*
X147071788Y-106969827D01*
X147013206Y-106963026D01*
X146953258Y-106948150D01*
X146894044Y-106922647D01*
X146843246Y-106888930D01*
X146797813Y-106843775D01*
X146763325Y-106790170D01*
X146755731Y-106774121D01*
X146735809Y-106717427D01*
X146724189Y-106655809D01*
X146721686Y-106611384D01*
X146894630Y-106611384D01*
X146896706Y-106660936D01*
X146905475Y-106719535D01*
X146914593Y-106751995D01*
X146941232Y-106805118D01*
X146958136Y-106825977D01*
X147006005Y-106861391D01*
X147044642Y-106875416D01*
X147105363Y-106881908D01*
X147163947Y-106874180D01*
X147216885Y-106847827D01*
X147257771Y-106802773D01*
X147279954Y-106758479D01*
X147297334Y-106697351D01*
X147306049Y-106632972D01*
X147308475Y-106568886D01*
X147308418Y-106552813D01*
X147306131Y-106492975D01*
X147296459Y-106456925D01*
X147283856Y-106440512D01*
X147270450Y-106429306D01*
X147221427Y-106396841D01*
X147209193Y-106390645D01*
X147152844Y-106370463D01*
X147136803Y-106366923D01*
X147077226Y-106361377D01*
X147046064Y-106363675D01*
X146987947Y-106384419D01*
X146942697Y-106426737D01*
X146936877Y-106435083D01*
X146911576Y-106488600D01*
X146898433Y-106548432D01*
X146894630Y-106611384D01*
X146721686Y-106611384D01*
X146720827Y-106596143D01*
X146723517Y-106541259D01*
X146734108Y-106479594D01*
X146754826Y-106419116D01*
X146773950Y-106383139D01*
X146810605Y-106337142D01*
X146856822Y-106300707D01*
X146897131Y-106280164D01*
X146957801Y-106263231D01*
X147020367Y-106258209D01*
X147049870Y-106259044D01*
X147111109Y-106266578D01*
X147168671Y-106281949D01*
X147198564Y-106293358D01*
X147253484Y-106320647D01*
X147299190Y-106350104D01*
X147298399Y-106345838D01*
X147285230Y-106288068D01*
X147265611Y-106225822D01*
X147241119Y-106167607D01*
X147211755Y-106113422D01*
X147191008Y-106082053D01*
X147149733Y-106031829D01*
X147103404Y-105989627D01*
X147052020Y-105955446D01*
X147008267Y-105934547D01*
X146946654Y-105915219D01*
X146886827Y-105905162D01*
X146822237Y-105901810D01*
X146822237Y-105845243D01*
X146860632Y-105788970D01*
X146924947Y-105795564D01*
G37*
G36*
X146531197Y-106051873D02*
G01*
X146531197Y-105876604D01*
X146475239Y-105853116D01*
X146416380Y-105831478D01*
X146355668Y-105813097D01*
X146345084Y-105810365D01*
X146282601Y-105797506D01*
X146221766Y-105790582D01*
X146182125Y-105789263D01*
X146119540Y-105792865D01*
X146057428Y-105805010D01*
X146015063Y-105819744D01*
X145961806Y-105849009D01*
X145916894Y-105890587D01*
X145903981Y-105907965D01*
X145877534Y-105962750D01*
X145866238Y-106021257D01*
X145865293Y-106045718D01*
X145870847Y-106107235D01*
X145889124Y-106165676D01*
X145894309Y-106176437D01*
X145926535Y-106225973D01*
X145968807Y-106269069D01*
X145975203Y-106274329D01*
X146025308Y-106309648D01*
X146080272Y-106340937D01*
X146103577Y-106352584D01*
X146104456Y-106346723D01*
X146047257Y-106361469D01*
X146011839Y-106376032D01*
X145958724Y-106407236D01*
X145926549Y-106434064D01*
X145887269Y-106481485D01*
X145866466Y-106519647D01*
X145848856Y-106576474D01*
X145843898Y-106633073D01*
X145848105Y-106692012D01*
X145862453Y-106752084D01*
X145886982Y-106807169D01*
X145921735Y-106855750D01*
X145967154Y-106896711D01*
X146017701Y-106927337D01*
X146076291Y-106950366D01*
X146135237Y-106963800D01*
X146200072Y-106970325D01*
X146230778Y-106971007D01*
X146290960Y-106968299D01*
X146349775Y-106960990D01*
X146385531Y-106954594D01*
X146446626Y-106940649D01*
X146505497Y-106922995D01*
X146543507Y-106909165D01*
X146543507Y-106708397D01*
X146428322Y-106708397D01*
X146405836Y-106767270D01*
X146374796Y-106819790D01*
X146353291Y-106842926D01*
X146299875Y-106872162D01*
X146239552Y-106881755D01*
X146229899Y-106881908D01*
X146170554Y-106876469D01*
X146112412Y-106855587D01*
X146074854Y-106826220D01*
X146042884Y-106776747D01*
X146026540Y-106717856D01*
X146022390Y-106660037D01*
X146027908Y-106599252D01*
X146046982Y-106541881D01*
X146083699Y-106491138D01*
X146092146Y-106483303D01*
X146142143Y-106451155D01*
X146198398Y-106432401D01*
X146257355Y-106423829D01*
X146298482Y-106422340D01*
X146382014Y-106422340D01*
X146382014Y-106333827D01*
X146318909Y-106327363D01*
X146257005Y-106314690D01*
X146198894Y-106294070D01*
X146189452Y-106289570D01*
X146139279Y-106259070D01*
X146094495Y-106216402D01*
X146079836Y-106195781D01*
X146054171Y-106139255D01*
X146044393Y-106080687D01*
X146044079Y-106067407D01*
X146050550Y-106004841D01*
X146074456Y-105947058D01*
X146090094Y-105927309D01*
X146138404Y-105893849D01*
X146198132Y-105879558D01*
X146224917Y-105878363D01*
X146284470Y-105886160D01*
X146339480Y-105914169D01*
X146345377Y-105919102D01*
X146383686Y-105968566D01*
X146407379Y-106024365D01*
X146415426Y-106051873D01*
X146531197Y-106051873D01*
G37*
D13*
G36*
X168681073Y-43448580D02*
G01*
X168753319Y-43470608D01*
X168780778Y-43486446D01*
X168837941Y-43538694D01*
X168879239Y-43600520D01*
X168894347Y-43631135D01*
X168920951Y-43702498D01*
X168940778Y-43778279D01*
X168955127Y-43854829D01*
X169043331Y-44411722D01*
X168993395Y-44419631D01*
X168959024Y-44357195D01*
X168925509Y-44330603D01*
X168872937Y-44321867D01*
X168843172Y-44323416D01*
X168770092Y-44332963D01*
X167889340Y-44472460D01*
X167850147Y-44479196D01*
X167778559Y-44496683D01*
X167726522Y-44533486D01*
X167718042Y-44550543D01*
X167703748Y-44623891D01*
X167653812Y-44631800D01*
X167570767Y-44107474D01*
X167564086Y-44059170D01*
X167558425Y-43990188D01*
X167661686Y-43990188D01*
X167662091Y-44063712D01*
X167671139Y-44141653D01*
X167673894Y-44158659D01*
X167687725Y-44233816D01*
X167704320Y-44306654D01*
X168276411Y-44216044D01*
X168251423Y-44058276D01*
X168239556Y-43995938D01*
X168226327Y-43949531D01*
X168333934Y-43949531D01*
X168340791Y-44022978D01*
X168369046Y-44201372D01*
X168895543Y-44117983D01*
X168893509Y-44097421D01*
X168884507Y-44022547D01*
X168881174Y-43996027D01*
X168870574Y-43920523D01*
X168861488Y-43874025D01*
X168839777Y-43803364D01*
X168827290Y-43774830D01*
X168785624Y-43714386D01*
X168767847Y-43697728D01*
X168702195Y-43663058D01*
X168658246Y-43654648D01*
X168582010Y-43658354D01*
X168564548Y-43661448D01*
X168493732Y-43682285D01*
X168429950Y-43718700D01*
X168377908Y-43774882D01*
X168360762Y-43805615D01*
X168339078Y-43876005D01*
X168333934Y-43949531D01*
X168226327Y-43949531D01*
X168218735Y-43922899D01*
X168187407Y-43855501D01*
X168141340Y-43799268D01*
X168075311Y-43759008D01*
X168057690Y-43753105D01*
X167983638Y-43742556D01*
X167909278Y-43748212D01*
X167897259Y-43750249D01*
X167821399Y-43770662D01*
X167752440Y-43807178D01*
X167702373Y-43859342D01*
X167671285Y-43929457D01*
X167661686Y-43990188D01*
X167558425Y-43990188D01*
X167558084Y-43986039D01*
X167558231Y-43909879D01*
X167566960Y-43832846D01*
X167585855Y-43763644D01*
X167619268Y-43696985D01*
X167665909Y-43640240D01*
X167675827Y-43631033D01*
X167738758Y-43587874D01*
X167808280Y-43559621D01*
X167880877Y-43543134D01*
X167953587Y-43538754D01*
X168028605Y-43551207D01*
X168098424Y-43581752D01*
X168116456Y-43593200D01*
X168172210Y-43640763D01*
X168221271Y-43702788D01*
X168259704Y-43770977D01*
X168269474Y-43769429D01*
X168272418Y-43758007D01*
X168295380Y-43684741D01*
X168326673Y-43615336D01*
X168364535Y-43561208D01*
X168421131Y-43509126D01*
X168428757Y-43503696D01*
X168497899Y-43468773D01*
X168570255Y-43450640D01*
X168603061Y-43446639D01*
X168681073Y-43448580D01*
G37*
G36*
X168304849Y-42122676D02*
G01*
X168380534Y-42135692D01*
X168459664Y-42159001D01*
X168530513Y-42191503D01*
X168593081Y-42233199D01*
X168647368Y-42284089D01*
X168653567Y-42291093D01*
X168698122Y-42352073D01*
X168733729Y-42421843D01*
X168760389Y-42500402D01*
X168776376Y-42576351D01*
X168784051Y-42659499D01*
X168780196Y-42739233D01*
X168764812Y-42815555D01*
X168737899Y-42888463D01*
X168733728Y-42897317D01*
X168694148Y-42964830D01*
X168643526Y-43026442D01*
X168581861Y-43082152D01*
X168518846Y-43126057D01*
X168448121Y-43164864D01*
X168370115Y-43198045D01*
X168297458Y-43222006D01*
X168219452Y-43241833D01*
X168136096Y-43257526D01*
X168124516Y-43259321D01*
X168045992Y-43269294D01*
X167971896Y-43274731D01*
X167892639Y-43275391D01*
X167810389Y-43269053D01*
X167793090Y-43266655D01*
X167719328Y-43251989D01*
X167645208Y-43228258D01*
X167573206Y-43193114D01*
X167516459Y-43153142D01*
X167463233Y-43101189D01*
X167419639Y-43040873D01*
X167385244Y-42973052D01*
X167359615Y-42898582D01*
X167343922Y-42825114D01*
X167342293Y-42814311D01*
X167335763Y-42740373D01*
X167336721Y-42714325D01*
X167429924Y-42714325D01*
X167433003Y-42788007D01*
X167434880Y-42798824D01*
X167460493Y-42877653D01*
X167504941Y-42942788D01*
X167568224Y-42994229D01*
X167639047Y-43028007D01*
X167650328Y-43031972D01*
X167723593Y-43051039D01*
X167806426Y-43062018D01*
X167882764Y-43064989D01*
X167965746Y-43062344D01*
X168055374Y-43054082D01*
X168131860Y-43043428D01*
X168157525Y-43039184D01*
X168231475Y-43024782D01*
X168308291Y-43005841D01*
X168379473Y-42983809D01*
X168425701Y-42966426D01*
X168496639Y-42932656D01*
X168561645Y-42890414D01*
X168574865Y-42879775D01*
X168627337Y-42826329D01*
X168666700Y-42762124D01*
X168672404Y-42748331D01*
X168688497Y-42674391D01*
X168684830Y-42597898D01*
X168672699Y-42548237D01*
X168639851Y-42482238D01*
X168589421Y-42426431D01*
X168568494Y-42410155D01*
X168498850Y-42372813D01*
X168428674Y-42350348D01*
X168356327Y-42336491D01*
X168296116Y-42330270D01*
X168219721Y-42328107D01*
X168136705Y-42331429D01*
X168060278Y-42338644D01*
X167978986Y-42349889D01*
X167956257Y-42353644D01*
X167879911Y-42368721D01*
X167808549Y-42386806D01*
X167733096Y-42411160D01*
X167664155Y-42439443D01*
X167648060Y-42447109D01*
X167582592Y-42484338D01*
X167523207Y-42530953D01*
X167474124Y-42588610D01*
X167447133Y-42640085D01*
X167429924Y-42714325D01*
X167336721Y-42714325D01*
X167338738Y-42659480D01*
X167352848Y-42582433D01*
X167378092Y-42509233D01*
X167382031Y-42500345D01*
X167420045Y-42432466D01*
X167469631Y-42370311D01*
X167530788Y-42313882D01*
X167593792Y-42269202D01*
X167613434Y-42257243D01*
X167687482Y-42219040D01*
X167757517Y-42190821D01*
X167833613Y-42166780D01*
X167915770Y-42146917D01*
X167988863Y-42133556D01*
X168071210Y-42122769D01*
X168149445Y-42117146D01*
X168223569Y-42116686D01*
X168304849Y-42122676D01*
G37*
G36*
X168090273Y-40767895D02*
G01*
X168165958Y-40780912D01*
X168245088Y-40804220D01*
X168315937Y-40836722D01*
X168378505Y-40878418D01*
X168432792Y-40929308D01*
X168438991Y-40936313D01*
X168483546Y-40997293D01*
X168519153Y-41067062D01*
X168545812Y-41145621D01*
X168561800Y-41221570D01*
X168569475Y-41304718D01*
X168565620Y-41384453D01*
X168550236Y-41460774D01*
X168523323Y-41533683D01*
X168519152Y-41542537D01*
X168479572Y-41610050D01*
X168428950Y-41671661D01*
X168367285Y-41727371D01*
X168304270Y-41771276D01*
X168233545Y-41810084D01*
X168155539Y-41843264D01*
X168082882Y-41867226D01*
X168004875Y-41887053D01*
X167921519Y-41902746D01*
X167909940Y-41904541D01*
X167831416Y-41914513D01*
X167757320Y-41919950D01*
X167678063Y-41920610D01*
X167595813Y-41914272D01*
X167578514Y-41911874D01*
X167504752Y-41897209D01*
X167430632Y-41873478D01*
X167358630Y-41838333D01*
X167301883Y-41798361D01*
X167248656Y-41746409D01*
X167205063Y-41686093D01*
X167170668Y-41618271D01*
X167145039Y-41543802D01*
X167129346Y-41470334D01*
X167127717Y-41459531D01*
X167121187Y-41385593D01*
X167122145Y-41359545D01*
X167215348Y-41359545D01*
X167218427Y-41433227D01*
X167220304Y-41444043D01*
X167245917Y-41522872D01*
X167290365Y-41588008D01*
X167353648Y-41639449D01*
X167424471Y-41673227D01*
X167435751Y-41677191D01*
X167509016Y-41696259D01*
X167591850Y-41707238D01*
X167668188Y-41710209D01*
X167751170Y-41707564D01*
X167840798Y-41699301D01*
X167917284Y-41688648D01*
X167942948Y-41684404D01*
X168016899Y-41670001D01*
X168093715Y-41651061D01*
X168164897Y-41629029D01*
X168211125Y-41611645D01*
X168282063Y-41577876D01*
X168347069Y-41535633D01*
X168360289Y-41524995D01*
X168412761Y-41471549D01*
X168452124Y-41407344D01*
X168457828Y-41393551D01*
X168473921Y-41319611D01*
X168470254Y-41243117D01*
X168458123Y-41193456D01*
X168425275Y-41127457D01*
X168374845Y-41071650D01*
X168353918Y-41055375D01*
X168284274Y-41018033D01*
X168214098Y-40995568D01*
X168141751Y-40981711D01*
X168081540Y-40975490D01*
X168005145Y-40973326D01*
X167922129Y-40976649D01*
X167845702Y-40983864D01*
X167764410Y-40995109D01*
X167741681Y-40998864D01*
X167665334Y-41013941D01*
X167593972Y-41032026D01*
X167518520Y-41056380D01*
X167449579Y-41084663D01*
X167433483Y-41092329D01*
X167368016Y-41129558D01*
X167308631Y-41176172D01*
X167259548Y-41233830D01*
X167232557Y-41285305D01*
X167215348Y-41359545D01*
X167122145Y-41359545D01*
X167124162Y-41304699D01*
X167138272Y-41227652D01*
X167163516Y-41154452D01*
X167167455Y-41145565D01*
X167205469Y-41077685D01*
X167255055Y-41015531D01*
X167316212Y-40959101D01*
X167379216Y-40914422D01*
X167398858Y-40902462D01*
X167472906Y-40864260D01*
X167542941Y-40836040D01*
X167619037Y-40811999D01*
X167701194Y-40792136D01*
X167774287Y-40778776D01*
X167856634Y-40767989D01*
X167934869Y-40762366D01*
X168008992Y-40761906D01*
X168090273Y-40767895D01*
G37*
G36*
X168426768Y-40518900D02*
G01*
X168252368Y-39417779D01*
X167904988Y-39472798D01*
X167920806Y-39572670D01*
X167995375Y-39582338D01*
X168061018Y-39596087D01*
X168131112Y-39623110D01*
X168142896Y-39630598D01*
X168187334Y-39676974D01*
X168209764Y-39748952D01*
X168211486Y-39759205D01*
X168231946Y-39888387D01*
X167191979Y-40053101D01*
X167117956Y-40061376D01*
X167095418Y-40061718D01*
X167035759Y-40050395D01*
X166997651Y-40018225D01*
X166964465Y-39951703D01*
X166963277Y-39948741D01*
X166913341Y-39956650D01*
X166986987Y-40421632D01*
X167036923Y-40413723D01*
X167043220Y-40357457D01*
X167057104Y-40316310D01*
X167083240Y-40286947D01*
X167130769Y-40263840D01*
X167203865Y-40246473D01*
X167222125Y-40243436D01*
X168262092Y-40078722D01*
X168282438Y-40207180D01*
X168286555Y-40281259D01*
X168285886Y-40287497D01*
X168258451Y-40350820D01*
X168203954Y-40400270D01*
X168186828Y-40411498D01*
X168120205Y-40447694D01*
X168063456Y-40473324D01*
X168079389Y-40573919D01*
X168426768Y-40518900D01*
G37*
D10*
X144209076Y-31998569D02*
X144209076Y-32712854D01*
X144209076Y-32712854D02*
X144161457Y-32855711D01*
X144161457Y-32855711D02*
X144066219Y-32950950D01*
X144066219Y-32950950D02*
X143923362Y-32998569D01*
X143923362Y-32998569D02*
X143828124Y-32998569D01*
X145161457Y-32998569D02*
X144685267Y-32998569D01*
X144685267Y-32998569D02*
X144685267Y-31998569D01*
X146066219Y-32903330D02*
X146018600Y-32950950D01*
X146018600Y-32950950D02*
X145875743Y-32998569D01*
X145875743Y-32998569D02*
X145780505Y-32998569D01*
X145780505Y-32998569D02*
X145637648Y-32950950D01*
X145637648Y-32950950D02*
X145542410Y-32855711D01*
X145542410Y-32855711D02*
X145494791Y-32760473D01*
X145494791Y-32760473D02*
X145447172Y-32569997D01*
X145447172Y-32569997D02*
X145447172Y-32427140D01*
X145447172Y-32427140D02*
X145494791Y-32236664D01*
X145494791Y-32236664D02*
X145542410Y-32141426D01*
X145542410Y-32141426D02*
X145637648Y-32046188D01*
X145637648Y-32046188D02*
X145780505Y-31998569D01*
X145780505Y-31998569D02*
X145875743Y-31998569D01*
X145875743Y-31998569D02*
X146018600Y-32046188D01*
X146018600Y-32046188D02*
X146066219Y-32093807D01*
X146780505Y-31998569D02*
X146780505Y-32712854D01*
X146780505Y-32712854D02*
X146732886Y-32855711D01*
X146732886Y-32855711D02*
X146637648Y-32950950D01*
X146637648Y-32950950D02*
X146494791Y-32998569D01*
X146494791Y-32998569D02*
X146399553Y-32998569D01*
X147732886Y-32998569D02*
X147256696Y-32998569D01*
X147256696Y-32998569D02*
X147256696Y-31998569D01*
X148637648Y-32903330D02*
X148590029Y-32950950D01*
X148590029Y-32950950D02*
X148447172Y-32998569D01*
X148447172Y-32998569D02*
X148351934Y-32998569D01*
X148351934Y-32998569D02*
X148209077Y-32950950D01*
X148209077Y-32950950D02*
X148113839Y-32855711D01*
X148113839Y-32855711D02*
X148066220Y-32760473D01*
X148066220Y-32760473D02*
X148018601Y-32569997D01*
X148018601Y-32569997D02*
X148018601Y-32427140D01*
X148018601Y-32427140D02*
X148066220Y-32236664D01*
X148066220Y-32236664D02*
X148113839Y-32141426D01*
X148113839Y-32141426D02*
X148209077Y-32046188D01*
X148209077Y-32046188D02*
X148351934Y-31998569D01*
X148351934Y-31998569D02*
X148447172Y-31998569D01*
X148447172Y-31998569D02*
X148590029Y-32046188D01*
X148590029Y-32046188D02*
X148637648Y-32093807D01*
X149351934Y-31998569D02*
X149351934Y-32712854D01*
X149351934Y-32712854D02*
X149304315Y-32855711D01*
X149304315Y-32855711D02*
X149209077Y-32950950D01*
X149209077Y-32950950D02*
X149066220Y-32998569D01*
X149066220Y-32998569D02*
X148970982Y-32998569D01*
X150304315Y-32998569D02*
X149828125Y-32998569D01*
X149828125Y-32998569D02*
X149828125Y-31998569D01*
X151209077Y-32903330D02*
X151161458Y-32950950D01*
X151161458Y-32950950D02*
X151018601Y-32998569D01*
X151018601Y-32998569D02*
X150923363Y-32998569D01*
X150923363Y-32998569D02*
X150780506Y-32950950D01*
X150780506Y-32950950D02*
X150685268Y-32855711D01*
X150685268Y-32855711D02*
X150637649Y-32760473D01*
X150637649Y-32760473D02*
X150590030Y-32569997D01*
X150590030Y-32569997D02*
X150590030Y-32427140D01*
X150590030Y-32427140D02*
X150637649Y-32236664D01*
X150637649Y-32236664D02*
X150685268Y-32141426D01*
X150685268Y-32141426D02*
X150780506Y-32046188D01*
X150780506Y-32046188D02*
X150923363Y-31998569D01*
X150923363Y-31998569D02*
X151018601Y-31998569D01*
X151018601Y-31998569D02*
X151161458Y-32046188D01*
X151161458Y-32046188D02*
X151209077Y-32093807D01*
X151923363Y-31998569D02*
X151923363Y-32712854D01*
X151923363Y-32712854D02*
X151875744Y-32855711D01*
X151875744Y-32855711D02*
X151780506Y-32950950D01*
X151780506Y-32950950D02*
X151637649Y-32998569D01*
X151637649Y-32998569D02*
X151542411Y-32998569D01*
X152875744Y-32998569D02*
X152399554Y-32998569D01*
X152399554Y-32998569D02*
X152399554Y-31998569D01*
X153780506Y-32903330D02*
X153732887Y-32950950D01*
X153732887Y-32950950D02*
X153590030Y-32998569D01*
X153590030Y-32998569D02*
X153494792Y-32998569D01*
X153494792Y-32998569D02*
X153351935Y-32950950D01*
X153351935Y-32950950D02*
X153256697Y-32855711D01*
X153256697Y-32855711D02*
X153209078Y-32760473D01*
X153209078Y-32760473D02*
X153161459Y-32569997D01*
X153161459Y-32569997D02*
X153161459Y-32427140D01*
X153161459Y-32427140D02*
X153209078Y-32236664D01*
X153209078Y-32236664D02*
X153256697Y-32141426D01*
X153256697Y-32141426D02*
X153351935Y-32046188D01*
X153351935Y-32046188D02*
X153494792Y-31998569D01*
X153494792Y-31998569D02*
X153590030Y-31998569D01*
X153590030Y-31998569D02*
X153732887Y-32046188D01*
X153732887Y-32046188D02*
X153780506Y-32093807D01*
D14*
G36*
X154316525Y-94737895D02*
G01*
X154316525Y-95603980D01*
X154839693Y-95603980D01*
X154934590Y-95324592D01*
X155012617Y-95180463D01*
X155226229Y-94975940D01*
X155251487Y-94963576D01*
X155540479Y-94901546D01*
X155590007Y-94900561D01*
X155893924Y-94960376D01*
X156101452Y-95089605D01*
X156301120Y-95326643D01*
X156429361Y-95592072D01*
X156454627Y-95662599D01*
X156528049Y-95948005D01*
X156568349Y-96242928D01*
X156583083Y-96537236D01*
X156583587Y-96606353D01*
X156574050Y-96906445D01*
X156542666Y-97202449D01*
X156533762Y-97258481D01*
X156461383Y-97547460D01*
X156365234Y-97762599D01*
X156174065Y-97997886D01*
X156047230Y-98089396D01*
X155762725Y-98190146D01*
X155556302Y-98206632D01*
X155248985Y-98173711D01*
X155027272Y-98102585D01*
X154761868Y-97947780D01*
X154535226Y-97753836D01*
X154518758Y-97737686D01*
X154282820Y-98019054D01*
X154504459Y-98230337D01*
X154655046Y-98351712D01*
X154907837Y-98506135D01*
X154997963Y-98548084D01*
X155282396Y-98644397D01*
X155361396Y-98662389D01*
X155660427Y-98697273D01*
X155751208Y-98699026D01*
X156074191Y-98673991D01*
X156362252Y-98598888D01*
X156648703Y-98451747D01*
X156889541Y-98239210D01*
X156942624Y-98175858D01*
X157103079Y-97924171D01*
X157224124Y-97628166D01*
X157296509Y-97339173D01*
X157339941Y-97017620D01*
X157354016Y-96724786D01*
X157354418Y-96663506D01*
X157340038Y-96363087D01*
X157289484Y-96046136D01*
X157202531Y-95751442D01*
X157124341Y-95567344D01*
X156961595Y-95290224D01*
X156762785Y-95056037D01*
X156527911Y-94864783D01*
X156476609Y-94831685D01*
X156203896Y-94694899D01*
X155905997Y-94608775D01*
X155582909Y-94573312D01*
X155515269Y-94572299D01*
X155210550Y-94580993D01*
X154910360Y-94609432D01*
X154892450Y-94611866D01*
X154586855Y-94667141D01*
X154316525Y-94737895D01*
G37*
G36*
X152587286Y-97573555D02*
G01*
X152579226Y-97874340D01*
X152555046Y-98067414D01*
X152429016Y-98276974D01*
X152151581Y-98396157D01*
X152125667Y-98403003D01*
X152125667Y-98605237D01*
X153762582Y-98605237D01*
X153762582Y-98401538D01*
X153485920Y-98297296D01*
X153475353Y-98290163D01*
X153361047Y-98150945D01*
X153311222Y-97929661D01*
X153296925Y-97634219D01*
X153296567Y-97566227D01*
X153296567Y-94085767D01*
X153297689Y-93782268D01*
X153302429Y-93528893D01*
X153336134Y-93260715D01*
X153410873Y-93087791D01*
X153538367Y-92988140D01*
X153828528Y-92913401D01*
X153828528Y-92696514D01*
X152834948Y-92696514D01*
X152587286Y-92696514D01*
X152587286Y-97573555D01*
G37*
G36*
X149614887Y-94573203D02*
G01*
X149928786Y-94604859D01*
X150220075Y-94681738D01*
X150488751Y-94803841D01*
X150539544Y-94833740D01*
X150773073Y-95011913D01*
X150972541Y-95237885D01*
X151137949Y-95511657D01*
X151230453Y-95729623D01*
X151316002Y-96039954D01*
X151360515Y-96344219D01*
X151375353Y-96675230D01*
X151374912Y-96737308D01*
X151359485Y-97033362D01*
X151311880Y-97357079D01*
X151232539Y-97646381D01*
X151099864Y-97940403D01*
X150923992Y-98187581D01*
X150773031Y-98334921D01*
X150528387Y-98499243D01*
X150244894Y-98614617D01*
X149922552Y-98681045D01*
X149615339Y-98699026D01*
X149510066Y-98696952D01*
X149210323Y-98665847D01*
X148905554Y-98587508D01*
X148630552Y-98463087D01*
X148579095Y-98432662D01*
X148344307Y-98252542D01*
X148147014Y-98025768D01*
X147987216Y-97752340D01*
X147898709Y-97533592D01*
X147816857Y-97221845D01*
X147774267Y-96915931D01*
X147765255Y-96704539D01*
X148539693Y-96704539D01*
X148539746Y-96725121D01*
X148553249Y-97027672D01*
X148593915Y-97337616D01*
X148653261Y-97588020D01*
X148768305Y-97869577D01*
X148869627Y-98028946D01*
X149083378Y-98235941D01*
X149254334Y-98323233D01*
X149553790Y-98370763D01*
X149871830Y-98316217D01*
X150134803Y-98152576D01*
X150326085Y-97909144D01*
X150374274Y-97819087D01*
X150479604Y-97544681D01*
X150551228Y-97220448D01*
X150586250Y-96895872D01*
X150595730Y-96587302D01*
X150595471Y-96537016D01*
X150579152Y-96205367D01*
X150537448Y-95909342D01*
X150458702Y-95614648D01*
X150330482Y-95338733D01*
X150141175Y-95107666D01*
X149880704Y-94952337D01*
X149565513Y-94900561D01*
X149301430Y-94942421D01*
X149037949Y-95091070D01*
X148954572Y-95169587D01*
X148786875Y-95412097D01*
X148673050Y-95686046D01*
X148634632Y-95817558D01*
X148577330Y-96111279D01*
X148548028Y-96410623D01*
X148539693Y-96704539D01*
X147765255Y-96704539D01*
X147760070Y-96582906D01*
X147776041Y-96234476D01*
X147823955Y-95917886D01*
X147903811Y-95633135D01*
X148037348Y-95341167D01*
X148214362Y-95092536D01*
X148366353Y-94942663D01*
X148614363Y-94775516D01*
X148903466Y-94658158D01*
X149233662Y-94590588D01*
X149549393Y-94572299D01*
X149614887Y-94573203D01*
G37*
G36*
X144506738Y-94572332D02*
G01*
X144807174Y-94606004D01*
X144834767Y-94612448D01*
X145113455Y-94715913D01*
X145172445Y-94746430D01*
X145419735Y-94910819D01*
X145607603Y-95075501D01*
X145824201Y-95287442D01*
X145885751Y-95272787D01*
X145831529Y-94666088D01*
X146083587Y-94666088D01*
X147052254Y-94666088D01*
X147052254Y-94884441D01*
X146785541Y-94959179D01*
X146658046Y-95050038D01*
X146586239Y-95186325D01*
X146553999Y-95394420D01*
X146548641Y-95512160D01*
X146545206Y-95816472D01*
X146545206Y-99352620D01*
X146545773Y-99438847D01*
X146561326Y-99735104D01*
X146627272Y-99963715D01*
X146769421Y-100091210D01*
X147011222Y-100176206D01*
X147011222Y-100387232D01*
X145328877Y-100387232D01*
X145328877Y-100186465D01*
X145616106Y-100097072D01*
X145752394Y-99972508D01*
X145818340Y-99765879D01*
X145827613Y-99671196D01*
X145835925Y-99370205D01*
X145835925Y-98508516D01*
X145675389Y-98568417D01*
X145383099Y-98646269D01*
X145138357Y-98684136D01*
X144830621Y-98699026D01*
X144796698Y-98698795D01*
X144473840Y-98671146D01*
X144180748Y-98597415D01*
X143892729Y-98463087D01*
X143644049Y-98273346D01*
X143440046Y-98028539D01*
X143293357Y-97758202D01*
X143212844Y-97541879D01*
X143138385Y-97232836D01*
X143099642Y-96928937D01*
X143091011Y-96707470D01*
X143861954Y-96707470D01*
X143862200Y-96758371D01*
X143877708Y-97092885D01*
X143917338Y-97389251D01*
X143992168Y-97681243D01*
X144114013Y-97950177D01*
X144294819Y-98171971D01*
X144549576Y-98321065D01*
X144862861Y-98370763D01*
X145027210Y-98364180D01*
X145314222Y-98303352D01*
X145376922Y-98275652D01*
X145611710Y-98099654D01*
X145669321Y-98026381D01*
X145786099Y-97745013D01*
X145792133Y-97716998D01*
X145827702Y-97420623D01*
X145835925Y-97123659D01*
X145835925Y-96014308D01*
X145834872Y-95970368D01*
X145768514Y-95684581D01*
X145722236Y-95597447D01*
X145535506Y-95369507D01*
X145452616Y-95294494D01*
X145202848Y-95136500D01*
X145103891Y-95101788D01*
X144805709Y-95064692D01*
X144584516Y-95090361D01*
X144308026Y-95225120D01*
X144097893Y-95475387D01*
X143973472Y-95772177D01*
X143907114Y-96067364D01*
X143870249Y-96413887D01*
X143861954Y-96707470D01*
X143091011Y-96707470D01*
X143086728Y-96597560D01*
X143095636Y-96298730D01*
X143129845Y-95970926D01*
X143189712Y-95676712D01*
X143291983Y-95375919D01*
X143451626Y-95088140D01*
X143626346Y-94887143D01*
X143895293Y-94701259D01*
X144176203Y-94604539D01*
X144496497Y-94572299D01*
X144506738Y-94572332D01*
G37*
G36*
X139519805Y-95510191D02*
G01*
X139915478Y-95510191D01*
X140048615Y-95247285D01*
X140129435Y-95143827D01*
X140370663Y-94969598D01*
X140409337Y-94954783D01*
X140710580Y-94902467D01*
X140793287Y-94900561D01*
X141089676Y-94939762D01*
X141319386Y-95057365D01*
X141486883Y-95298020D01*
X141514292Y-95485278D01*
X141450503Y-95779072D01*
X141436623Y-95803283D01*
X141223385Y-96015815D01*
X141193357Y-96036290D01*
X140927771Y-96181010D01*
X140637338Y-96313790D01*
X140611570Y-96324985D01*
X140345102Y-96447633D01*
X140071577Y-96594213D01*
X139962373Y-96663506D01*
X139736716Y-96852842D01*
X139604801Y-97022543D01*
X139492717Y-97308650D01*
X139474376Y-97510540D01*
X139502219Y-97813157D01*
X139585751Y-98064483D01*
X139760460Y-98313954D01*
X139899358Y-98432313D01*
X140165151Y-98572700D01*
X140378563Y-98636011D01*
X140669822Y-98683272D01*
X140966170Y-98698964D01*
X140986728Y-98699026D01*
X141285698Y-98689208D01*
X141577375Y-98659756D01*
X141659372Y-98647735D01*
X141960829Y-98593939D01*
X142255201Y-98525976D01*
X142293915Y-98515844D01*
X142293915Y-97667344D01*
X141889449Y-97667344D01*
X141771520Y-97951769D01*
X141586597Y-98182029D01*
X141559721Y-98203701D01*
X141280985Y-98334055D01*
X140981254Y-98370600D01*
X140957418Y-98370763D01*
X140667258Y-98339989D01*
X140413734Y-98234476D01*
X140236413Y-98035174D01*
X140170726Y-97743485D01*
X140170468Y-97720100D01*
X140225611Y-97426076D01*
X140253999Y-97372787D01*
X140467177Y-97155922D01*
X140508988Y-97128056D01*
X140767167Y-96987800D01*
X141039055Y-96862400D01*
X141118619Y-96827637D01*
X141399006Y-96700494D01*
X141661822Y-96557398D01*
X141720921Y-96519891D01*
X141955336Y-96323272D01*
X142077028Y-96166716D01*
X142189112Y-95881639D01*
X142207453Y-95683115D01*
X142167203Y-95382968D01*
X142035541Y-95106821D01*
X142024271Y-95091070D01*
X141815744Y-94880847D01*
X141557205Y-94731703D01*
X141493776Y-94705655D01*
X141192942Y-94619312D01*
X140880044Y-94578680D01*
X140681912Y-94572299D01*
X140381293Y-94580645D01*
X140155813Y-94598677D01*
X139850048Y-94639622D01*
X139543584Y-94695081D01*
X139519805Y-94699793D01*
X139519805Y-95510191D01*
G37*
D10*
G36*
X135555207Y-69493034D02*
G01*
X135608696Y-69507689D01*
X135659010Y-69452246D01*
X135704745Y-69476853D01*
X135752555Y-69494011D01*
X135801342Y-69503829D01*
X135852686Y-69507569D01*
X135864419Y-69507689D01*
X135916593Y-69504749D01*
X135973677Y-69493461D01*
X136024734Y-69473706D01*
X136069762Y-69445484D01*
X136108763Y-69408796D01*
X136126003Y-69387277D01*
X136155884Y-69338018D01*
X136176063Y-69290699D01*
X136191948Y-69237679D01*
X136203540Y-69178958D01*
X136209723Y-69127877D01*
X136213157Y-69073147D01*
X136213930Y-69029706D01*
X136212247Y-68975564D01*
X136207198Y-68923964D01*
X136198783Y-68874905D01*
X136184712Y-68820883D01*
X136166059Y-68770320D01*
X136143009Y-68723869D01*
X136115963Y-68682397D01*
X136080159Y-68641097D01*
X136039133Y-68606300D01*
X136028061Y-68598617D01*
X135981029Y-68572331D01*
X135930059Y-68553554D01*
X135882229Y-68543286D01*
X135831384Y-68538768D01*
X135816303Y-68538533D01*
X135765156Y-68539743D01*
X135715702Y-68543371D01*
X135693449Y-68545861D01*
X135643248Y-68553349D01*
X135593044Y-68563338D01*
X135562046Y-68570529D01*
X135562046Y-68757375D01*
X135630190Y-68757375D01*
X135647741Y-68709851D01*
X135672573Y-68665718D01*
X135674153Y-68663586D01*
X135709817Y-68628991D01*
X135734970Y-68615470D01*
X135783538Y-68603438D01*
X135824607Y-68601060D01*
X135873825Y-68606774D01*
X135922580Y-68626042D01*
X135955765Y-68649420D01*
X135991443Y-68688122D01*
X136018767Y-68732773D01*
X136039199Y-68780667D01*
X136043204Y-68792302D01*
X136056882Y-68841883D01*
X136066652Y-68896349D01*
X136071995Y-68948014D01*
X136074345Y-69003419D01*
X136074467Y-69019936D01*
X136073540Y-69069387D01*
X136070114Y-69123584D01*
X136064163Y-69174019D01*
X136054272Y-69227050D01*
X136048089Y-69251723D01*
X136031204Y-69301987D01*
X136007638Y-69349089D01*
X135975875Y-69390268D01*
X135969443Y-69396559D01*
X135926876Y-69426177D01*
X135877577Y-69442125D01*
X135840971Y-69445163D01*
X135790187Y-69441007D01*
X135742969Y-69425379D01*
X135720804Y-69409992D01*
X135692754Y-69368418D01*
X135682336Y-69318844D01*
X135681725Y-69301060D01*
X135681725Y-69260027D01*
X135683174Y-69209662D01*
X135688320Y-69170878D01*
X135711278Y-69128380D01*
X135756372Y-69106181D01*
X135765500Y-69103711D01*
X135765500Y-69070006D01*
X135487796Y-69070006D01*
X135487796Y-69100536D01*
X135525165Y-69119587D01*
X135543972Y-69146454D01*
X135552765Y-69185777D01*
X135555121Y-69236542D01*
X135555207Y-69251967D01*
X135555207Y-69493034D01*
G37*
G36*
X134806114Y-69117145D02*
G01*
X134780835Y-69160061D01*
X134764593Y-69188952D01*
X134742053Y-69232389D01*
X134729911Y-69257829D01*
X134720874Y-69257829D01*
X134723892Y-69205576D01*
X134725635Y-69155395D01*
X134727055Y-69099891D01*
X134727224Y-69092232D01*
X134728271Y-69039213D01*
X134729061Y-68988508D01*
X134729648Y-68933393D01*
X134729900Y-68881301D01*
X134729911Y-68868750D01*
X134729911Y-68725379D01*
X134731055Y-68676378D01*
X134732842Y-68656503D01*
X134742855Y-68623041D01*
X134762639Y-68604235D01*
X134806847Y-68588115D01*
X134806847Y-68554165D01*
X134559673Y-68554165D01*
X134559673Y-68588115D01*
X134603149Y-68603258D01*
X134623909Y-68621088D01*
X134635877Y-68653816D01*
X134639831Y-68705074D01*
X134640029Y-68725623D01*
X134640029Y-69492058D01*
X134725758Y-69492058D01*
X135108487Y-68853607D01*
X135134074Y-68810665D01*
X135159290Y-68766900D01*
X135182446Y-68722932D01*
X135187377Y-68712923D01*
X135199101Y-68712923D01*
X135195850Y-68764695D01*
X135193952Y-68819302D01*
X135192797Y-68871123D01*
X135192262Y-68904409D01*
X135191515Y-68956224D01*
X135190923Y-69007987D01*
X135190485Y-69059699D01*
X135190202Y-69111359D01*
X135190073Y-69162968D01*
X135190064Y-69180159D01*
X135190064Y-69320355D01*
X135188802Y-69370103D01*
X135187133Y-69387766D01*
X135176875Y-69421471D01*
X135155626Y-69441988D01*
X135109708Y-69458352D01*
X135109708Y-69492058D01*
X135360546Y-69492058D01*
X135360546Y-69458352D01*
X135313965Y-69441291D01*
X135303637Y-69433928D01*
X135284586Y-69395826D01*
X135280538Y-69346864D01*
X135280190Y-69320355D01*
X135280190Y-68725868D01*
X135281525Y-68676752D01*
X135283609Y-68656991D01*
X135295089Y-68623286D01*
X135316093Y-68603991D01*
X135360546Y-68587870D01*
X135360546Y-68554165D01*
X135145612Y-68554165D01*
X134806114Y-69117145D01*
G37*
G36*
X134405800Y-68587870D02*
G01*
X134360615Y-68603991D01*
X134339611Y-68622797D01*
X134328375Y-68656258D01*
X134326292Y-68676122D01*
X134324956Y-68725868D01*
X134324956Y-69320355D01*
X134325120Y-69339869D01*
X134328375Y-69389720D01*
X134339366Y-69423425D01*
X134360615Y-69442720D01*
X134405800Y-69458352D01*
X134405800Y-69492058D01*
X134157161Y-69492058D01*
X134129230Y-69491874D01*
X134077603Y-69490409D01*
X134026274Y-69487009D01*
X133973246Y-69480334D01*
X133943682Y-69474457D01*
X133896644Y-69460901D01*
X133850881Y-69441255D01*
X133820137Y-69423242D01*
X133778714Y-69391872D01*
X133742925Y-69355282D01*
X133733614Y-69343813D01*
X133705679Y-69301986D01*
X133682514Y-69254626D01*
X133665745Y-69207270D01*
X133652993Y-69155353D01*
X133645162Y-69105539D01*
X133640629Y-69052275D01*
X133639703Y-69016028D01*
X133779317Y-69016028D01*
X133779627Y-69041479D01*
X133782417Y-69094030D01*
X133788110Y-69143034D01*
X133789801Y-69153842D01*
X133800019Y-69201833D01*
X133815221Y-69248792D01*
X133835038Y-69290852D01*
X133863337Y-69332811D01*
X133888599Y-69359918D01*
X133930015Y-69389964D01*
X133963922Y-69405812D01*
X134012325Y-69420006D01*
X134015176Y-69420592D01*
X134064040Y-69427438D01*
X134115396Y-69429531D01*
X134146298Y-69429269D01*
X134196484Y-69426845D01*
X134196484Y-68619378D01*
X134158837Y-68617541D01*
X134107824Y-68616691D01*
X134082869Y-68617332D01*
X134029986Y-68623463D01*
X133981624Y-68636086D01*
X133933190Y-68657724D01*
X133915387Y-68668734D01*
X133875388Y-68702837D01*
X133844895Y-68741565D01*
X133819618Y-68787905D01*
X133810172Y-68810971D01*
X133795060Y-68861774D01*
X133785969Y-68911335D01*
X133780734Y-68965665D01*
X133779317Y-69016028D01*
X133639703Y-69016028D01*
X133639366Y-69002839D01*
X133640354Y-68960916D01*
X133644742Y-68908518D01*
X133653877Y-68854352D01*
X133667454Y-68805247D01*
X133671079Y-68795003D01*
X133692607Y-68746960D01*
X133719813Y-68704213D01*
X133752695Y-68666761D01*
X133759910Y-68659907D01*
X133799017Y-68628842D01*
X133843181Y-68603120D01*
X133892402Y-68582741D01*
X133897623Y-68580983D01*
X133948754Y-68567672D01*
X134000465Y-68559635D01*
X134050546Y-68555532D01*
X134105137Y-68554165D01*
X134405800Y-68554165D01*
X134405800Y-68587870D01*
G37*
D12*
%TO.C,SWD1*%
X139045625Y-71596250D02*
X139045625Y-72926250D01*
X139045625Y-70326250D02*
X139045625Y-65186250D01*
X137715625Y-72926250D02*
X139045625Y-72926250D01*
X136385625Y-70326250D02*
X139045625Y-70326250D01*
X136385625Y-70326250D02*
X136385625Y-65186250D01*
X136385625Y-65186250D02*
X139045625Y-65186250D01*
%TO.C,SW2*%
X142531250Y-85343750D02*
X142531250Y-89443750D01*
X148131250Y-89143750D02*
X148431250Y-88843750D01*
X148431250Y-88843750D02*
X148731250Y-89143750D01*
X148731250Y-89143750D02*
X148131250Y-89143750D01*
X154331250Y-77243750D02*
X154331250Y-81343750D01*
X154331250Y-85343750D02*
X154331250Y-89443750D01*
X154331250Y-89443750D02*
X142531250Y-89443750D01*
X150431250Y-83343750D02*
G75*
G02*
X146431250Y-83343750I-2000000J0D01*
G01*
X146431250Y-83343750D02*
G75*
G02*
X150431250Y-83343750I2000000J0D01*
G01*
%TO.C,D34*%
X157659375Y-114471250D02*
X157659375Y-118331250D01*
X157659375Y-114471250D02*
X159659375Y-114471250D01*
X159659375Y-114471250D02*
X159659375Y-118331250D01*
%TO.C,D33*%
X150606250Y-85826250D02*
X150606250Y-81966250D01*
X152606250Y-85826250D02*
X150606250Y-85826250D01*
X152606250Y-85826250D02*
X152606250Y-81966250D01*
D10*
%TO.C,MX9*%
X225149689Y-40406653D02*
X225223213Y-40870867D01*
X224667871Y-37364573D02*
X224703851Y-37591742D01*
X224807586Y-41442928D02*
X220298963Y-42157024D01*
X223136954Y-37607047D02*
X224667871Y-37364573D01*
X215828060Y-38764662D02*
X221655421Y-37841698D01*
X214736538Y-44657970D02*
X214774083Y-44895015D01*
X214290700Y-41843058D02*
X214165552Y-41052907D01*
X225223213Y-40870867D02*
G75*
G02*
X224807586Y-41442928I-493845J-78216D01*
G01*
X218320727Y-44333282D02*
G75*
G02*
X220298963Y-42157024I2344897J-144285D01*
G01*
X214165552Y-41052907D02*
G75*
G02*
X215828060Y-38764661I1975382J312865D01*
G01*
D12*
%TO.C,D15*%
X126861263Y-74895375D02*
X127465101Y-71082898D01*
X128836640Y-75208244D02*
X126861263Y-74895375D01*
X128836640Y-75208244D02*
X129440477Y-71395767D01*
D10*
%TO.C,MX36*%
X217626388Y-99460609D02*
X217699912Y-99924823D01*
X217144570Y-96418529D02*
X217180550Y-96645698D01*
X217284285Y-100496884D02*
X212775662Y-101210980D01*
X215613653Y-96661003D02*
X217144570Y-96418529D01*
X208304759Y-97818618D02*
X214132120Y-96895654D01*
X207213237Y-103711926D02*
X207250782Y-103948971D01*
X206767399Y-100897014D02*
X206642251Y-100106863D01*
X217699912Y-99924823D02*
G75*
G02*
X217284285Y-100496884I-493845J-78216D01*
G01*
X210797426Y-103387238D02*
G75*
G02*
X212775662Y-101210980I2344897J-144285D01*
G01*
X206642251Y-100106863D02*
G75*
G02*
X208304759Y-97818617I1975382J312865D01*
G01*
D12*
%TO.C,D10*%
X246974808Y-43179309D02*
X246370971Y-39366832D01*
X248950185Y-42866440D02*
X246974808Y-43179309D01*
X248950185Y-42866440D02*
X248346347Y-39053963D01*
%TO.C,D28*%
X220007900Y-86025369D02*
X219404063Y-82212892D01*
X221983277Y-85712500D02*
X220007900Y-86025369D01*
X221983277Y-85712500D02*
X221379439Y-81900023D01*
%TO.C,C4*%
X145305500Y-57368854D02*
X145305500Y-57153182D01*
X146025500Y-57368854D02*
X146025500Y-57153182D01*
%TO.C,U4*%
X142505625Y-46037500D02*
X142505625Y-46687500D01*
X142505625Y-46037500D02*
X142505625Y-45387500D01*
X145625625Y-46037500D02*
X145625625Y-47712500D01*
X145625625Y-46037500D02*
X145625625Y-45387500D01*
%TO.C,R6*%
X146969375Y-51356492D02*
X146969375Y-51831008D01*
X145924375Y-51356492D02*
X145924375Y-51831008D01*
%TO.C,R1*%
X140476875Y-45600109D02*
X140476875Y-45907391D01*
X139716875Y-45600109D02*
X139716875Y-45907391D01*
D10*
%TO.C,MX20*%
X254189182Y-55094710D02*
X254262706Y-55558924D01*
X253707364Y-52052630D02*
X253743344Y-52279799D01*
X253847079Y-56130985D02*
X249338456Y-56845081D01*
X252176447Y-52295104D02*
X253707364Y-52052630D01*
X244867553Y-53452719D02*
X250694914Y-52529755D01*
X243776031Y-59346027D02*
X243813576Y-59583072D01*
X243330193Y-56531115D02*
X243205045Y-55740964D01*
X254262706Y-55558924D02*
G75*
G02*
X253847079Y-56130985I-493845J-78216D01*
G01*
X247360220Y-59021339D02*
G75*
G02*
X249338456Y-56845081I2344897J-144285D01*
G01*
X243205045Y-55740964D02*
G75*
G02*
X244867553Y-53452718I1975382J312865D01*
G01*
D12*
%TO.C,F1*%
X143873939Y-42185000D02*
X142669811Y-42185000D01*
X143873939Y-40365000D02*
X142669811Y-40365000D01*
D10*
%TO.C,MX31*%
X89241323Y-101282468D02*
X89167799Y-101746681D01*
X89723141Y-98240388D02*
X89687161Y-98467556D01*
X88595737Y-102162308D02*
X84087114Y-101448212D01*
X88192224Y-97997914D02*
X89723141Y-98240388D01*
X80883330Y-96840299D02*
X86710692Y-97763262D01*
X78024099Y-102107869D02*
X77986555Y-102344914D01*
X78469937Y-99292958D02*
X78595085Y-98502807D01*
X89167799Y-101746681D02*
G75*
G02*
X88595737Y-102162308I-493845J78218D01*
G01*
X81533199Y-102906648D02*
G75*
G02*
X84087114Y-101448213I2185543J-861837D01*
G01*
X78595085Y-98502807D02*
G75*
G02*
X80883330Y-96840298I1975381J-312874D01*
G01*
D12*
%TO.C,D23*%
X81546395Y-87005665D02*
X82150233Y-83193188D01*
X83521772Y-87318534D02*
X81546395Y-87005665D01*
X83521772Y-87318534D02*
X84125609Y-83506057D01*
%TO.C,R9*%
X156125516Y-46023750D02*
X155818234Y-46023750D01*
X156125516Y-45263750D02*
X155818234Y-45263750D01*
%TO.C,D29*%
X238823364Y-83045293D02*
X238219527Y-79232816D01*
X240798741Y-82732424D02*
X238823364Y-83045293D01*
X240798741Y-82732424D02*
X240194903Y-78919947D01*
%TO.C,R3*%
X146699875Y-39211839D02*
X146699875Y-39519121D01*
X145939875Y-39211839D02*
X145939875Y-39519121D01*
%TO.C,D20*%
X252494972Y-61592462D02*
X251891135Y-57779985D01*
X254470349Y-61279593D02*
X252494972Y-61592462D01*
X254470349Y-61279593D02*
X253866511Y-57467116D01*
%TO.C,R4*%
X151652875Y-39211839D02*
X151652875Y-39519121D01*
X150892875Y-39211839D02*
X150892875Y-39519121D01*
%TO.C,D32*%
X116197244Y-111781281D02*
X116801082Y-107968804D01*
X118172621Y-112094150D02*
X116197244Y-111781281D01*
X118172621Y-112094150D02*
X118776458Y-108281673D01*
%TO.C,D18*%
X212323958Y-67954926D02*
X211720121Y-64142449D01*
X214299335Y-67642057D02*
X212323958Y-67954926D01*
X214299335Y-67642057D02*
X213695497Y-63829580D01*
%TO.C,D9*%
X223455479Y-46904405D02*
X222851642Y-43091928D01*
X225430856Y-46591536D02*
X223455479Y-46904405D01*
X225430856Y-46591536D02*
X224827018Y-42779059D01*
D10*
%TO.C,MX15*%
X130480469Y-69239186D02*
X130406945Y-69703399D01*
X130962287Y-66197106D02*
X130926307Y-66424274D01*
X129834883Y-70119026D02*
X125326260Y-69404930D01*
X129431370Y-65954632D02*
X130962287Y-66197106D01*
X122122476Y-64797017D02*
X127949838Y-65719980D01*
X119263245Y-70064587D02*
X119225701Y-70301632D01*
X119709083Y-67249676D02*
X119834231Y-66459525D01*
X130406945Y-69703399D02*
G75*
G02*
X129834883Y-70119026I-493845J78218D01*
G01*
X122772345Y-70863366D02*
G75*
G02*
X125326260Y-69404931I2185543J-861837D01*
G01*
X119834231Y-66459525D02*
G75*
G02*
X122122476Y-64797016I1975381J-312874D01*
G01*
%TO.C,MX5*%
X138164411Y-51168742D02*
X138090887Y-51632955D01*
X138646229Y-48126662D02*
X138610249Y-48353830D01*
X137518825Y-52048582D02*
X133010202Y-51334486D01*
X137115312Y-47884188D02*
X138646229Y-48126662D01*
X129806418Y-46726573D02*
X135633780Y-47649536D01*
X126947187Y-51994143D02*
X126909643Y-52231188D01*
X127393025Y-49179232D02*
X127518173Y-48389081D01*
X138090887Y-51632955D02*
G75*
G02*
X137518825Y-52048582I-493845J78218D01*
G01*
X130456287Y-52792922D02*
G75*
G02*
X133010202Y-51334487I2185543J-861837D01*
G01*
X127518173Y-48389081D02*
G75*
G02*
X129806418Y-46726572I1975381J-312874D01*
G01*
D12*
%TO.C,C11*%
X141456060Y-66599200D02*
X141303557Y-66751703D01*
X140946943Y-66090083D02*
X140794440Y-66242586D01*
%TO.C,D2*%
X78098816Y-47884701D02*
X78702654Y-44072224D01*
X80074193Y-48197570D02*
X78098816Y-47884701D01*
X80074193Y-48197570D02*
X80678030Y-44385093D01*
%TO.C,C8*%
X144289500Y-57368854D02*
X144289500Y-57153182D01*
X145009500Y-57368854D02*
X145009500Y-57153182D01*
%TO.C,D1*%
X54579488Y-44159606D02*
X55183326Y-40347129D01*
X56554865Y-44472475D02*
X54579488Y-44159606D01*
X56554865Y-44472475D02*
X57158702Y-40659998D01*
%TO.C,SW4*%
X164881583Y-41444617D02*
X165194452Y-43419994D01*
X164360744Y-44868245D02*
X163986680Y-45383100D01*
X163641146Y-40324878D02*
X163126291Y-39950814D01*
X163986680Y-45383100D02*
X161517459Y-45774186D01*
X163126291Y-39950814D02*
X160657070Y-40341900D01*
X161002604Y-45400122D02*
X161517459Y-45774186D01*
X160283006Y-40856755D02*
X160657070Y-40341900D01*
X159449298Y-42305006D02*
X159762167Y-44280383D01*
D10*
%TO.C,MX29*%
X240517574Y-76547541D02*
X240591098Y-77011755D01*
X240035756Y-73505461D02*
X240071736Y-73732630D01*
X240175471Y-77583816D02*
X235666848Y-78297912D01*
X238504839Y-73747935D02*
X240035756Y-73505461D01*
X231195945Y-74905550D02*
X237023306Y-73982586D01*
X230104423Y-80798858D02*
X230141968Y-81035903D01*
X229658585Y-77983946D02*
X229533437Y-77193795D01*
X240591098Y-77011755D02*
G75*
G02*
X240175471Y-77583816I-493845J-78216D01*
G01*
X233688612Y-80474170D02*
G75*
G02*
X235666848Y-78297912I2344897J-144285D01*
G01*
X229533437Y-77193795D02*
G75*
G02*
X231195945Y-74905549I1975382J312865D01*
G01*
D12*
%TO.C,D11*%
X49247478Y-62602559D02*
X49851316Y-58790082D01*
X51222855Y-62915428D02*
X49247478Y-62602559D01*
X51222855Y-62915428D02*
X51826692Y-59102951D01*
%TO.C,D24*%
X100361857Y-89985742D02*
X100965695Y-86173265D01*
X102337234Y-90298611D02*
X100361857Y-89985742D01*
X102337234Y-90298611D02*
X102941071Y-86486134D01*
%TO.C,C17*%
X143697711Y-50083375D02*
X143482039Y-50083375D01*
X143697711Y-49363375D02*
X143482039Y-49363375D01*
%TO.C,D13*%
X89230337Y-68935222D02*
X89834175Y-65122745D01*
X91205714Y-69248091D02*
X89230337Y-68935222D01*
X91205714Y-69248091D02*
X91809551Y-65435614D01*
%TO.C,C13*%
X148071250Y-55175086D02*
X148071250Y-54959414D01*
X148791250Y-55175086D02*
X148791250Y-54959414D01*
%TO.C,D4*%
X115729742Y-53844854D02*
X116333580Y-50032377D01*
X117705119Y-54157723D02*
X115729742Y-53844854D01*
X117705119Y-54157723D02*
X118308956Y-50345246D01*
%TO.C,C16*%
X143195789Y-42883500D02*
X143411461Y-42883500D01*
X143195789Y-43603500D02*
X143411461Y-43603500D01*
%TO.C,C10*%
X147957984Y-70221194D02*
X147957984Y-70436866D01*
X147237984Y-70221194D02*
X147237984Y-70436866D01*
%TO.C,D12*%
X70414874Y-65955145D02*
X71018712Y-62142668D01*
X72390251Y-66268014D02*
X70414874Y-65955145D01*
X72390251Y-66268014D02*
X72994088Y-62455537D01*
%TO.C,D7*%
X185824553Y-52864558D02*
X185220716Y-49052081D01*
X187799930Y-52551689D02*
X185824553Y-52864558D01*
X187799930Y-52551689D02*
X187196092Y-48739212D01*
%TO.C,C15*%
X153306500Y-59908854D02*
X153306500Y-59693182D01*
X154026500Y-59908854D02*
X154026500Y-59693182D01*
%TO.C,D16*%
X174693033Y-73915079D02*
X174089196Y-70102602D01*
X176668410Y-73602210D02*
X174693033Y-73915079D01*
X176668410Y-73602210D02*
X176064572Y-69789733D01*
%TO.C,U2*%
X147268125Y-40873605D02*
X147268125Y-41673605D01*
X147268125Y-40873605D02*
X147268125Y-40073605D01*
X150388125Y-40873605D02*
X150388125Y-42673605D01*
X150388125Y-40873605D02*
X150388125Y-40073605D01*
D10*
%TO.C,MX26*%
X184071185Y-85487771D02*
X184144709Y-85951985D01*
X183589367Y-82445691D02*
X183625347Y-82672860D01*
X183729082Y-86524046D02*
X179220459Y-87238142D01*
X182058450Y-82688165D02*
X183589367Y-82445691D01*
X174749556Y-83845780D02*
X180576917Y-82922816D01*
X173658034Y-89739088D02*
X173695579Y-89976133D01*
X173212196Y-86924176D02*
X173087048Y-86134025D01*
X184144709Y-85951985D02*
G75*
G02*
X183729082Y-86524046I-493845J-78216D01*
G01*
X177242223Y-89414400D02*
G75*
G02*
X179220459Y-87238142I2344897J-144285D01*
G01*
X173087048Y-86134025D02*
G75*
G02*
X174749556Y-83845779I1975382J312865D01*
G01*
D12*
%TO.C,C6*%
X146964234Y-70221194D02*
X146964234Y-70436866D01*
X146244234Y-70221194D02*
X146244234Y-70436866D01*
%TO.C,D6*%
X167009091Y-55844635D02*
X166405254Y-52032158D01*
X168984468Y-55531766D02*
X167009091Y-55844635D01*
X168984468Y-55531766D02*
X168380630Y-51719289D01*
D10*
%TO.C,MX21*%
X47534675Y-75389324D02*
X47461151Y-75853537D01*
X48016493Y-72347244D02*
X47980513Y-72574412D01*
X46889089Y-76269164D02*
X42380466Y-75555068D01*
X46485576Y-72104770D02*
X48016493Y-72347244D01*
X39176682Y-70947155D02*
X45004044Y-71870118D01*
X36317451Y-76214725D02*
X36279907Y-76451770D01*
X36763289Y-73399814D02*
X36888437Y-72609663D01*
X47461151Y-75853537D02*
G75*
G02*
X46889089Y-76269164I-493845J78218D01*
G01*
X39826551Y-77013504D02*
G75*
G02*
X42380466Y-75555069I2185543J-861837D01*
G01*
X36888437Y-72609663D02*
G75*
G02*
X39176682Y-70947154I1975381J-312874D01*
G01*
%TO.C,MX25*%
X122796526Y-87309630D02*
X122723002Y-87773843D01*
X123278344Y-84267550D02*
X123242364Y-84494718D01*
X122150940Y-88189470D02*
X117642317Y-87475374D01*
X121747427Y-84025076D02*
X123278344Y-84267550D01*
X114438533Y-82867461D02*
X120265895Y-83790424D01*
X111579302Y-88135031D02*
X111541758Y-88372076D01*
X112025140Y-85320120D02*
X112150288Y-84529969D01*
X122723002Y-87773843D02*
G75*
G02*
X122150940Y-88189470I-493845J78218D01*
G01*
X115088402Y-88933810D02*
G75*
G02*
X117642317Y-87475375I2185543J-861837D01*
G01*
X112150288Y-84529969D02*
G75*
G02*
X114438533Y-82867460I1975381J-312874D01*
G01*
%TO.C,MX3*%
X100533485Y-45208589D02*
X100459961Y-45672802D01*
X101015303Y-42166509D02*
X100979323Y-42393677D01*
X99887899Y-46088429D02*
X95379276Y-45374333D01*
X99484386Y-41924035D02*
X101015303Y-42166509D01*
X92175492Y-40766420D02*
X98002854Y-41689383D01*
X89316261Y-46033990D02*
X89278717Y-46271035D01*
X89762099Y-43219079D02*
X89887247Y-42428928D01*
X100459961Y-45672802D02*
G75*
G02*
X99887899Y-46088429I-493845J78218D01*
G01*
X92825361Y-46832769D02*
G75*
G02*
X95379276Y-45374334I2185543J-861837D01*
G01*
X89887247Y-42428928D02*
G75*
G02*
X92175492Y-40766419I1975381J-312874D01*
G01*
%TO.C,MX10*%
X248669018Y-36681558D02*
X248742542Y-37145772D01*
X248187200Y-33639478D02*
X248223180Y-33866647D01*
X248326915Y-37717833D02*
X243818292Y-38431929D01*
X246656283Y-33881952D02*
X248187200Y-33639478D01*
X239347389Y-35039567D02*
X245174750Y-34116603D01*
X238255867Y-40932875D02*
X238293412Y-41169920D01*
X237810029Y-38117963D02*
X237684881Y-37327812D01*
X248742542Y-37145772D02*
G75*
G02*
X248326915Y-37717833I-493845J-78216D01*
G01*
X241840056Y-40608187D02*
G75*
G02*
X243818292Y-38431929I2344897J-144285D01*
G01*
X237684881Y-37327812D02*
G75*
G02*
X239347389Y-35039566I1975382J312865D01*
G01*
%TO.C,MX35*%
X187051262Y-104303234D02*
X187124786Y-104767448D01*
X186569444Y-101261154D02*
X186605424Y-101488323D01*
X186709159Y-105339509D02*
X182200536Y-106053605D01*
X185038527Y-101503628D02*
X186569444Y-101261154D01*
X177729633Y-102661243D02*
X183556994Y-101738279D01*
X176638111Y-108554551D02*
X176675656Y-108791596D01*
X176192273Y-105739639D02*
X176067125Y-104949488D01*
X187124786Y-104767448D02*
G75*
G02*
X186709159Y-105339509I-493845J-78216D01*
G01*
X180222300Y-108229863D02*
G75*
G02*
X182200536Y-106053605I2344897J-144285D01*
G01*
X176067125Y-104949488D02*
G75*
G02*
X177729633Y-102661242I1975382J312865D01*
G01*
D12*
%TO.C,D27*%
X201192438Y-89005446D02*
X200588601Y-85192969D01*
X203167815Y-88692577D02*
X201192438Y-89005446D01*
X203167815Y-88692577D02*
X202563977Y-84880100D01*
%TO.C,D21*%
X43915469Y-81045512D02*
X44519307Y-77233035D01*
X45890846Y-81358381D02*
X43915469Y-81045512D01*
X45890846Y-81358381D02*
X46494683Y-77545904D01*
D10*
%TO.C,MX23*%
X85165600Y-81349477D02*
X85092076Y-81813690D01*
X85647418Y-78307397D02*
X85611438Y-78534565D01*
X84520014Y-82229317D02*
X80011391Y-81515221D01*
X84116501Y-78064923D02*
X85647418Y-78307397D01*
X76807607Y-76907308D02*
X82634969Y-77830271D01*
X73948376Y-82174878D02*
X73910832Y-82411923D01*
X74394214Y-79359967D02*
X74519362Y-78569816D01*
X85092076Y-81813690D02*
G75*
G02*
X84520014Y-82229317I-493845J78218D01*
G01*
X77457476Y-82973657D02*
G75*
G02*
X80011391Y-81515222I2185543J-861837D01*
G01*
X74519362Y-78569816D02*
G75*
G02*
X76807607Y-76907307I1975381J-312874D01*
G01*
%TO.C,MX14*%
X111665006Y-66259110D02*
X111591482Y-66723323D01*
X112146824Y-63217030D02*
X112110844Y-63444198D01*
X111019420Y-67138950D02*
X106510797Y-66424854D01*
X110615907Y-62974556D02*
X112146824Y-63217030D01*
X103307013Y-61816941D02*
X109134375Y-62739904D01*
X100447782Y-67084511D02*
X100410238Y-67321556D01*
X100893620Y-64269600D02*
X101018768Y-63479449D01*
X111591482Y-66723323D02*
G75*
G02*
X111019420Y-67138950I-493845J78218D01*
G01*
X103956882Y-67883290D02*
G75*
G02*
X106510797Y-66424855I2185543J-861837D01*
G01*
X101018768Y-63479449D02*
G75*
G02*
X103307013Y-61816940I1975381J-312874D01*
G01*
%TO.C,MX33*%
X153296074Y-79673530D02*
X153296074Y-80143530D01*
X153296074Y-76593530D02*
X153296074Y-76823530D01*
X152796074Y-80643530D02*
X148231250Y-80643530D01*
X151746074Y-76593530D02*
X153296074Y-76593530D01*
X144346074Y-76593530D02*
X150246074Y-76593530D01*
X142346074Y-82243530D02*
X142346074Y-82483530D01*
X142346074Y-79393530D02*
X142346074Y-78593530D01*
X153296074Y-80143530D02*
G75*
G02*
X152796074Y-80643530I-500001J1D01*
G01*
X145936928Y-82483530D02*
G75*
G02*
X148231250Y-80643530I2293456J-509332D01*
G01*
X142346074Y-78593530D02*
G75*
G02*
X144346074Y-76593530I2000005J-5D01*
G01*
D12*
%TO.C,D22*%
X62730932Y-84025589D02*
X63334770Y-80213112D01*
X64706309Y-84338458D02*
X62730932Y-84025589D01*
X64706309Y-84338458D02*
X65310146Y-80525981D01*
D10*
%TO.C,MX2*%
X81718022Y-42228513D02*
X81644498Y-42692726D01*
X82199840Y-39186433D02*
X82163860Y-39413601D01*
X81072436Y-43108353D02*
X76563813Y-42394257D01*
X80668923Y-38943959D02*
X82199840Y-39186433D01*
X73360029Y-37786344D02*
X79187391Y-38709307D01*
X70500798Y-43053914D02*
X70463254Y-43290959D01*
X70946636Y-40239003D02*
X71071784Y-39448852D01*
X81644498Y-42692726D02*
G75*
G02*
X81072436Y-43108353I-493845J78218D01*
G01*
X74009898Y-43852693D02*
G75*
G02*
X76563813Y-42394258I2185543J-861837D01*
G01*
X71071784Y-39448852D02*
G75*
G02*
X73360029Y-37786343I1975381J-312874D01*
G01*
%TO.C,MX6*%
X168703301Y-49346883D02*
X168776825Y-49811097D01*
X168221483Y-46304803D02*
X168257463Y-46531972D01*
X168361198Y-50383158D02*
X163852575Y-51097254D01*
X166690566Y-46547277D02*
X168221483Y-46304803D01*
X159381672Y-47704892D02*
X165209033Y-46781928D01*
X158290150Y-53598200D02*
X158327695Y-53835245D01*
X157844312Y-50783288D02*
X157719164Y-49993137D01*
X168776825Y-49811097D02*
G75*
G02*
X168361198Y-50383158I-493845J-78216D01*
G01*
X161874339Y-53273512D02*
G75*
G02*
X163852575Y-51097254I2344897J-144285D01*
G01*
X157719164Y-49993137D02*
G75*
G02*
X159381672Y-47704891I1975382J312865D01*
G01*
D12*
%TO.C,C5*%
X149595250Y-55175086D02*
X149595250Y-54959414D01*
X150315250Y-55175086D02*
X150315250Y-54959414D01*
%TO.C,D17*%
X193508496Y-70935002D02*
X192904659Y-67122525D01*
X195483873Y-70622133D02*
X193508496Y-70935002D01*
X195483873Y-70622133D02*
X194880035Y-66809656D01*
%TO.C,D19*%
X231327576Y-64945048D02*
X230723739Y-61132571D01*
X233302953Y-64632179D02*
X231327576Y-64945048D01*
X233302953Y-64632179D02*
X232699115Y-60819702D01*
%TO.C,D26*%
X182376975Y-91985522D02*
X181773138Y-88173045D01*
X184352352Y-91672653D02*
X182376975Y-91985522D01*
X184352352Y-91672653D02*
X183748514Y-87860176D01*
%TO.C,C2*%
X151403461Y-70178250D02*
X151187789Y-70178250D01*
X151403461Y-69458250D02*
X151187789Y-69458250D01*
%TO.C,C9*%
X142062086Y-60399250D02*
X141846414Y-60399250D01*
X142062086Y-59679250D02*
X141846414Y-59679250D01*
%TO.C,D25*%
X119177320Y-92965818D02*
X119781158Y-89153341D01*
X121152697Y-93278687D02*
X119177320Y-92965818D01*
X121152697Y-93278687D02*
X121756534Y-89466210D01*
%TO.C,C7*%
X143482039Y-48347375D02*
X143697711Y-48347375D01*
X143482039Y-49067375D02*
X143697711Y-49067375D01*
%TO.C,C3*%
X147272750Y-72354854D02*
X147272750Y-72139182D01*
X147992750Y-72354854D02*
X147992750Y-72139182D01*
%TO.C,D3*%
X96914279Y-50864778D02*
X97518117Y-47052301D01*
X98889656Y-51177647D02*
X96914279Y-50864778D01*
X98889656Y-51177647D02*
X99493493Y-47365170D01*
%TO.C,R5*%
X148620375Y-51356492D02*
X148620375Y-51831008D01*
X147575375Y-51356492D02*
X147575375Y-51831008D01*
D10*
%TO.C,MX19*%
X233021786Y-58447296D02*
X233095310Y-58911510D01*
X232539968Y-55405216D02*
X232575948Y-55632385D01*
X232679683Y-59483571D02*
X228171060Y-60197667D01*
X231009051Y-55647690D02*
X232539968Y-55405216D01*
X223700157Y-56805305D02*
X229527518Y-55882341D01*
X222608635Y-62698613D02*
X222646180Y-62935658D01*
X222162797Y-59883701D02*
X222037649Y-59093550D01*
X233095310Y-58911510D02*
G75*
G02*
X232679683Y-59483571I-493845J-78216D01*
G01*
X226192824Y-62373925D02*
G75*
G02*
X228171060Y-60197667I2344897J-144285D01*
G01*
X222037649Y-59093550D02*
G75*
G02*
X223700157Y-56805304I1975382J312865D01*
G01*
D12*
%TO.C,D5*%
X134545205Y-56824931D02*
X135149043Y-53012454D01*
X136520582Y-57137800D02*
X134545205Y-56824931D01*
X136520582Y-57137800D02*
X137124419Y-53325323D01*
%TO.C,D35*%
X185357052Y-110800985D02*
X184753215Y-106988508D01*
X187332429Y-110488116D02*
X185357052Y-110800985D01*
X187332429Y-110488116D02*
X186728591Y-106675639D01*
D10*
%TO.C,MX24*%
X103981063Y-84329553D02*
X103907539Y-84793766D01*
X104462881Y-81287473D02*
X104426901Y-81514641D01*
X103335477Y-85209393D02*
X98826854Y-84495297D01*
X102931964Y-81044999D02*
X104462881Y-81287473D01*
X95623070Y-79887384D02*
X101450432Y-80810347D01*
X92763839Y-85154954D02*
X92726295Y-85391999D01*
X93209677Y-82340043D02*
X93334825Y-81549892D01*
X103907539Y-84793766D02*
G75*
G02*
X103335477Y-85209393I-493845J78218D01*
G01*
X96272939Y-85953733D02*
G75*
G02*
X98826854Y-84495298I2185543J-861837D01*
G01*
X93334825Y-81549892D02*
G75*
G02*
X95623070Y-79887383I1975381J-312874D01*
G01*
%TO.C,MX18*%
X214018168Y-61457174D02*
X214091692Y-61921388D01*
X213536350Y-58415094D02*
X213572330Y-58642263D01*
X213676065Y-62493449D02*
X209167442Y-63207545D01*
X212005433Y-58657568D02*
X213536350Y-58415094D01*
X204696539Y-59815183D02*
X210523900Y-58892219D01*
X203605017Y-65708491D02*
X203642562Y-65945536D01*
X203159179Y-62893579D02*
X203034031Y-62103428D01*
X214091692Y-61921388D02*
G75*
G02*
X213676065Y-62493449I-493845J-78216D01*
G01*
X207189206Y-65383803D02*
G75*
G02*
X209167442Y-63207545I2344897J-144285D01*
G01*
X203034031Y-62103428D02*
G75*
G02*
X204696539Y-59815182I1975382J312865D01*
G01*
%TO.C,MX30*%
X259333037Y-73567464D02*
X259406561Y-74031678D01*
X258851219Y-70525384D02*
X258887199Y-70752553D01*
X258990934Y-74603739D02*
X254482311Y-75317835D01*
X257320302Y-70767858D02*
X258851219Y-70525384D01*
X250011408Y-71925473D02*
X255838769Y-71002509D01*
X248919886Y-77818781D02*
X248957431Y-78055826D01*
X248474048Y-75003869D02*
X248348900Y-74213718D01*
X259406561Y-74031678D02*
G75*
G02*
X258990934Y-74603739I-493845J-78216D01*
G01*
X252504075Y-77494093D02*
G75*
G02*
X254482311Y-75317835I2344897J-144285D01*
G01*
X248348900Y-74213718D02*
G75*
G02*
X250011408Y-71925472I1975382J312865D01*
G01*
D15*
%TO.C,G\u002A\u002A\u002A*%
G36*
X143727749Y-105654750D02*
G01*
X143499756Y-105882750D01*
X143345756Y-105882750D01*
X143191756Y-105882750D01*
X143419749Y-105654750D01*
X143647743Y-105426750D01*
X143801743Y-105426750D01*
X143955743Y-105426750D01*
X143727749Y-105654750D01*
G37*
G36*
X143335749Y-105540750D02*
G01*
X143221763Y-105654750D01*
X143066763Y-105654750D01*
X142911763Y-105654750D01*
X143025749Y-105540750D01*
X143139736Y-105426750D01*
X143294736Y-105426750D01*
X143449736Y-105426750D01*
X143335749Y-105540750D01*
G37*
G36*
X144651248Y-104870248D02*
G01*
X145042750Y-105261746D01*
X145042750Y-105654746D01*
X145042749Y-106047746D01*
X144651251Y-106439248D01*
X144259753Y-106830750D01*
X143769749Y-106830750D01*
X143279746Y-106830750D01*
X142887749Y-106438750D01*
X142495753Y-106046750D01*
X143278755Y-106046750D01*
X144061757Y-106046750D01*
X144257749Y-105850750D01*
X144453742Y-105654750D01*
X144257753Y-105458753D01*
X144061764Y-105262756D01*
X143477853Y-105262253D01*
X142893943Y-105261750D01*
X142912799Y-105239750D01*
X142919755Y-105231830D01*
X142932405Y-105218064D01*
X142946872Y-105202907D01*
X142962421Y-105187093D01*
X142978319Y-105171355D01*
X142993830Y-105156429D01*
X143008218Y-105143047D01*
X143020749Y-105131944D01*
X143045185Y-105111708D01*
X143095218Y-105074176D01*
X143147603Y-105039879D01*
X143202338Y-105008819D01*
X143259421Y-104980995D01*
X143318852Y-104956409D01*
X143380629Y-104935060D01*
X143444749Y-104916951D01*
X143451940Y-104915084D01*
X143460980Y-104912560D01*
X143467842Y-104910424D01*
X143471955Y-104908857D01*
X143472749Y-104908040D01*
X143470394Y-104907347D01*
X143464681Y-104905796D01*
X143456381Y-104903601D01*
X143446176Y-104900942D01*
X143434749Y-104898001D01*
X143419671Y-104894024D01*
X143362869Y-104876905D01*
X143307206Y-104856768D01*
X143253083Y-104833805D01*
X143200900Y-104808209D01*
X143151057Y-104780173D01*
X143103953Y-104749889D01*
X143059989Y-104717550D01*
X143048229Y-104708283D01*
X143162983Y-104593516D01*
X143277736Y-104478750D01*
X143768741Y-104478750D01*
X144259746Y-104478750D01*
X144651248Y-104870248D01*
G37*
G36*
X142581737Y-104275750D02*
G01*
X142582015Y-104276941D01*
X142583348Y-104282276D01*
X142585407Y-104290264D01*
X142587968Y-104300044D01*
X142590808Y-104310750D01*
X142602060Y-104349063D01*
X142621062Y-104401946D01*
X142643546Y-104453169D01*
X142669363Y-104502582D01*
X142698361Y-104550036D01*
X142730390Y-104595381D01*
X142765297Y-104638466D01*
X142802933Y-104679142D01*
X142843147Y-104717259D01*
X142885787Y-104752666D01*
X142930702Y-104785215D01*
X142977742Y-104814756D01*
X143026755Y-104841137D01*
X143077591Y-104864211D01*
X143130098Y-104883825D01*
X143184126Y-104899832D01*
X143187610Y-104900734D01*
X143197442Y-104903304D01*
X143205769Y-104905513D01*
X143211802Y-104907149D01*
X143214749Y-104908003D01*
X143214922Y-104908165D01*
X143213170Y-104909241D01*
X143208320Y-104910993D01*
X143200978Y-104913217D01*
X143191749Y-104915710D01*
X143138971Y-104931098D01*
X143085154Y-104950734D01*
X143033135Y-104973807D01*
X142983057Y-105000190D01*
X142935060Y-105029761D01*
X142889287Y-105062394D01*
X142845879Y-105097964D01*
X142804978Y-105136348D01*
X142766724Y-105177420D01*
X142731260Y-105221056D01*
X142698728Y-105267132D01*
X142669268Y-105315522D01*
X142643022Y-105366103D01*
X142620133Y-105418750D01*
X142616225Y-105428803D01*
X142606312Y-105456017D01*
X142597577Y-105482956D01*
X142589574Y-105511044D01*
X142581862Y-105541704D01*
X142581411Y-105543090D01*
X142580602Y-105543445D01*
X142579477Y-105541477D01*
X142577888Y-105536793D01*
X142575685Y-105528999D01*
X142572717Y-105517704D01*
X142572643Y-105517419D01*
X142556736Y-105463389D01*
X142537304Y-105410603D01*
X142514549Y-105359558D01*
X142488673Y-105310750D01*
X142464170Y-105270813D01*
X142431373Y-105224085D01*
X142395661Y-105179869D01*
X142357206Y-105138296D01*
X142316177Y-105099497D01*
X142272745Y-105063600D01*
X142227081Y-105030736D01*
X142179355Y-105001036D01*
X142129739Y-104974628D01*
X142078402Y-104951643D01*
X142025515Y-104932212D01*
X141971249Y-104916463D01*
X141968319Y-104915717D01*
X141959067Y-104913272D01*
X141951591Y-104911161D01*
X141946594Y-104909589D01*
X141944779Y-104908760D01*
X141944779Y-104908758D01*
X141946631Y-104907920D01*
X141951617Y-104906391D01*
X141958980Y-104904389D01*
X141967961Y-104902130D01*
X141983076Y-104898209D01*
X142005219Y-104891781D01*
X142028481Y-104884366D01*
X142051459Y-104876414D01*
X142072749Y-104868378D01*
X142106570Y-104854016D01*
X142156096Y-104829539D01*
X142204303Y-104801599D01*
X142250761Y-104770490D01*
X142295041Y-104736508D01*
X142336712Y-104699946D01*
X142375346Y-104661099D01*
X142386533Y-104648788D01*
X142423533Y-104604285D01*
X142457261Y-104557543D01*
X142487633Y-104508719D01*
X142514562Y-104457970D01*
X142537964Y-104405454D01*
X142557752Y-104351328D01*
X142573840Y-104295750D01*
X142574701Y-104292360D01*
X142577153Y-104283058D01*
X142578925Y-104277144D01*
X142580175Y-104274220D01*
X142581060Y-104273888D01*
X142581737Y-104275750D01*
G37*
D12*
%TO.C,U3*%
X152041250Y-67110000D02*
X152041250Y-66460000D01*
X151391250Y-67110000D02*
X152041250Y-67110000D01*
X151391250Y-59890000D02*
X152041250Y-59890000D01*
X145471250Y-67110000D02*
X144821250Y-67110000D01*
X145471250Y-59890000D02*
X144821250Y-59890000D01*
X144821250Y-67110000D02*
X144821250Y-66460000D01*
X144821250Y-59890000D02*
X144821250Y-60540000D01*
D10*
%TO.C,MX16*%
X176387243Y-67417327D02*
X176460767Y-67881541D01*
X175905425Y-64375247D02*
X175941405Y-64602416D01*
X176045140Y-68453602D02*
X171536517Y-69167698D01*
X174374508Y-64617721D02*
X175905425Y-64375247D01*
X167065614Y-65775336D02*
X172892975Y-64852372D01*
X165974092Y-71668644D02*
X166011637Y-71905689D01*
X165528254Y-68853732D02*
X165403106Y-68063581D01*
X176460767Y-67881541D02*
G75*
G02*
X176045140Y-68453602I-493845J-78216D01*
G01*
X169558281Y-71343956D02*
G75*
G02*
X171536517Y-69167698I2344897J-144285D01*
G01*
X165403106Y-68063581D02*
G75*
G02*
X167065614Y-65775335I1975382J312865D01*
G01*
D12*
%TO.C,D8*%
X204640015Y-49884482D02*
X204036178Y-46072005D01*
X206615392Y-49571613D02*
X204640015Y-49884482D01*
X206615392Y-49571613D02*
X206011554Y-45759136D01*
D10*
%TO.C,MX8*%
X206334226Y-43386730D02*
X206407750Y-43850944D01*
X205852408Y-40344650D02*
X205888388Y-40571819D01*
X205992123Y-44423005D02*
X201483500Y-45137101D01*
X204321491Y-40587124D02*
X205852408Y-40344650D01*
X197012597Y-41744739D02*
X202839958Y-40821775D01*
X195921075Y-47638047D02*
X195958620Y-47875092D01*
X195475237Y-44823135D02*
X195350089Y-44032984D01*
X206407750Y-43850944D02*
G75*
G02*
X205992123Y-44423005I-493845J-78216D01*
G01*
X199505264Y-47313359D02*
G75*
G02*
X201483500Y-45137101I2344897J-144285D01*
G01*
X195350089Y-44032984D02*
G75*
G02*
X197012597Y-41744738I1975382J312865D01*
G01*
D12*
%TO.C,D31*%
X85622117Y-106938657D02*
X86225955Y-103126180D01*
X87597494Y-107251526D02*
X85622117Y-106938657D01*
X87597494Y-107251526D02*
X88201331Y-103439049D01*
D10*
%TO.C,MX32*%
X119816450Y-106125093D02*
X119742926Y-106589306D01*
X120298268Y-103083013D02*
X120262288Y-103310181D01*
X119170864Y-107004933D02*
X114662241Y-106290837D01*
X118767351Y-102840539D02*
X120298268Y-103083013D01*
X111458457Y-101682924D02*
X117285819Y-102605887D01*
X108599226Y-106950494D02*
X108561682Y-107187539D01*
X109045064Y-104135583D02*
X109170212Y-103345432D01*
X119742926Y-106589306D02*
G75*
G02*
X119170864Y-107004933I-493845J78218D01*
G01*
X112108326Y-107749273D02*
G75*
G02*
X114662241Y-106290838I2185543J-861837D01*
G01*
X109170212Y-103345432D02*
G75*
G02*
X111458457Y-101682923I1975381J-312874D01*
G01*
D12*
%TO.C,C18*%
X153004711Y-46003750D02*
X152789039Y-46003750D01*
X153004711Y-45283750D02*
X152789039Y-45283750D01*
%TO.C,Y1*%
X148415625Y-70581250D02*
X152415625Y-70581250D01*
X148415625Y-73881250D02*
X148415625Y-70581250D01*
D10*
%TO.C,MX4*%
X119348948Y-48188666D02*
X119275424Y-48652879D01*
X119830766Y-45146586D02*
X119794786Y-45373754D01*
X118703362Y-49068506D02*
X114194739Y-48354410D01*
X118299849Y-44904112D02*
X119830766Y-45146586D01*
X110990955Y-43746497D02*
X116818317Y-44669460D01*
X108131724Y-49014067D02*
X108094180Y-49251112D01*
X108577562Y-46199156D02*
X108702710Y-45409005D01*
X119275424Y-48652879D02*
G75*
G02*
X118703362Y-49068506I-493845J78218D01*
G01*
X111640824Y-49812846D02*
G75*
G02*
X114194739Y-48354411I2185543J-861837D01*
G01*
X108702710Y-45409005D02*
G75*
G02*
X110990955Y-43746496I1975381J-312874D01*
G01*
%TO.C,MX17*%
X195202706Y-64437250D02*
X195276230Y-64901464D01*
X194720888Y-61395170D02*
X194756868Y-61622339D01*
X194860603Y-65473525D02*
X190351980Y-66187621D01*
X193189971Y-61637644D02*
X194720888Y-61395170D01*
X185881077Y-62795259D02*
X191708438Y-61872295D01*
X184789555Y-68688567D02*
X184827100Y-68925612D01*
X184343717Y-65873655D02*
X184218569Y-65083504D01*
X195276230Y-64901464D02*
G75*
G02*
X194860603Y-65473525I-493845J-78216D01*
G01*
X188373744Y-68363879D02*
G75*
G02*
X190351980Y-66187621I2344897J-144285D01*
G01*
X184218569Y-65083504D02*
G75*
G02*
X185881077Y-62795258I1975382J312865D01*
G01*
%TO.C,MX27*%
X202886648Y-82507694D02*
X202960172Y-82971908D01*
X202404830Y-79465614D02*
X202440810Y-79692783D01*
X202544545Y-83543969D02*
X198035922Y-84258065D01*
X200873913Y-79708088D02*
X202404830Y-79465614D01*
X193565019Y-80865703D02*
X199392380Y-79942739D01*
X192473497Y-86759011D02*
X192511042Y-86996056D01*
X192027659Y-83944099D02*
X191902511Y-83153948D01*
X202960172Y-82971908D02*
G75*
G02*
X202544545Y-83543969I-493845J-78216D01*
G01*
X196057686Y-86434323D02*
G75*
G02*
X198035922Y-84258065I2344897J-144285D01*
G01*
X191902511Y-83153948D02*
G75*
G02*
X193565019Y-80865702I1975382J312865D01*
G01*
D12*
%TO.C,C12*%
X154860807Y-65312208D02*
X155013310Y-65464711D01*
X154351690Y-65821325D02*
X154504193Y-65973828D01*
D10*
%TO.C,MX7*%
X187518764Y-46366807D02*
X187592288Y-46831021D01*
X187036946Y-43324727D02*
X187072926Y-43551896D01*
X187176661Y-47403082D02*
X182668038Y-48117178D01*
X185506029Y-43567201D02*
X187036946Y-43324727D01*
X178197135Y-44724816D02*
X184024496Y-43801852D01*
X177105613Y-50618124D02*
X177143158Y-50855169D01*
X176659775Y-47803212D02*
X176534627Y-47013061D01*
X187592288Y-46831021D02*
G75*
G02*
X187176661Y-47403082I-493845J-78216D01*
G01*
X180689802Y-50293436D02*
G75*
G02*
X182668038Y-48117178I2344897J-144285D01*
G01*
X176534627Y-47013061D02*
G75*
G02*
X178197135Y-44724815I1975382J312865D01*
G01*
D12*
%TO.C,J1*%
X144128125Y-27850000D02*
X153528125Y-27850000D01*
X144128125Y-29750000D02*
X144128125Y-27850000D01*
X144128125Y-33650000D02*
X144128125Y-31650000D01*
X153528125Y-29750000D02*
X153528125Y-27850000D01*
X153528125Y-33650000D02*
X153528125Y-31650000D01*
%TO.C,SWR1*%
X137413202Y-42305006D02*
X137100333Y-44280383D01*
X135859896Y-45400122D02*
X135345041Y-45774186D01*
X136579494Y-40856755D02*
X136205430Y-40341900D01*
X135345041Y-45774186D02*
X132875820Y-45383100D01*
X136205430Y-40341900D02*
X133736209Y-39950814D01*
X132501756Y-44868245D02*
X132875820Y-45383100D01*
X133221354Y-40324878D02*
X133736209Y-39950814D01*
X131980917Y-41444617D02*
X131668048Y-43419994D01*
D10*
%TO.C,MX13*%
X92849543Y-63279033D02*
X92776019Y-63743246D01*
X93331361Y-60236953D02*
X93295381Y-60464121D01*
X92203957Y-64158873D02*
X87695334Y-63444777D01*
X91800444Y-59994479D02*
X93331361Y-60236953D01*
X84491550Y-58836864D02*
X90318912Y-59759827D01*
X81632319Y-64104434D02*
X81594775Y-64341479D01*
X82078157Y-61289523D02*
X82203305Y-60499372D01*
X92776019Y-63743246D02*
G75*
G02*
X92203957Y-64158873I-493845J78218D01*
G01*
X85141419Y-64903213D02*
G75*
G02*
X87695334Y-63444778I2185543J-861837D01*
G01*
X82203305Y-60499372D02*
G75*
G02*
X84491550Y-58836863I1975381J-312874D01*
G01*
D12*
%TO.C,D30*%
X257638827Y-80065216D02*
X257034990Y-76252739D01*
X259614204Y-79752347D02*
X257638827Y-80065216D01*
X259614204Y-79752347D02*
X259010366Y-75939870D01*
D10*
%TO.C,MX12*%
X74034080Y-60298956D02*
X73960556Y-60763169D01*
X74515898Y-57256876D02*
X74479918Y-57484044D01*
X73388494Y-61178796D02*
X68879871Y-60464700D01*
X72984981Y-57014402D02*
X74515898Y-57256876D01*
X65676087Y-55856787D02*
X71503449Y-56779750D01*
X62816856Y-61124357D02*
X62779312Y-61361402D01*
X63262694Y-58309446D02*
X63387842Y-57519295D01*
X73960556Y-60763169D02*
G75*
G02*
X73388494Y-61178796I-493845J78218D01*
G01*
X66325956Y-61923136D02*
G75*
G02*
X68879871Y-60464701I2185543J-861837D01*
G01*
X63387842Y-57519295D02*
G75*
G02*
X65676087Y-55856786I1975381J-312874D01*
G01*
%TO.C,MX11*%
X52866684Y-56946370D02*
X52793160Y-57410583D01*
X53348502Y-53904290D02*
X53312522Y-54131458D01*
X52221098Y-57826210D02*
X47712475Y-57112114D01*
X51817585Y-53661816D02*
X53348502Y-53904290D01*
X44508691Y-52504201D02*
X50336053Y-53427164D01*
X41649460Y-57771771D02*
X41611916Y-58008816D01*
X42095298Y-54956860D02*
X42220446Y-54166709D01*
X52793160Y-57410583D02*
G75*
G02*
X52221098Y-57826210I-493845J78218D01*
G01*
X45158560Y-58570550D02*
G75*
G02*
X47712475Y-57112115I2185543J-861837D01*
G01*
X42220446Y-54166709D02*
G75*
G02*
X44508691Y-52504200I1975381J-312874D01*
G01*
%TO.C,MX28*%
X221702110Y-79527618D02*
X221775634Y-79991832D01*
X221220292Y-76485538D02*
X221256272Y-76712707D01*
X221360007Y-80563893D02*
X216851384Y-81277989D01*
X219689375Y-76728012D02*
X221220292Y-76485538D01*
X212380481Y-77885627D02*
X218207842Y-76962663D01*
X211288959Y-83778935D02*
X211326504Y-84015980D01*
X210843121Y-80964023D02*
X210717973Y-80173872D01*
X221775634Y-79991832D02*
G75*
G02*
X221360007Y-80563893I-493845J-78216D01*
G01*
X214873148Y-83454247D02*
G75*
G02*
X216851384Y-81277989I2344897J-144285D01*
G01*
X210717973Y-80173872D02*
G75*
G02*
X212380481Y-77885626I1975382J312865D01*
G01*
%TO.C,MX22*%
X66350138Y-78369400D02*
X66276614Y-78833613D01*
X66831956Y-75327320D02*
X66795976Y-75554488D01*
X65704552Y-79249240D02*
X61195929Y-78535144D01*
X65301039Y-75084846D02*
X66831956Y-75327320D01*
X57992145Y-73927231D02*
X63819507Y-74850194D01*
X55132914Y-79194801D02*
X55095370Y-79431846D01*
X55578752Y-76379890D02*
X55703900Y-75589739D01*
X66276614Y-78833613D02*
G75*
G02*
X65704552Y-79249240I-493845J78218D01*
G01*
X58642014Y-79993580D02*
G75*
G02*
X61195929Y-78535145I2185543J-861837D01*
G01*
X55703900Y-75589739D02*
G75*
G02*
X57992145Y-73927230I1975381J-312874D01*
G01*
D12*
%TO.C,R7*%
X149066609Y-69438250D02*
X149373891Y-69438250D01*
X149066609Y-70198250D02*
X149373891Y-70198250D01*
%TO.C,D36*%
X215932178Y-105958361D02*
X215328341Y-102145884D01*
X217907555Y-105645492D02*
X215932178Y-105958361D01*
X217907555Y-105645492D02*
X217303717Y-101833015D01*
%TO.C,D14*%
X108045800Y-71915298D02*
X108649638Y-68102821D01*
X110021177Y-72228167D02*
X108045800Y-71915298D01*
X110021177Y-72228167D02*
X110625014Y-68415690D01*
D10*
%TO.C,MX1*%
X58198694Y-38503417D02*
X58125170Y-38967630D01*
X58680512Y-35461337D02*
X58644532Y-35688505D01*
X57553108Y-39383257D02*
X53044485Y-38669161D01*
X57149595Y-35218863D02*
X58680512Y-35461337D01*
X49840701Y-34061248D02*
X55668063Y-34984211D01*
X46981470Y-39328818D02*
X46943926Y-39565863D01*
X47427308Y-36513907D02*
X47552456Y-35723756D01*
X58125170Y-38967630D02*
G75*
G02*
X57553108Y-39383257I-493845J78218D01*
G01*
X50490570Y-40127597D02*
G75*
G02*
X53044485Y-38669162I2185543J-861837D01*
G01*
X47552456Y-35723756D02*
G75*
G02*
X49840701Y-34061247I1975381J-312874D01*
G01*
D12*
%TO.C,C14*%
X142062086Y-58875250D02*
X141846414Y-58875250D01*
X142062086Y-58155250D02*
X141846414Y-58155250D01*
%TD*%
M02*
