%TF.GenerationSoftware,KiCad,Pcbnew,(7.0.0)*%
%TF.CreationDate,2024-04-21T17:59:31+02:00*%
%TF.ProjectId,clops,636c6f70-732e-46b6-9963-61645f706362,rev?*%
%TF.SameCoordinates,Original*%
%TF.FileFunction,Soldermask,Bot*%
%TF.FilePolarity,Negative*%
%FSLAX46Y46*%
G04 Gerber Fmt 4.6, Leading zero omitted, Abs format (unit mm)*
G04 Created by KiCad (PCBNEW (7.0.0)) date 2024-04-21 17:59:31*
%MOMM*%
%LPD*%
G01*
G04 APERTURE LIST*
G04 Aperture macros list*
%AMRoundRect*
0 Rectangle with rounded corners*
0 $1 Rounding radius*
0 $2 $3 $4 $5 $6 $7 $8 $9 X,Y pos of 4 corners*
0 Add a 4 corners polygon primitive as box body*
4,1,4,$2,$3,$4,$5,$6,$7,$8,$9,$2,$3,0*
0 Add four circle primitives for the rounded corners*
1,1,$1+$1,$2,$3*
1,1,$1+$1,$4,$5*
1,1,$1+$1,$6,$7*
1,1,$1+$1,$8,$9*
0 Add four rect primitives between the rounded corners*
20,1,$1+$1,$2,$3,$4,$5,0*
20,1,$1+$1,$4,$5,$6,$7,0*
20,1,$1+$1,$6,$7,$8,$9,0*
20,1,$1+$1,$8,$9,$2,$3,0*%
%AMRotRect*
0 Rectangle, with rotation*
0 The origin of the aperture is its center*
0 $1 length*
0 $2 width*
0 $3 Rotation angle, in degrees counterclockwise*
0 Add horizontal line*
21,1,$1,$2,0,0,$3*%
%AMFreePoly0*
4,1,6,0.600000,-0.250000,-0.600000,-0.250000,-0.600000,1.000000,0.000000,0.400000,0.600000,1.000000,0.600000,-0.250000,0.600000,-0.250000,$1*%
%AMFreePoly1*
4,1,6,0.600000,0.200000,0.000000,-0.400000,-0.600000,0.200000,-0.600000,0.400000,0.600000,0.400000,0.600000,0.200000,0.600000,0.200000,$1*%
G04 Aperture macros list end*
%ADD10C,0.100000*%
%ADD11C,4.000000*%
%ADD12C,3.987800*%
%ADD13R,1.700000X1.700000*%
%ADD14O,1.700000X1.700000*%
%ADD15O,2.100000X1.600000*%
%ADD16FreePoly0,270.000000*%
%ADD17FreePoly1,270.000000*%
%ADD18C,1.600000*%
%ADD19C,2.000000*%
%ADD20RoundRect,0.500000X0.500000X-0.500000X0.500000X0.500000X-0.500000X0.500000X-0.500000X-0.500000X0*%
%ADD21RoundRect,0.550000X0.550000X-1.150000X0.550000X1.150000X-0.550000X1.150000X-0.550000X-1.150000X0*%
%ADD22RoundRect,0.250000X-0.300000X0.300000X-0.300000X-0.300000X0.300000X-0.300000X0.300000X0.300000X0*%
%ADD23RoundRect,0.250000X0.300000X-0.300000X0.300000X0.300000X-0.300000X0.300000X-0.300000X-0.300000X0*%
%ADD24C,1.750000*%
%ADD25C,3.300000*%
%ADD26RoundRect,0.250000X0.855946X1.148034X-1.168815X0.827343X-0.855946X-1.148034X1.168815X-0.827343X0*%
%ADD27RoundRect,0.250000X0.249376X-0.343237X0.343237X0.249376X-0.249376X0.343237X-0.343237X-0.249376X0*%
%ADD28RoundRect,0.250000X0.343237X-0.249376X0.249376X0.343237X-0.343237X0.249376X-0.249376X-0.343237X0*%
%ADD29RoundRect,0.140000X0.170000X-0.140000X0.170000X0.140000X-0.170000X0.140000X-0.170000X-0.140000X0*%
%ADD30RoundRect,0.150000X0.150000X-0.587500X0.150000X0.587500X-0.150000X0.587500X-0.150000X-0.587500X0*%
%ADD31RoundRect,0.200000X-0.275000X0.200000X-0.275000X-0.200000X0.275000X-0.200000X0.275000X0.200000X0*%
%ADD32RoundRect,0.135000X-0.185000X0.135000X-0.185000X-0.135000X0.185000X-0.135000X0.185000X0.135000X0*%
%ADD33RoundRect,0.250000X0.375000X0.625000X-0.375000X0.625000X-0.375000X-0.625000X0.375000X-0.625000X0*%
%ADD34RoundRect,0.250000X1.168815X0.827343X-0.855946X1.148034X-1.168815X-0.827343X0.855946X-1.148034X0*%
%ADD35RoundRect,0.135000X0.135000X0.185000X-0.135000X0.185000X-0.135000X-0.185000X0.135000X-0.185000X0*%
%ADD36R,0.900000X0.300000*%
%ADD37R,0.250000X1.650000*%
%ADD38RoundRect,0.140000X-0.021213X0.219203X-0.219203X0.021213X0.021213X-0.219203X0.219203X-0.021213X0*%
%ADD39RotRect,1.700000X1.000000X189.000000*%
%ADD40RoundRect,0.140000X0.140000X0.170000X-0.140000X0.170000X-0.140000X-0.170000X0.140000X-0.170000X0*%
%ADD41RoundRect,0.250000X-1.000000X1.025000X-1.000000X-1.025000X1.000000X-1.025000X1.000000X1.025000X0*%
%ADD42RoundRect,0.140000X-0.140000X-0.170000X0.140000X-0.170000X0.140000X0.170000X-0.140000X0.170000X0*%
%ADD43RoundRect,0.140000X-0.170000X0.140000X-0.170000X-0.140000X0.170000X-0.140000X0.170000X0.140000X0*%
%ADD44RoundRect,0.150000X0.150000X-0.512500X0.150000X0.512500X-0.150000X0.512500X-0.150000X-0.512500X0*%
%ADD45RoundRect,0.250000X1.025000X1.000000X-1.025000X1.000000X-1.025000X-1.000000X1.025000X-1.000000X0*%
%ADD46RoundRect,0.050000X0.387500X0.050000X-0.387500X0.050000X-0.387500X-0.050000X0.387500X-0.050000X0*%
%ADD47RoundRect,0.050000X0.050000X0.387500X-0.050000X0.387500X-0.050000X-0.387500X0.050000X-0.387500X0*%
%ADD48RoundRect,0.144000X1.456000X1.456000X-1.456000X1.456000X-1.456000X-1.456000X1.456000X-1.456000X0*%
%ADD49R,1.400000X1.200000*%
%ADD50RoundRect,0.140000X-0.219203X-0.021213X-0.021213X-0.219203X0.219203X0.021213X0.021213X0.219203X0*%
%ADD51C,0.650000*%
%ADD52R,0.600000X1.450000*%
%ADD53R,0.300000X1.450000*%
%ADD54O,1.000000X1.600000*%
%ADD55O,1.000000X2.100000*%
%ADD56RotRect,1.700000X1.000000X171.000000*%
%ADD57RoundRect,0.135000X-0.135000X-0.185000X0.135000X-0.185000X0.135000X0.185000X-0.135000X0.185000X0*%
G04 APERTURE END LIST*
%TO.C,EN1*%
G36*
X152185250Y-120999250D02*
G01*
X151169250Y-120999250D01*
X151169250Y-119983250D01*
X152185250Y-119983250D01*
X152185250Y-120999250D01*
G37*
D10*
X152185250Y-120999250D02*
X151169250Y-120999250D01*
X151169250Y-119983250D01*
X152185250Y-119983250D01*
X152185250Y-120999250D01*
G36*
X152185250Y-118459250D02*
G01*
X151169250Y-118459250D01*
X151169250Y-117443250D01*
X152185250Y-117443250D01*
X152185250Y-118459250D01*
G37*
X152185250Y-118459250D02*
X151169250Y-118459250D01*
X151169250Y-117443250D01*
X152185250Y-117443250D01*
X152185250Y-118459250D01*
G36*
X152185250Y-115919250D02*
G01*
X151169250Y-115919250D01*
X151169250Y-114903250D01*
X152185250Y-114903250D01*
X152185250Y-115919250D01*
G37*
X152185250Y-115919250D02*
X151169250Y-115919250D01*
X151169250Y-114903250D01*
X152185250Y-114903250D01*
X152185250Y-115919250D01*
%TD*%
D11*
%TO.C,S1*%
X125107317Y-117753082D03*
D12*
X127491378Y-102700712D03*
D11*
X101587988Y-114027986D03*
D12*
X103972049Y-98975616D03*
%TD*%
D13*
%TO.C,SWD1*%
X137715624Y-71596249D03*
D14*
X137715624Y-69056249D03*
X137715624Y-66516249D03*
%TD*%
D15*
%TO.C,EN1*%
X153806249Y-120753249D03*
D16*
X150915250Y-120491250D03*
D17*
X151931250Y-120491250D03*
D15*
X153806249Y-120229249D03*
X153806249Y-118213249D03*
D16*
X150915250Y-117951250D03*
D17*
X151931250Y-117951250D03*
D15*
X153806249Y-117689249D03*
X153806249Y-115673249D03*
D16*
X150915250Y-115411250D03*
D17*
X151931250Y-115411250D03*
D15*
X153806249Y-115149249D03*
D18*
X155281250Y-123229250D03*
D15*
X153181249Y-123229249D03*
%TD*%
D19*
%TO.C,SW2*%
X145931250Y-90843750D03*
X150931250Y-90843750D03*
D20*
X148431250Y-90843750D03*
D21*
X142831250Y-83343750D03*
X154031250Y-83343750D03*
D19*
X150931250Y-76343750D03*
X145931250Y-76343750D03*
%TD*%
D11*
%TO.C,S2*%
X195673342Y-113725889D03*
D12*
X193289281Y-98673519D03*
D11*
X172154013Y-117450985D03*
D12*
X169769952Y-102398615D03*
%TD*%
D22*
%TO.C,D34*%
X157559375Y-115281250D03*
X157559375Y-118081250D03*
%TD*%
D23*
%TO.C,D33*%
X151606250Y-85016250D03*
X151606250Y-82216250D03*
%TD*%
D24*
%TO.C,MX9*%
X225936365Y-43998026D03*
D12*
X220918908Y-44792713D03*
D24*
X215901451Y-45587400D03*
D25*
X216758472Y-42880000D03*
D26*
X213252178Y-43435342D03*
X226139243Y-38822570D03*
D25*
X222632949Y-39377913D03*
%TD*%
D27*
%TO.C,D15*%
X127975664Y-74251782D03*
X128413680Y-71486254D03*
%TD*%
D24*
%TO.C,MX36*%
X218413064Y-103051982D03*
D12*
X213395607Y-103846669D03*
D24*
X208378150Y-104641356D03*
D25*
X209235171Y-101933956D03*
D26*
X205728877Y-102489298D03*
X218615942Y-97876526D03*
D25*
X215109648Y-98431869D03*
%TD*%
D28*
%TO.C,D10*%
X247835784Y-42222847D03*
X247397768Y-39457319D03*
%TD*%
%TO.C,D28*%
X220868876Y-85068907D03*
X220430860Y-82303379D03*
%TD*%
D29*
%TO.C,C4*%
X145665500Y-57741018D03*
X145665500Y-56781018D03*
%TD*%
D30*
%TO.C,U4*%
X145015625Y-46975000D03*
X143115625Y-46975000D03*
X144065625Y-45100000D03*
%TD*%
D31*
%TO.C,R6*%
X146446875Y-50768750D03*
X146446875Y-52418750D03*
%TD*%
D32*
%TO.C,R1*%
X140096875Y-45243750D03*
X140096875Y-46263750D03*
%TD*%
D24*
%TO.C,MX20*%
X254975858Y-58686083D03*
D12*
X249958401Y-59480770D03*
D24*
X244940944Y-60275457D03*
D25*
X245797965Y-57568057D03*
D26*
X242291671Y-58123399D03*
X255178736Y-53510627D03*
D25*
X251672442Y-54065970D03*
%TD*%
D33*
%TO.C,F1*%
X144671875Y-41275000D03*
X141871875Y-41275000D03*
%TD*%
D24*
%TO.C,MX31*%
X88879701Y-104941162D03*
D12*
X83862244Y-104146475D03*
D24*
X78844787Y-103351788D03*
D25*
X80496495Y-101041731D03*
D34*
X76990201Y-100486389D03*
X90671953Y-100081704D03*
D25*
X87165659Y-99526362D03*
%TD*%
D27*
%TO.C,D23*%
X82660796Y-86362072D03*
X83098812Y-83596544D03*
%TD*%
D35*
%TO.C,R9*%
X156481875Y-45643750D03*
X155461875Y-45643750D03*
%TD*%
D36*
%TO.C,IC1*%
X155784374Y-46874999D03*
X155784374Y-47374999D03*
X155784374Y-47874999D03*
X155784374Y-48374999D03*
X152984374Y-48374999D03*
X152984374Y-47874999D03*
X152984374Y-47374999D03*
X152984374Y-46874999D03*
D37*
X154384374Y-47624999D03*
%TD*%
D28*
%TO.C,D29*%
X239684340Y-82088831D03*
X239246324Y-79323303D03*
%TD*%
D32*
%TO.C,R3*%
X146319875Y-38855480D03*
X146319875Y-39875480D03*
%TD*%
D28*
%TO.C,D20*%
X253355948Y-60636000D03*
X252917932Y-57870472D03*
%TD*%
D32*
%TO.C,R4*%
X151272875Y-38855480D03*
X151272875Y-39875480D03*
%TD*%
D27*
%TO.C,D32*%
X117311645Y-111137688D03*
X117749661Y-108372160D03*
%TD*%
D28*
%TO.C,D18*%
X213184934Y-66998464D03*
X212746918Y-64232936D03*
%TD*%
%TO.C,D9*%
X224316455Y-45947943D03*
X223878439Y-43182415D03*
%TD*%
D24*
%TO.C,MX15*%
X130118847Y-72897880D03*
D12*
X125101390Y-72103193D03*
D24*
X120083933Y-71308506D03*
D25*
X121735641Y-68998449D03*
D34*
X118229347Y-68443107D03*
X131911099Y-68038422D03*
D25*
X128404805Y-67483080D03*
%TD*%
D24*
%TO.C,MX5*%
X137802789Y-54827436D03*
D12*
X132785332Y-54032749D03*
D24*
X127767875Y-53238062D03*
D25*
X129419583Y-50928005D03*
D34*
X125913289Y-50372663D03*
X139595041Y-49967978D03*
D25*
X136088747Y-49412636D03*
%TD*%
D38*
%TO.C,C11*%
X141464661Y-66081482D03*
X140785839Y-66760304D03*
%TD*%
D27*
%TO.C,D2*%
X79213217Y-47241108D03*
X79651233Y-44475580D03*
%TD*%
D29*
%TO.C,C8*%
X144649500Y-57741018D03*
X144649500Y-56781018D03*
%TD*%
D27*
%TO.C,D1*%
X55693889Y-43516013D03*
X56131905Y-40750485D03*
%TD*%
D39*
%TO.C,SW4*%
X165135867Y-40493123D03*
X158913430Y-41478660D03*
X165730318Y-44246338D03*
X159507881Y-45231875D03*
%TD*%
D24*
%TO.C,MX29*%
X241304250Y-80138914D03*
D12*
X236286793Y-80933601D03*
D24*
X231269336Y-81728288D03*
D25*
X232126357Y-79020888D03*
D26*
X228620063Y-79576230D03*
X241507128Y-74963458D03*
D25*
X238000834Y-75518801D03*
%TD*%
D27*
%TO.C,D11*%
X50361879Y-61958966D03*
X50799895Y-59193438D03*
%TD*%
%TO.C,D24*%
X101476258Y-89342149D03*
X101914274Y-86576621D03*
%TD*%
D40*
%TO.C,C17*%
X144069875Y-49723375D03*
X143109875Y-49723375D03*
%TD*%
D27*
%TO.C,D13*%
X90344738Y-68291629D03*
X90782754Y-65526101D03*
%TD*%
D29*
%TO.C,C13*%
X148431250Y-55547250D03*
X148431250Y-54587250D03*
%TD*%
D24*
%TO.C,MX34*%
X148431250Y-111601250D03*
D12*
X148431250Y-116681250D03*
D24*
X148431250Y-121761250D03*
D25*
X145891250Y-120491250D03*
D41*
X145891250Y-124041250D03*
X143351250Y-110591250D03*
D25*
X143351250Y-114141250D03*
%TD*%
D27*
%TO.C,D4*%
X116844143Y-53201261D03*
X117282159Y-50435733D03*
%TD*%
D42*
%TO.C,C16*%
X142823625Y-43243500D03*
X143783625Y-43243500D03*
%TD*%
D43*
%TO.C,C10*%
X147597984Y-69849030D03*
X147597984Y-70809030D03*
%TD*%
D27*
%TO.C,D12*%
X71529275Y-65311552D03*
X71967291Y-62546024D03*
%TD*%
D28*
%TO.C,D7*%
X186685529Y-51908096D03*
X186247513Y-49142568D03*
%TD*%
D29*
%TO.C,C15*%
X153666500Y-60281018D03*
X153666500Y-59321018D03*
%TD*%
D28*
%TO.C,D16*%
X175554009Y-72958617D03*
X175115993Y-70193089D03*
%TD*%
D44*
%TO.C,U2*%
X149778125Y-42011105D03*
X148828125Y-42011105D03*
X147878125Y-42011105D03*
X147878125Y-39736105D03*
X148828125Y-39736105D03*
X149778125Y-39736105D03*
%TD*%
D24*
%TO.C,MX26*%
X184857861Y-89079144D03*
D12*
X179840404Y-89873831D03*
D24*
X174822947Y-90668518D03*
D25*
X175679968Y-87961118D03*
D26*
X172173674Y-88516460D03*
X185060739Y-83903688D03*
D25*
X181554445Y-84459031D03*
%TD*%
D43*
%TO.C,C6*%
X146604234Y-69849030D03*
X146604234Y-70809030D03*
%TD*%
D28*
%TO.C,D6*%
X167870067Y-54888173D03*
X167432051Y-52122645D03*
%TD*%
D24*
%TO.C,MX21*%
X47173053Y-79048018D03*
D12*
X42155596Y-78253331D03*
D24*
X37138139Y-77458644D03*
D25*
X38789847Y-75148587D03*
D34*
X35283553Y-74593245D03*
X48965305Y-74188560D03*
D25*
X45459011Y-73633218D03*
%TD*%
D24*
%TO.C,MX25*%
X122434904Y-90968324D03*
D12*
X117417447Y-90173637D03*
D24*
X112399990Y-89378950D03*
D25*
X114051698Y-87068893D03*
D34*
X110545404Y-86513551D03*
X124227156Y-86108866D03*
D25*
X120720862Y-85553524D03*
%TD*%
D24*
%TO.C,MX3*%
X100171863Y-48867283D03*
D12*
X95154406Y-48072596D03*
D24*
X90136949Y-47277909D03*
D25*
X91788657Y-44967852D03*
D34*
X88282363Y-44412510D03*
X101964115Y-44007825D03*
D25*
X98457821Y-43452483D03*
%TD*%
D24*
%TO.C,MX10*%
X249455694Y-40272931D03*
D12*
X244438237Y-41067618D03*
D24*
X239420780Y-41862305D03*
D25*
X240277801Y-39154905D03*
D26*
X236771507Y-39710247D03*
X249658572Y-35097475D03*
D25*
X246152278Y-35652818D03*
%TD*%
D24*
%TO.C,MX35*%
X187837938Y-107894607D03*
D12*
X182820481Y-108689294D03*
D24*
X177803024Y-109483981D03*
D25*
X178660045Y-106776581D03*
D26*
X175153751Y-107331923D03*
X188040816Y-102719151D03*
D25*
X184534522Y-103274494D03*
%TD*%
D28*
%TO.C,D27*%
X202053414Y-88048984D03*
X201615398Y-85283456D03*
%TD*%
D27*
%TO.C,D21*%
X45029870Y-80401919D03*
X45467886Y-77636391D03*
%TD*%
D24*
%TO.C,MX23*%
X84803978Y-85008171D03*
D12*
X79786521Y-84213484D03*
D24*
X74769064Y-83418797D03*
D25*
X76420772Y-81108740D03*
D34*
X72914478Y-80553398D03*
X86596230Y-80148713D03*
D25*
X83089936Y-79593371D03*
%TD*%
D24*
%TO.C,MX14*%
X111303384Y-69917804D03*
D12*
X106285927Y-69123117D03*
D24*
X101268470Y-68328430D03*
D25*
X102920178Y-66018373D03*
D34*
X99413884Y-65463031D03*
X113095636Y-65058346D03*
D25*
X109589342Y-64503004D03*
%TD*%
D24*
%TO.C,MX33*%
X153511250Y-83343750D03*
D12*
X148431250Y-83343750D03*
D24*
X143351250Y-83343750D03*
D25*
X144621250Y-80803750D03*
D45*
X141071250Y-80803750D03*
X154521250Y-78263750D03*
D25*
X150971250Y-78263750D03*
%TD*%
D27*
%TO.C,D22*%
X63845333Y-83381996D03*
X64283349Y-80616468D03*
%TD*%
D24*
%TO.C,MX2*%
X81356400Y-45887207D03*
D12*
X76338943Y-45092520D03*
D24*
X71321486Y-44297833D03*
D25*
X72973194Y-41987776D03*
D34*
X69466900Y-41432434D03*
X83148652Y-41027749D03*
D25*
X79642358Y-40472407D03*
%TD*%
D24*
%TO.C,MX6*%
X169489977Y-52938256D03*
D12*
X164472520Y-53732943D03*
D24*
X159455063Y-54527630D03*
D25*
X160312084Y-51820230D03*
D26*
X156805790Y-52375572D03*
X169692855Y-47762800D03*
D25*
X166186561Y-48318143D03*
%TD*%
D29*
%TO.C,C5*%
X149955250Y-55547250D03*
X149955250Y-54587250D03*
%TD*%
D28*
%TO.C,D17*%
X194369472Y-69978540D03*
X193931456Y-67213012D03*
%TD*%
%TO.C,D19*%
X232188552Y-63988586D03*
X231750536Y-61223058D03*
%TD*%
%TO.C,D26*%
X183237951Y-91029060D03*
X182799935Y-88263532D03*
%TD*%
D40*
%TO.C,C2*%
X151775625Y-69818250D03*
X150815625Y-69818250D03*
%TD*%
%TO.C,C9*%
X142434250Y-60039250D03*
X141474250Y-60039250D03*
%TD*%
D27*
%TO.C,D25*%
X120291721Y-92322225D03*
X120729737Y-89556697D03*
%TD*%
D42*
%TO.C,C7*%
X143109875Y-48707375D03*
X144069875Y-48707375D03*
%TD*%
D29*
%TO.C,C3*%
X147632750Y-72727018D03*
X147632750Y-71767018D03*
%TD*%
D27*
%TO.C,D3*%
X98028680Y-50221185D03*
X98466696Y-47455657D03*
%TD*%
D31*
%TO.C,R5*%
X148097875Y-50768750D03*
X148097875Y-52418750D03*
%TD*%
D24*
%TO.C,MX19*%
X233808462Y-62038669D03*
D12*
X228791005Y-62833356D03*
D24*
X223773548Y-63628043D03*
D25*
X224630569Y-60920643D03*
D26*
X221124275Y-61475985D03*
X234011340Y-56863213D03*
D25*
X230505046Y-57418556D03*
%TD*%
D27*
%TO.C,D5*%
X135659606Y-56181338D03*
X136097622Y-53415810D03*
%TD*%
D28*
%TO.C,D35*%
X186218028Y-109844523D03*
X185780012Y-107078995D03*
%TD*%
D24*
%TO.C,MX24*%
X103619441Y-87988247D03*
D12*
X98601984Y-87193560D03*
D24*
X93584527Y-86398873D03*
D25*
X95236235Y-84088816D03*
D34*
X91729941Y-83533474D03*
X105411693Y-83128789D03*
D25*
X101905399Y-82573447D03*
%TD*%
D24*
%TO.C,MX18*%
X214804844Y-65048547D03*
D12*
X209787387Y-65843234D03*
D24*
X204769930Y-66637921D03*
D25*
X205626951Y-63930521D03*
D26*
X202120657Y-64485863D03*
X215007722Y-59873091D03*
D25*
X211501428Y-60428434D03*
%TD*%
D24*
%TO.C,MX30*%
X260119713Y-77158837D03*
D12*
X255102256Y-77953524D03*
D24*
X250084799Y-78748211D03*
D25*
X250941820Y-76040811D03*
D26*
X247435526Y-76596153D03*
X260322591Y-71983381D03*
D25*
X256816297Y-72538724D03*
%TD*%
D46*
%TO.C,U3*%
X151868750Y-60900000D03*
X151868750Y-61300000D03*
X151868750Y-61700000D03*
X151868750Y-62100000D03*
X151868750Y-62500000D03*
X151868750Y-62900000D03*
X151868750Y-63300000D03*
X151868750Y-63700000D03*
X151868750Y-64100000D03*
X151868750Y-64500000D03*
X151868750Y-64900000D03*
X151868750Y-65300000D03*
X151868750Y-65700000D03*
X151868750Y-66100000D03*
D47*
X151031250Y-66937500D03*
X150631250Y-66937500D03*
X150231250Y-66937500D03*
X149831250Y-66937500D03*
X149431250Y-66937500D03*
X149031250Y-66937500D03*
X148631250Y-66937500D03*
X148231250Y-66937500D03*
X147831250Y-66937500D03*
X147431250Y-66937500D03*
X147031250Y-66937500D03*
X146631250Y-66937500D03*
X146231250Y-66937500D03*
X145831250Y-66937500D03*
D46*
X144993750Y-66100000D03*
X144993750Y-65700000D03*
X144993750Y-65300000D03*
X144993750Y-64900000D03*
X144993750Y-64500000D03*
X144993750Y-64100000D03*
X144993750Y-63700000D03*
X144993750Y-63300000D03*
X144993750Y-62900000D03*
X144993750Y-62500000D03*
X144993750Y-62100000D03*
X144993750Y-61700000D03*
X144993750Y-61300000D03*
X144993750Y-60900000D03*
D47*
X145831250Y-60062500D03*
X146231250Y-60062500D03*
X146631250Y-60062500D03*
X147031250Y-60062500D03*
X147431250Y-60062500D03*
X147831250Y-60062500D03*
X148231250Y-60062500D03*
X148631250Y-60062500D03*
X149031250Y-60062500D03*
X149431250Y-60062500D03*
X149831250Y-60062500D03*
X150231250Y-60062500D03*
X150631250Y-60062500D03*
X151031250Y-60062500D03*
D48*
X148431250Y-63500000D03*
%TD*%
D24*
%TO.C,MX16*%
X177173919Y-71008700D03*
D12*
X172156462Y-71803387D03*
D24*
X167139005Y-72598074D03*
D25*
X167996026Y-69890674D03*
D26*
X164489732Y-70446016D03*
X177376797Y-65833244D03*
D25*
X173870503Y-66388587D03*
%TD*%
D28*
%TO.C,D8*%
X205500991Y-48928020D03*
X205062975Y-46162492D03*
%TD*%
D24*
%TO.C,MX8*%
X207120902Y-46978103D03*
D12*
X202103445Y-47772790D03*
D24*
X197085988Y-48567477D03*
D25*
X197943009Y-45860077D03*
D26*
X194436715Y-46415419D03*
X207323780Y-41802647D03*
D25*
X203817486Y-42357990D03*
%TD*%
D27*
%TO.C,D31*%
X86736518Y-106295064D03*
X87174534Y-103529536D03*
%TD*%
D24*
%TO.C,MX32*%
X119454828Y-109783787D03*
D12*
X114437371Y-108989100D03*
D24*
X109419914Y-108194413D03*
D25*
X111071622Y-105884356D03*
D34*
X107565328Y-105329014D03*
X121247080Y-104924329D03*
D25*
X117740786Y-104368987D03*
%TD*%
D40*
%TO.C,C18*%
X153376875Y-45643750D03*
X152416875Y-45643750D03*
%TD*%
D49*
%TO.C,Y1*%
X149315624Y-71381249D03*
X151515624Y-71381249D03*
X151515624Y-73081249D03*
X149315624Y-73081249D03*
%TD*%
D24*
%TO.C,MX4*%
X118987326Y-51847360D03*
D12*
X113969869Y-51052673D03*
D24*
X108952412Y-50257986D03*
D25*
X110604120Y-47947929D03*
D34*
X107097826Y-47392587D03*
X120779578Y-46987902D03*
D25*
X117273284Y-46432560D03*
%TD*%
D24*
%TO.C,MX17*%
X195989382Y-68028623D03*
D12*
X190971925Y-68823310D03*
D24*
X185954468Y-69617997D03*
D25*
X186811489Y-66910597D03*
D26*
X183305195Y-67465939D03*
X196192260Y-62853167D03*
D25*
X192685966Y-63408510D03*
%TD*%
D24*
%TO.C,MX27*%
X203673324Y-86099067D03*
D12*
X198655867Y-86893754D03*
D24*
X193638410Y-87688441D03*
D25*
X194495431Y-84981041D03*
D26*
X190989137Y-85536383D03*
X203876202Y-80923611D03*
D25*
X200369908Y-81478954D03*
%TD*%
D50*
%TO.C,C12*%
X154343089Y-65303607D03*
X155021911Y-65982429D03*
%TD*%
D24*
%TO.C,MX7*%
X188305440Y-49958180D03*
D12*
X183287983Y-50752867D03*
D24*
X178270526Y-51547554D03*
D25*
X179127547Y-48840154D03*
D26*
X175621253Y-49395496D03*
X188508318Y-44782724D03*
D25*
X185002024Y-45338067D03*
%TD*%
D51*
%TO.C,J1*%
X145938125Y-34350000D03*
X151718125Y-34350000D03*
D52*
X145578124Y-35794999D03*
X146378124Y-35794999D03*
D53*
X147578124Y-35794999D03*
X148578124Y-35794999D03*
X149078124Y-35794999D03*
X150078124Y-35794999D03*
D52*
X151278124Y-35794999D03*
X152078124Y-35794999D03*
X152078124Y-35794999D03*
X151278124Y-35794999D03*
D53*
X150578124Y-35794999D03*
X149578124Y-35794999D03*
X148078124Y-35794999D03*
X147078124Y-35794999D03*
D52*
X146378124Y-35794999D03*
X145578124Y-35794999D03*
D54*
X144508124Y-30699999D03*
D55*
X144508124Y-34879999D03*
D54*
X153148124Y-30699999D03*
D55*
X153148124Y-34879999D03*
%TD*%
D56*
%TO.C,SWR1*%
X137949068Y-41478660D03*
X131726631Y-40493123D03*
X137354617Y-45231875D03*
X131132180Y-44246338D03*
%TD*%
D24*
%TO.C,MX13*%
X92487921Y-66937727D03*
D12*
X87470464Y-66143040D03*
D24*
X82453007Y-65348353D03*
D25*
X84104715Y-63038296D03*
D34*
X80598421Y-62482954D03*
X94280173Y-62078269D03*
D25*
X90773879Y-61522927D03*
%TD*%
D28*
%TO.C,D30*%
X258499803Y-79108754D03*
X258061787Y-76343226D03*
%TD*%
D24*
%TO.C,MX12*%
X73672458Y-63957650D03*
D12*
X68655001Y-63162963D03*
D24*
X63637544Y-62368276D03*
D25*
X65289252Y-60058219D03*
D34*
X61782958Y-59502877D03*
X75464710Y-59098192D03*
D25*
X71958416Y-58542850D03*
%TD*%
D24*
%TO.C,MX11*%
X52505062Y-60605064D03*
D12*
X47487605Y-59810377D03*
D24*
X42470148Y-59015690D03*
D25*
X44121856Y-56705633D03*
D34*
X40615562Y-56150291D03*
X54297314Y-55745606D03*
D25*
X50791020Y-55190264D03*
%TD*%
D24*
%TO.C,MX28*%
X222488786Y-83118991D03*
D12*
X217471329Y-83913678D03*
D24*
X212453872Y-84708365D03*
D25*
X213310893Y-82000965D03*
D26*
X209804599Y-82556307D03*
X222691664Y-77943535D03*
D25*
X219185370Y-78498878D03*
%TD*%
D24*
%TO.C,MX22*%
X65988516Y-82028094D03*
D12*
X60971059Y-81233407D03*
D24*
X55953602Y-80438720D03*
D25*
X57605310Y-78128663D03*
D34*
X54099016Y-77573321D03*
X67780768Y-77168636D03*
D25*
X64274474Y-76613294D03*
%TD*%
D57*
%TO.C,R7*%
X148710250Y-69818250D03*
X149730250Y-69818250D03*
%TD*%
D28*
%TO.C,D36*%
X216793154Y-105001899D03*
X216355138Y-102236371D03*
%TD*%
D27*
%TO.C,D14*%
X109160201Y-71271705D03*
X109598217Y-68506177D03*
%TD*%
D24*
%TO.C,MX1*%
X57837072Y-42162111D03*
D12*
X52819615Y-41367424D03*
D24*
X47802158Y-40572737D03*
D25*
X49453866Y-38262680D03*
D34*
X45947572Y-37707338D03*
X59629324Y-37302653D03*
D25*
X56123030Y-36747311D03*
%TD*%
D40*
%TO.C,C14*%
X142434250Y-58515250D03*
X141474250Y-58515250D03*
%TD*%
M02*
