%TF.GenerationSoftware,KiCad,Pcbnew,(7.0.0)*%
%TF.CreationDate,2024-04-21T21:27:47+02:00*%
%TF.ProjectId,clops,636c6f70-732e-46b6-9963-61645f706362,rev?*%
%TF.SameCoordinates,Original*%
%TF.FileFunction,Soldermask,Top*%
%TF.FilePolarity,Negative*%
%FSLAX46Y46*%
G04 Gerber Fmt 4.6, Leading zero omitted, Abs format (unit mm)*
G04 Created by KiCad (PCBNEW (7.0.0)) date 2024-04-21 21:27:47*
%MOMM*%
%LPD*%
G01*
G04 APERTURE LIST*
%ADD10C,3.300000*%
%ADD11C,1.750000*%
%ADD12C,3.987800*%
%ADD13R,1.700000X1.700000*%
%ADD14O,1.700000X1.700000*%
%ADD15O,2.100000X1.600000*%
%ADD16C,1.600000*%
%ADD17C,0.650000*%
%ADD18O,1.000000X1.600000*%
%ADD19O,1.000000X2.100000*%
G04 APERTURE END LIST*
D10*
%TO.C,MX34*%
X150971250Y-111601250D03*
X144621250Y-114141250D03*
D11*
X143351250Y-116681250D03*
D12*
X148431250Y-116681250D03*
%TD*%
%TO.C,S1*%
X127491378Y-102700712D03*
X103972049Y-98975616D03*
%TD*%
D13*
%TO.C,SWD1*%
X137715624Y-71596249D03*
D14*
X137715624Y-69056249D03*
X137715624Y-66516249D03*
%TD*%
D15*
%TO.C,EN1*%
X153806249Y-120753249D03*
X153806249Y-120229249D03*
X153806249Y-118213249D03*
X153806249Y-117689249D03*
X153806249Y-115673249D03*
X153806249Y-115149249D03*
D16*
X155281250Y-123229250D03*
D15*
X153181249Y-123229249D03*
%TD*%
D12*
%TO.C,S2*%
X193289281Y-98673519D03*
X169769952Y-102398615D03*
%TD*%
D11*
%TO.C,MX9*%
X225936365Y-43998026D03*
D12*
X220918908Y-44792713D03*
D11*
X215901451Y-45587400D03*
D10*
X216758472Y-42880000D03*
X222632949Y-39377913D03*
%TD*%
D11*
%TO.C,MX36*%
X218413064Y-103051982D03*
D12*
X213395607Y-103846669D03*
D11*
X208378150Y-104641356D03*
D10*
X209235171Y-101933956D03*
X215109648Y-98431869D03*
%TD*%
D11*
%TO.C,MX20*%
X254975858Y-58686083D03*
D12*
X249958401Y-59480770D03*
D11*
X244940944Y-60275457D03*
D10*
X245797965Y-57568057D03*
X251672442Y-54065970D03*
%TD*%
D11*
%TO.C,MX31*%
X88879701Y-104941162D03*
D12*
X83862244Y-104146475D03*
D11*
X78844787Y-103351788D03*
D10*
X80496495Y-101041731D03*
X87165659Y-99526362D03*
%TD*%
D11*
%TO.C,MX15*%
X130118847Y-72897880D03*
D12*
X125101390Y-72103193D03*
D11*
X120083933Y-71308506D03*
D10*
X121735641Y-68998449D03*
X128404805Y-67483080D03*
%TD*%
D11*
%TO.C,MX5*%
X137802789Y-54827436D03*
D12*
X132785332Y-54032749D03*
D11*
X127767875Y-53238062D03*
D10*
X129419583Y-50928005D03*
X136088747Y-49412636D03*
%TD*%
D11*
%TO.C,MX29*%
X241304250Y-80138914D03*
D12*
X236286793Y-80933601D03*
D11*
X231269336Y-81728288D03*
D10*
X232126357Y-79020888D03*
X238000834Y-75518801D03*
%TD*%
D11*
%TO.C,MX26*%
X184857861Y-89079144D03*
D12*
X179840404Y-89873831D03*
D11*
X174822947Y-90668518D03*
D10*
X175679968Y-87961118D03*
X181554445Y-84459031D03*
%TD*%
D11*
%TO.C,MX21*%
X47173053Y-79048018D03*
D12*
X42155596Y-78253331D03*
D11*
X37138139Y-77458644D03*
D10*
X38789847Y-75148587D03*
X45459011Y-73633218D03*
%TD*%
D11*
%TO.C,MX25*%
X122434904Y-90968324D03*
D12*
X117417447Y-90173637D03*
D11*
X112399990Y-89378950D03*
D10*
X114051698Y-87068893D03*
X120720862Y-85553524D03*
%TD*%
D11*
%TO.C,MX3*%
X100171863Y-48867283D03*
D12*
X95154406Y-48072596D03*
D11*
X90136949Y-47277909D03*
D10*
X91788657Y-44967852D03*
X98457821Y-43452483D03*
%TD*%
D11*
%TO.C,MX10*%
X249455694Y-40272931D03*
D12*
X244438237Y-41067618D03*
D11*
X239420780Y-41862305D03*
D10*
X240277801Y-39154905D03*
X246152278Y-35652818D03*
%TD*%
D11*
%TO.C,MX35*%
X187837938Y-107894607D03*
D12*
X182820481Y-108689294D03*
D11*
X177803024Y-109483981D03*
D10*
X178660045Y-106776581D03*
X184534522Y-103274494D03*
%TD*%
D11*
%TO.C,MX23*%
X84803978Y-85008171D03*
D12*
X79786521Y-84213484D03*
D11*
X74769064Y-83418797D03*
D10*
X76420772Y-81108740D03*
X83089936Y-79593371D03*
%TD*%
D11*
%TO.C,MX14*%
X111303384Y-69917804D03*
D12*
X106285927Y-69123117D03*
D11*
X101268470Y-68328430D03*
D10*
X102920178Y-66018373D03*
X109589342Y-64503004D03*
%TD*%
D11*
%TO.C,MX33*%
X153511250Y-83343750D03*
D12*
X148431250Y-83343750D03*
D11*
X143351250Y-83343750D03*
D10*
X144621250Y-80803750D03*
X150971250Y-78263750D03*
%TD*%
D11*
%TO.C,MX2*%
X81356400Y-45887207D03*
D12*
X76338943Y-45092520D03*
D11*
X71321486Y-44297833D03*
D10*
X72973194Y-41987776D03*
X79642358Y-40472407D03*
%TD*%
D11*
%TO.C,MX6*%
X169489977Y-52938256D03*
D12*
X164472520Y-53732943D03*
D11*
X159455063Y-54527630D03*
D10*
X160312084Y-51820230D03*
X166186561Y-48318143D03*
%TD*%
D11*
%TO.C,MX19*%
X233808462Y-62038669D03*
D12*
X228791005Y-62833356D03*
D11*
X223773548Y-63628043D03*
D10*
X224630569Y-60920643D03*
X230505046Y-57418556D03*
%TD*%
D11*
%TO.C,MX24*%
X103619441Y-87988247D03*
D12*
X98601984Y-87193560D03*
D11*
X93584527Y-86398873D03*
D10*
X95236235Y-84088816D03*
X101905399Y-82573447D03*
%TD*%
D11*
%TO.C,MX18*%
X214804844Y-65048547D03*
D12*
X209787387Y-65843234D03*
D11*
X204769930Y-66637921D03*
D10*
X205626951Y-63930521D03*
X211501428Y-60428434D03*
%TD*%
D11*
%TO.C,MX30*%
X260119713Y-77158837D03*
D12*
X255102256Y-77953524D03*
D11*
X250084799Y-78748211D03*
D10*
X250941820Y-76040811D03*
X256816297Y-72538724D03*
%TD*%
D11*
%TO.C,MX16*%
X177173919Y-71008700D03*
D12*
X172156462Y-71803387D03*
D11*
X167139005Y-72598074D03*
D10*
X167996026Y-69890674D03*
X173870503Y-66388587D03*
%TD*%
D11*
%TO.C,MX8*%
X207120902Y-46978103D03*
D12*
X202103445Y-47772790D03*
D11*
X197085988Y-48567477D03*
D10*
X197943009Y-45860077D03*
X203817486Y-42357990D03*
%TD*%
D11*
%TO.C,MX32*%
X119454828Y-109783787D03*
D12*
X114437371Y-108989100D03*
D11*
X109419914Y-108194413D03*
D10*
X111071622Y-105884356D03*
X117740786Y-104368987D03*
%TD*%
D11*
%TO.C,MX4*%
X118987326Y-51847360D03*
D12*
X113969869Y-51052673D03*
D11*
X108952412Y-50257986D03*
D10*
X110604120Y-47947929D03*
X117273284Y-46432560D03*
%TD*%
D11*
%TO.C,MX17*%
X195989382Y-68028623D03*
D12*
X190971925Y-68823310D03*
D11*
X185954468Y-69617997D03*
D10*
X186811489Y-66910597D03*
X192685966Y-63408510D03*
%TD*%
D11*
%TO.C,MX27*%
X203673324Y-86099067D03*
D12*
X198655867Y-86893754D03*
D11*
X193638410Y-87688441D03*
D10*
X194495431Y-84981041D03*
X200369908Y-81478954D03*
%TD*%
D11*
%TO.C,MX7*%
X188305440Y-49958180D03*
D12*
X183287983Y-50752867D03*
D11*
X178270526Y-51547554D03*
D10*
X179127547Y-48840154D03*
X185002024Y-45338067D03*
%TD*%
D17*
%TO.C,J1*%
X145938125Y-34350000D03*
X151718125Y-34350000D03*
D18*
X144508124Y-30699999D03*
D19*
X144508124Y-34879999D03*
D18*
X153148124Y-30699999D03*
D19*
X153148124Y-34879999D03*
%TD*%
D11*
%TO.C,MX13*%
X92487921Y-66937727D03*
D12*
X87470464Y-66143040D03*
D11*
X82453007Y-65348353D03*
D10*
X84104715Y-63038296D03*
X90773879Y-61522927D03*
%TD*%
D11*
%TO.C,MX12*%
X73672458Y-63957650D03*
D12*
X68655001Y-63162963D03*
D11*
X63637544Y-62368276D03*
D10*
X65289252Y-60058219D03*
X71958416Y-58542850D03*
%TD*%
D11*
%TO.C,MX11*%
X52505062Y-60605064D03*
D12*
X47487605Y-59810377D03*
D11*
X42470148Y-59015690D03*
D10*
X44121856Y-56705633D03*
X50791020Y-55190264D03*
%TD*%
D11*
%TO.C,MX28*%
X222488786Y-83118991D03*
D12*
X217471329Y-83913678D03*
D11*
X212453872Y-84708365D03*
D10*
X213310893Y-82000965D03*
X219185370Y-78498878D03*
%TD*%
D11*
%TO.C,MX22*%
X65988516Y-82028094D03*
D12*
X60971059Y-81233407D03*
D11*
X55953602Y-80438720D03*
D10*
X57605310Y-78128663D03*
X64274474Y-76613294D03*
%TD*%
D11*
%TO.C,MX1*%
X57837072Y-42162111D03*
D12*
X52819615Y-41367424D03*
D11*
X47802158Y-40572737D03*
D10*
X49453866Y-38262680D03*
X56123030Y-36747311D03*
%TD*%
M02*
