M48
; DRILL file {KiCad (7.0.0)} date Sun Apr 21 21:29:13 2024
; FORMAT={-:-/ absolute / inch / decimal}
; #@! TF.CreationDate,2024-04-21T21:29:13+02:00
; #@! TF.GenerationSoftware,Kicad,Pcbnew,(7.0.0)
; #@! TF.FileFunction,NonPlated,1,2,NPTH
FMAT,2
INCH
; #@! TA.AperFunction,NonPlated,NPTH,ComponentDrill
T1C0.0256
; #@! TA.AperFunction,NonPlated,NPTH,ComponentDrill
T2C0.0689
; #@! TA.AperFunction,NonPlated,NPTH,ComponentDrill
T3C0.1570
%
G90
G05
T1
X5.7456Y-1.3524
X5.9732Y-1.3524
T2
X1.4621Y-3.0496
X1.6721Y-2.3235
X1.8572Y-3.1121
X1.882Y-1.5974
X2.0671Y-2.386
X2.2029Y-3.1669
X2.2771Y-1.6599
X2.5054Y-2.4554
X2.598Y-3.2295
X2.8079Y-1.744
X2.9005Y-2.518
X2.9437Y-3.2842
X3.1041Y-4.069
X3.203Y-1.8066
X3.2462Y-2.5728
X3.3387Y-3.3468
X3.4992Y-4.1315
X3.5487Y-1.8613
X3.6413Y-2.6353
X3.6844Y-3.4015
X3.9438Y-1.9239
X3.9869Y-2.6901
X4.0795Y-3.4641
X4.2895Y-1.9787
X4.3079Y-4.2596
X4.382Y-2.7527
X4.4252Y-3.5189
X4.6845Y-2.0412
X4.7029Y-4.3222
X4.7277Y-2.8074
X4.8203Y-3.5814
X5.0302Y-2.096
X5.1228Y-2.87
X5.4253Y-2.1586
X5.6437Y-3.2812
X5.6437Y-4.5938
X6.0438Y-3.2812
X6.2778Y-2.1468
X6.5803Y-2.8582
X6.6728Y-2.0842
X6.8828Y-3.5696
X6.9754Y-2.7956
X7.0001Y-4.3104
X7.0185Y-2.0294
X7.2779Y-3.5071
X7.321Y-2.7409
X7.3952Y-4.2478
X7.4136Y-1.9669
X7.6236Y-3.4523
X7.7161Y-2.6783
X7.7593Y-1.9121
X8.0186Y-3.3897
X8.0618Y-2.6235
X8.1544Y-1.8495
X8.2039Y-4.1197
X8.3643Y-3.335
X8.4569Y-2.561
X8.5001Y-1.7948
X8.5989Y-4.0572
X8.7594Y-3.2724
X8.81Y-2.505
X8.8951Y-1.7322
X9.1051Y-3.2176
X9.2051Y-2.4425
X9.426Y-1.6481
X9.5002Y-3.1551
X9.6433Y-2.373
X9.8211Y-1.5855
X9.8459Y-3.1003
X10.0384Y-2.3105
X10.2409Y-3.0377
T3
X1.6597Y-3.0808
X1.8696Y-2.3547
X2.0795Y-1.6286
X2.4004Y-3.1982
X2.703Y-2.4867
X3.0055Y-1.7753
X3.1412Y-3.3155
X3.3017Y-4.1003
X3.4437Y-2.6041
X3.7462Y-1.8926
X3.882Y-3.4328
X4.0934Y-3.8967
X4.1845Y-2.7214
X4.487Y-2.0099
X4.5054Y-4.2909
X4.6227Y-3.5501
X4.9253Y-2.8387
X5.0193Y-4.0433
X5.2278Y-2.1273
X5.8438Y-3.2812
X5.8438Y-4.5938
X6.4753Y-2.1155
X6.6839Y-4.0314
X6.7778Y-2.8269
X7.0803Y-3.5383
X7.1977Y-4.2791
X7.2161Y-1.9981
X7.5186Y-2.7096
X7.6098Y-3.8848
X7.8211Y-3.421
X7.9568Y-1.8808
X8.2593Y-2.5923
X8.4014Y-4.0885
X8.5619Y-3.3037
X8.6976Y-1.7635
X9.0075Y-2.4738
X9.3026Y-3.1864
X9.6236Y-1.6168
X9.8409Y-2.3418
X10.0434Y-3.069
T0
M30
